%TF.GenerationSoftware,KiCad,Pcbnew,(5.1.7)-1*%
%TF.CreationDate,2020-11-28T10:02:44+01:00*%
%TF.ProjectId,Rhizo_Receiver_Shield,5268697a-6f5f-4526-9563-65697665725f,rev?*%
%TF.SameCoordinates,Original*%
%TF.FileFunction,Soldermask,Bot*%
%TF.FilePolarity,Negative*%
%FSLAX46Y46*%
G04 Gerber Fmt 4.6, Leading zero omitted, Abs format (unit mm)*
G04 Created by KiCad (PCBNEW (5.1.7)-1) date 2020-11-28 10:02:44*
%MOMM*%
%LPD*%
G01*
G04 APERTURE LIST*
%ADD10O,1.700000X1.700000*%
%ADD11R,1.700000X1.700000*%
%ADD12C,2.250000*%
%ADD13C,2.050000*%
%ADD14O,1.727200X2.032000*%
%ADD15C,4.064000*%
G04 APERTURE END LIST*
D10*
%TO.C,P9*%
X115001040Y-103863140D03*
X115001040Y-101323140D03*
X115001040Y-98783140D03*
X115001040Y-96243140D03*
X115001040Y-93703140D03*
D11*
X115001040Y-91163140D03*
%TD*%
D12*
%TO.C,J1*%
X129794000Y-124079000D03*
X129794000Y-118999000D03*
X134874000Y-118999000D03*
X134874000Y-124079000D03*
D13*
X132334000Y-121539000D03*
%TD*%
D14*
%TO.C,P1*%
X138938000Y-123825000D03*
X141478000Y-123825000D03*
X144018000Y-123825000D03*
X146558000Y-123825000D03*
X149098000Y-123825000D03*
X151638000Y-123825000D03*
X154178000Y-123825000D03*
X156718000Y-123825000D03*
%TD*%
%TO.C,P2*%
X161798000Y-123825000D03*
X164338000Y-123825000D03*
X166878000Y-123825000D03*
X169418000Y-123825000D03*
X171958000Y-123825000D03*
X174498000Y-123825000D03*
%TD*%
%TO.C,P3*%
X129794000Y-75565000D03*
X132334000Y-75565000D03*
X134874000Y-75565000D03*
X137414000Y-75565000D03*
X139954000Y-75565000D03*
X142494000Y-75565000D03*
X145034000Y-75565000D03*
X147574000Y-75565000D03*
X150114000Y-75565000D03*
X152654000Y-75565000D03*
%TD*%
%TO.C,P4*%
X156718000Y-75565000D03*
X159258000Y-75565000D03*
X161798000Y-75565000D03*
X164338000Y-75565000D03*
X166878000Y-75565000D03*
X169418000Y-75565000D03*
X171958000Y-75565000D03*
X174498000Y-75565000D03*
%TD*%
D15*
%TO.C,P5*%
X124968000Y-123825000D03*
%TD*%
%TO.C,P6*%
X177038000Y-118745000D03*
%TD*%
%TO.C,P7*%
X126238000Y-75565000D03*
%TD*%
%TO.C,P8*%
X177038000Y-90805000D03*
%TD*%
M02*
