%TF.GenerationSoftware,KiCad,Pcbnew,(5.1.7)-1*%
%TF.CreationDate,2020-11-28T10:02:44+01:00*%
%TF.ProjectId,Rhizo_Receiver_Shield,5268697a-6f5f-4526-9563-65697665725f,rev?*%
%TF.SameCoordinates,Original*%
%TF.FileFunction,Legend,Top*%
%TF.FilePolarity,Positive*%
%FSLAX46Y46*%
G04 Gerber Fmt 4.6, Leading zero omitted, Abs format (unit mm)*
G04 Created by KiCad (PCBNEW (5.1.7)-1) date 2020-11-28 10:02:44*
%MOMM*%
%LPD*%
G01*
G04 APERTURE LIST*
%ADD10C,0.150000*%
%ADD11C,0.120000*%
G04 APERTURE END LIST*
D10*
X139390380Y-120999285D02*
X139390380Y-121570714D01*
X139390380Y-121285000D02*
X138390380Y-121285000D01*
X138533238Y-121380238D01*
X138628476Y-121475476D01*
X138676095Y-121570714D01*
D11*
%TO.C,P9*%
X113671040Y-89833140D02*
X115001040Y-89833140D01*
X113671040Y-91163140D02*
X113671040Y-89833140D01*
X113671040Y-92433140D02*
X116331040Y-92433140D01*
X116331040Y-92433140D02*
X116331040Y-105193140D01*
X113671040Y-92433140D02*
X113671040Y-105193140D01*
X113671040Y-105193140D02*
X116331040Y-105193140D01*
%TO.C,C18*%
X157912853Y-94350300D02*
X158205387Y-94350300D01*
X157912853Y-93330300D02*
X158205387Y-93330300D01*
%TO.C,C16*%
X157934613Y-97223040D02*
X158227147Y-97223040D01*
X157934613Y-96203040D02*
X158227147Y-96203040D01*
%TO.C,C15*%
X158324333Y-108416820D02*
X158616867Y-108416820D01*
X158324333Y-107396820D02*
X158616867Y-107396820D01*
%TO.C,C14*%
X165890993Y-113885440D02*
X166183527Y-113885440D01*
X165890993Y-112865440D02*
X166183527Y-112865440D01*
%TO.C,C2*%
X122948160Y-110924727D02*
X122948160Y-110632193D01*
X121928160Y-110924727D02*
X121928160Y-110632193D01*
%TO.C,J1*%
X130534000Y-117859000D02*
X134134000Y-117859000D01*
X130534000Y-125219000D02*
X134134000Y-125219000D01*
X136014000Y-119739000D02*
X136014000Y-123339000D01*
X128654000Y-119739000D02*
X128654000Y-123339000D01*
%TO.C,U101*%
X138467280Y-93230940D02*
X138467280Y-106730940D01*
X153967280Y-93230940D02*
X135967280Y-93230940D01*
X153967280Y-106730940D02*
X153967280Y-93230940D01*
X135967280Y-106730940D02*
X153967280Y-106730940D01*
X135967280Y-93230940D02*
X135967280Y-106730940D01*
%TO.C,SW2*%
X154370240Y-118546560D02*
X161070240Y-118546560D01*
X161070240Y-112346560D02*
X154370240Y-112346560D01*
X161070240Y-114246560D02*
X161070240Y-116646560D01*
X154370240Y-114246560D02*
X154370240Y-116646560D01*
X154370240Y-112346560D02*
X154370240Y-112546560D01*
X154370240Y-118546560D02*
X154370240Y-118346560D01*
X161070240Y-118546560D02*
X161070240Y-118346560D01*
X161070240Y-112346560D02*
X161070240Y-112546560D01*
%TO.C,SW1*%
X173325873Y-99618800D02*
X173325873Y-98348800D01*
X174532540Y-98418800D02*
X173325873Y-98418800D01*
X174532540Y-98538800D02*
X173325873Y-98538800D01*
X174532540Y-98658800D02*
X173325873Y-98658800D01*
X174532540Y-98778800D02*
X173325873Y-98778800D01*
X174532540Y-98898800D02*
X173325873Y-98898800D01*
X174532540Y-99018800D02*
X173325873Y-99018800D01*
X174532540Y-99138800D02*
X173325873Y-99138800D01*
X174532540Y-99258800D02*
X173325873Y-99258800D01*
X174532540Y-99378800D02*
X173325873Y-99378800D01*
X174532540Y-99498800D02*
X173325873Y-99498800D01*
X170912540Y-99618800D02*
X174532540Y-99618800D01*
X170912540Y-98348800D02*
X170912540Y-99618800D01*
X174532540Y-98348800D02*
X170912540Y-98348800D01*
X174532540Y-99618800D02*
X174532540Y-98348800D01*
X173325873Y-102158800D02*
X173325873Y-100888800D01*
X174532540Y-100958800D02*
X173325873Y-100958800D01*
X174532540Y-101078800D02*
X173325873Y-101078800D01*
X174532540Y-101198800D02*
X173325873Y-101198800D01*
X174532540Y-101318800D02*
X173325873Y-101318800D01*
X174532540Y-101438800D02*
X173325873Y-101438800D01*
X174532540Y-101558800D02*
X173325873Y-101558800D01*
X174532540Y-101678800D02*
X173325873Y-101678800D01*
X174532540Y-101798800D02*
X173325873Y-101798800D01*
X174532540Y-101918800D02*
X173325873Y-101918800D01*
X174532540Y-102038800D02*
X173325873Y-102038800D01*
X170912540Y-102158800D02*
X174532540Y-102158800D01*
X170912540Y-100888800D02*
X170912540Y-102158800D01*
X174532540Y-100888800D02*
X170912540Y-100888800D01*
X174532540Y-102158800D02*
X174532540Y-100888800D01*
X173325873Y-104698800D02*
X173325873Y-103428800D01*
X174532540Y-103498800D02*
X173325873Y-103498800D01*
X174532540Y-103618800D02*
X173325873Y-103618800D01*
X174532540Y-103738800D02*
X173325873Y-103738800D01*
X174532540Y-103858800D02*
X173325873Y-103858800D01*
X174532540Y-103978800D02*
X173325873Y-103978800D01*
X174532540Y-104098800D02*
X173325873Y-104098800D01*
X174532540Y-104218800D02*
X173325873Y-104218800D01*
X174532540Y-104338800D02*
X173325873Y-104338800D01*
X174532540Y-104458800D02*
X173325873Y-104458800D01*
X174532540Y-104578800D02*
X173325873Y-104578800D01*
X170912540Y-104698800D02*
X174532540Y-104698800D01*
X170912540Y-103428800D02*
X170912540Y-104698800D01*
X174532540Y-103428800D02*
X170912540Y-103428800D01*
X174532540Y-104698800D02*
X174532540Y-103428800D01*
X173325873Y-107238800D02*
X173325873Y-105968800D01*
X174532540Y-106038800D02*
X173325873Y-106038800D01*
X174532540Y-106158800D02*
X173325873Y-106158800D01*
X174532540Y-106278800D02*
X173325873Y-106278800D01*
X174532540Y-106398800D02*
X173325873Y-106398800D01*
X174532540Y-106518800D02*
X173325873Y-106518800D01*
X174532540Y-106638800D02*
X173325873Y-106638800D01*
X174532540Y-106758800D02*
X173325873Y-106758800D01*
X174532540Y-106878800D02*
X173325873Y-106878800D01*
X174532540Y-106998800D02*
X173325873Y-106998800D01*
X174532540Y-107118800D02*
X173325873Y-107118800D01*
X170912540Y-107238800D02*
X174532540Y-107238800D01*
X170912540Y-105968800D02*
X170912540Y-107238800D01*
X174532540Y-105968800D02*
X170912540Y-105968800D01*
X174532540Y-107238800D02*
X174532540Y-105968800D01*
X173325873Y-109778800D02*
X173325873Y-108508800D01*
X174532540Y-108578800D02*
X173325873Y-108578800D01*
X174532540Y-108698800D02*
X173325873Y-108698800D01*
X174532540Y-108818800D02*
X173325873Y-108818800D01*
X174532540Y-108938800D02*
X173325873Y-108938800D01*
X174532540Y-109058800D02*
X173325873Y-109058800D01*
X174532540Y-109178800D02*
X173325873Y-109178800D01*
X174532540Y-109298800D02*
X173325873Y-109298800D01*
X174532540Y-109418800D02*
X173325873Y-109418800D01*
X174532540Y-109538800D02*
X173325873Y-109538800D01*
X174532540Y-109658800D02*
X173325873Y-109658800D01*
X170912540Y-109778800D02*
X174532540Y-109778800D01*
X170912540Y-108508800D02*
X170912540Y-109778800D01*
X174532540Y-108508800D02*
X170912540Y-108508800D01*
X174532540Y-109778800D02*
X174532540Y-108508800D01*
X176372540Y-111493800D02*
X176372540Y-110110800D01*
X176372540Y-111493800D02*
X174989540Y-111493800D01*
X169312540Y-108343800D02*
X169312540Y-107403800D01*
X169312540Y-111253800D02*
X169312540Y-109943800D01*
X169312540Y-105803800D02*
X169312540Y-104863800D01*
X169312540Y-103263800D02*
X169312540Y-102323800D01*
X169312540Y-100723800D02*
X169312540Y-99783800D01*
X169312540Y-98183800D02*
X169312540Y-96872800D01*
X176132540Y-98183800D02*
X176132540Y-96872800D01*
X176132540Y-100723800D02*
X176132540Y-99783800D01*
X176132540Y-103263800D02*
X176132540Y-102323800D01*
X176132540Y-105803800D02*
X176132540Y-104863800D01*
X176132540Y-108343800D02*
X176132540Y-107403800D01*
X176132540Y-111253800D02*
X176132540Y-109943800D01*
X176132540Y-96872800D02*
X169312540Y-96872800D01*
X176132540Y-111253800D02*
X169312540Y-111253800D01*
%TO.C,R101*%
X120173482Y-104416120D02*
X120647998Y-104416120D01*
X120173482Y-103371120D02*
X120647998Y-103371120D01*
%TO.C,R13*%
X128382762Y-106194120D02*
X128857278Y-106194120D01*
X128382762Y-105149120D02*
X128857278Y-105149120D01*
%TO.C,R11*%
X163566842Y-98413040D02*
X164041358Y-98413040D01*
X163566842Y-99458040D02*
X164041358Y-99458040D01*
%TO.C,R10*%
X163567342Y-102036140D02*
X164041858Y-102036140D01*
X163567342Y-100991140D02*
X164041858Y-100991140D01*
%TO.C,R9*%
X163595282Y-104571060D02*
X164069798Y-104571060D01*
X163595282Y-103526060D02*
X164069798Y-103526060D01*
%TO.C,R8*%
X163628302Y-107113600D02*
X164102818Y-107113600D01*
X163628302Y-106068600D02*
X164102818Y-106068600D01*
%TO.C,R7*%
X163565302Y-108623840D02*
X164039818Y-108623840D01*
X163565302Y-109668840D02*
X164039818Y-109668840D01*
%TO.C,R6*%
X117409962Y-82541640D02*
X117884478Y-82541640D01*
X117409962Y-81496640D02*
X117884478Y-81496640D01*
%TO.C,R5*%
X117402342Y-85376280D02*
X117876858Y-85376280D01*
X117402342Y-84331280D02*
X117876858Y-84331280D01*
%TO.C,R4*%
X166219138Y-115702820D02*
X165744622Y-115702820D01*
X166219138Y-116747820D02*
X165744622Y-116747820D01*
%TO.C,R3*%
X117437902Y-76737740D02*
X117912418Y-76737740D01*
X117437902Y-75692740D02*
X117912418Y-75692740D01*
%TO.C,R2*%
X117435362Y-79582540D02*
X117909878Y-79582540D01*
X117435362Y-78537540D02*
X117909878Y-78537540D01*
%TO.C,R1*%
X128867640Y-106186202D02*
X128867640Y-106660718D01*
X129912640Y-106186202D02*
X129912640Y-106660718D01*
%TO.C,D101*%
X123074160Y-104628620D02*
X125359160Y-104628620D01*
X123074160Y-103158620D02*
X123074160Y-104628620D01*
X125359160Y-103158620D02*
X123074160Y-103158620D01*
%TO.C,D4*%
X115073700Y-81273980D02*
X112788700Y-81273980D01*
X115073700Y-82743980D02*
X115073700Y-81273980D01*
X112788700Y-82743980D02*
X115073700Y-82743980D01*
%TO.C,D3*%
X115055920Y-84187360D02*
X112770920Y-84187360D01*
X115055920Y-85657360D02*
X115055920Y-84187360D01*
X112770920Y-85657360D02*
X115055920Y-85657360D01*
%TO.C,D2*%
X115081320Y-75492940D02*
X112796320Y-75492940D01*
X115081320Y-76962940D02*
X115081320Y-75492940D01*
X112796320Y-76962940D02*
X115081320Y-76962940D01*
%TO.C,D1*%
X115068820Y-78342820D02*
X112783820Y-78342820D01*
X115068820Y-79812820D02*
X115068820Y-78342820D01*
X112783820Y-79812820D02*
X115068820Y-79812820D01*
D10*
%TO.C,P1*%
X140208000Y-125095000D02*
X157988000Y-125095000D01*
X157988000Y-125095000D02*
X157988000Y-122555000D01*
X157988000Y-122555000D02*
X140208000Y-122555000D01*
X137388000Y-125375000D02*
X138938000Y-125375000D01*
X140208000Y-125095000D02*
X140208000Y-122555000D01*
X138938000Y-122275000D02*
X137388000Y-122275000D01*
X137388000Y-122275000D02*
X137388000Y-125375000D01*
%TO.C,P2*%
X163068000Y-125095000D02*
X175768000Y-125095000D01*
X175768000Y-125095000D02*
X175768000Y-122555000D01*
X175768000Y-122555000D02*
X163068000Y-122555000D01*
X160248000Y-125375000D02*
X161798000Y-125375000D01*
X163068000Y-125095000D02*
X163068000Y-122555000D01*
X161798000Y-122275000D02*
X160248000Y-122275000D01*
X160248000Y-122275000D02*
X160248000Y-125375000D01*
%TO.C,P3*%
X131064000Y-76835000D02*
X153924000Y-76835000D01*
X153924000Y-76835000D02*
X153924000Y-74295000D01*
X153924000Y-74295000D02*
X131064000Y-74295000D01*
X128244000Y-77115000D02*
X129794000Y-77115000D01*
X131064000Y-76835000D02*
X131064000Y-74295000D01*
X129794000Y-74015000D02*
X128244000Y-74015000D01*
X128244000Y-74015000D02*
X128244000Y-77115000D01*
%TO.C,P4*%
X157988000Y-76835000D02*
X175768000Y-76835000D01*
X175768000Y-76835000D02*
X175768000Y-74295000D01*
X175768000Y-74295000D02*
X157988000Y-74295000D01*
X155168000Y-77115000D02*
X156718000Y-77115000D01*
X157988000Y-76835000D02*
X157988000Y-74295000D01*
X156718000Y-74015000D02*
X155168000Y-74015000D01*
X155168000Y-74015000D02*
X155168000Y-77115000D01*
%TO.C,P5*%
X127254000Y-123825000D02*
G75*
G03*
X127254000Y-123825000I-2286000J0D01*
G01*
%TO.C,P6*%
X179324000Y-118745000D02*
G75*
G03*
X179324000Y-118745000I-2286000J0D01*
G01*
%TO.C,P7*%
X128524000Y-75565000D02*
G75*
G03*
X128524000Y-75565000I-2286000J0D01*
G01*
%TO.C,P8*%
X179324000Y-90805000D02*
G75*
G03*
X179324000Y-90805000I-2286000J0D01*
G01*
%TO.C,P9*%
X114262944Y-89285520D02*
X114262944Y-88285520D01*
X114643897Y-88285520D01*
X114739135Y-88333140D01*
X114786754Y-88380759D01*
X114834373Y-88475997D01*
X114834373Y-88618854D01*
X114786754Y-88714092D01*
X114739135Y-88761711D01*
X114643897Y-88809330D01*
X114262944Y-88809330D01*
X115310563Y-89285520D02*
X115501040Y-89285520D01*
X115596278Y-89237901D01*
X115643897Y-89190282D01*
X115739135Y-89047425D01*
X115786754Y-88856949D01*
X115786754Y-88475997D01*
X115739135Y-88380759D01*
X115691516Y-88333140D01*
X115596278Y-88285520D01*
X115405801Y-88285520D01*
X115310563Y-88333140D01*
X115262944Y-88380759D01*
X115215325Y-88475997D01*
X115215325Y-88714092D01*
X115262944Y-88809330D01*
X115310563Y-88856949D01*
X115405801Y-88904568D01*
X115596278Y-88904568D01*
X115691516Y-88856949D01*
X115739135Y-88809330D01*
X115786754Y-88714092D01*
%TO.C,C18*%
X157416262Y-92767442D02*
X157368643Y-92815061D01*
X157225786Y-92862680D01*
X157130548Y-92862680D01*
X156987691Y-92815061D01*
X156892453Y-92719823D01*
X156844834Y-92624585D01*
X156797215Y-92434109D01*
X156797215Y-92291252D01*
X156844834Y-92100776D01*
X156892453Y-92005538D01*
X156987691Y-91910300D01*
X157130548Y-91862680D01*
X157225786Y-91862680D01*
X157368643Y-91910300D01*
X157416262Y-91957919D01*
X158368643Y-92862680D02*
X157797215Y-92862680D01*
X158082929Y-92862680D02*
X158082929Y-91862680D01*
X157987691Y-92005538D01*
X157892453Y-92100776D01*
X157797215Y-92148395D01*
X158940072Y-92291252D02*
X158844834Y-92243633D01*
X158797215Y-92196014D01*
X158749596Y-92100776D01*
X158749596Y-92053157D01*
X158797215Y-91957919D01*
X158844834Y-91910300D01*
X158940072Y-91862680D01*
X159130548Y-91862680D01*
X159225786Y-91910300D01*
X159273405Y-91957919D01*
X159321024Y-92053157D01*
X159321024Y-92100776D01*
X159273405Y-92196014D01*
X159225786Y-92243633D01*
X159130548Y-92291252D01*
X158940072Y-92291252D01*
X158844834Y-92338871D01*
X158797215Y-92386490D01*
X158749596Y-92481728D01*
X158749596Y-92672204D01*
X158797215Y-92767442D01*
X158844834Y-92815061D01*
X158940072Y-92862680D01*
X159130548Y-92862680D01*
X159225786Y-92815061D01*
X159273405Y-92767442D01*
X159321024Y-92672204D01*
X159321024Y-92481728D01*
X159273405Y-92386490D01*
X159225786Y-92338871D01*
X159130548Y-92291252D01*
%TO.C,C16*%
X157438022Y-95640182D02*
X157390403Y-95687801D01*
X157247546Y-95735420D01*
X157152308Y-95735420D01*
X157009451Y-95687801D01*
X156914213Y-95592563D01*
X156866594Y-95497325D01*
X156818975Y-95306849D01*
X156818975Y-95163992D01*
X156866594Y-94973516D01*
X156914213Y-94878278D01*
X157009451Y-94783040D01*
X157152308Y-94735420D01*
X157247546Y-94735420D01*
X157390403Y-94783040D01*
X157438022Y-94830659D01*
X158390403Y-95735420D02*
X157818975Y-95735420D01*
X158104689Y-95735420D02*
X158104689Y-94735420D01*
X158009451Y-94878278D01*
X157914213Y-94973516D01*
X157818975Y-95021135D01*
X159247546Y-94735420D02*
X159057070Y-94735420D01*
X158961832Y-94783040D01*
X158914213Y-94830659D01*
X158818975Y-94973516D01*
X158771356Y-95163992D01*
X158771356Y-95544944D01*
X158818975Y-95640182D01*
X158866594Y-95687801D01*
X158961832Y-95735420D01*
X159152308Y-95735420D01*
X159247546Y-95687801D01*
X159295165Y-95640182D01*
X159342784Y-95544944D01*
X159342784Y-95306849D01*
X159295165Y-95211611D01*
X159247546Y-95163992D01*
X159152308Y-95116373D01*
X158961832Y-95116373D01*
X158866594Y-95163992D01*
X158818975Y-95211611D01*
X158771356Y-95306849D01*
%TO.C,C15*%
X157827742Y-106833962D02*
X157780123Y-106881581D01*
X157637266Y-106929200D01*
X157542028Y-106929200D01*
X157399171Y-106881581D01*
X157303933Y-106786343D01*
X157256314Y-106691105D01*
X157208695Y-106500629D01*
X157208695Y-106357772D01*
X157256314Y-106167296D01*
X157303933Y-106072058D01*
X157399171Y-105976820D01*
X157542028Y-105929200D01*
X157637266Y-105929200D01*
X157780123Y-105976820D01*
X157827742Y-106024439D01*
X158780123Y-106929200D02*
X158208695Y-106929200D01*
X158494409Y-106929200D02*
X158494409Y-105929200D01*
X158399171Y-106072058D01*
X158303933Y-106167296D01*
X158208695Y-106214915D01*
X159684885Y-105929200D02*
X159208695Y-105929200D01*
X159161076Y-106405391D01*
X159208695Y-106357772D01*
X159303933Y-106310153D01*
X159542028Y-106310153D01*
X159637266Y-106357772D01*
X159684885Y-106405391D01*
X159732504Y-106500629D01*
X159732504Y-106738724D01*
X159684885Y-106833962D01*
X159637266Y-106881581D01*
X159542028Y-106929200D01*
X159303933Y-106929200D01*
X159208695Y-106881581D01*
X159161076Y-106833962D01*
%TO.C,C14*%
X165394402Y-112302582D02*
X165346783Y-112350201D01*
X165203926Y-112397820D01*
X165108688Y-112397820D01*
X164965831Y-112350201D01*
X164870593Y-112254963D01*
X164822974Y-112159725D01*
X164775355Y-111969249D01*
X164775355Y-111826392D01*
X164822974Y-111635916D01*
X164870593Y-111540678D01*
X164965831Y-111445440D01*
X165108688Y-111397820D01*
X165203926Y-111397820D01*
X165346783Y-111445440D01*
X165394402Y-111493059D01*
X166346783Y-112397820D02*
X165775355Y-112397820D01*
X166061069Y-112397820D02*
X166061069Y-111397820D01*
X165965831Y-111540678D01*
X165870593Y-111635916D01*
X165775355Y-111683535D01*
X167203926Y-111731154D02*
X167203926Y-112397820D01*
X166965831Y-111350201D02*
X166727736Y-112064487D01*
X167346783Y-112064487D01*
%TO.C,C2*%
X122230853Y-108741482D02*
X122183234Y-108789101D01*
X122040377Y-108836720D01*
X121945139Y-108836720D01*
X121802281Y-108789101D01*
X121707043Y-108693863D01*
X121659424Y-108598625D01*
X121611805Y-108408149D01*
X121611805Y-108265292D01*
X121659424Y-108074816D01*
X121707043Y-107979578D01*
X121802281Y-107884340D01*
X121945139Y-107836720D01*
X122040377Y-107836720D01*
X122183234Y-107884340D01*
X122230853Y-107931959D01*
X122611805Y-107931959D02*
X122659424Y-107884340D01*
X122754662Y-107836720D01*
X122992758Y-107836720D01*
X123087996Y-107884340D01*
X123135615Y-107931959D01*
X123183234Y-108027197D01*
X123183234Y-108122435D01*
X123135615Y-108265292D01*
X122564186Y-108836720D01*
X123183234Y-108836720D01*
%TO.C,J1*%
X132000666Y-116241380D02*
X132000666Y-116955666D01*
X131953047Y-117098523D01*
X131857809Y-117193761D01*
X131714952Y-117241380D01*
X131619714Y-117241380D01*
X133000666Y-117241380D02*
X132429238Y-117241380D01*
X132714952Y-117241380D02*
X132714952Y-116241380D01*
X132619714Y-116384238D01*
X132524476Y-116479476D01*
X132429238Y-116527095D01*
%TO.C,U101*%
X139502994Y-103504749D02*
X140169660Y-103504749D01*
X139598232Y-103504749D02*
X139550613Y-103457130D01*
X139502994Y-103361892D01*
X139502994Y-103219035D01*
X139550613Y-103123797D01*
X139645851Y-103076178D01*
X140169660Y-103076178D01*
X140169660Y-102028559D02*
X139693470Y-102361892D01*
X140169660Y-102599987D02*
X139169660Y-102599987D01*
X139169660Y-102219035D01*
X139217280Y-102123797D01*
X139264899Y-102076178D01*
X139360137Y-102028559D01*
X139502994Y-102028559D01*
X139598232Y-102076178D01*
X139645851Y-102123797D01*
X139693470Y-102219035D01*
X139693470Y-102599987D01*
X139645851Y-101266654D02*
X139645851Y-101599987D01*
X140169660Y-101599987D02*
X139169660Y-101599987D01*
X139169660Y-101123797D01*
X139169660Y-100266654D02*
X139169660Y-100742844D01*
X139645851Y-100790463D01*
X139598232Y-100742844D01*
X139550613Y-100647606D01*
X139550613Y-100409511D01*
X139598232Y-100314273D01*
X139645851Y-100266654D01*
X139741089Y-100219035D01*
X139979184Y-100219035D01*
X140074422Y-100266654D01*
X140122041Y-100314273D01*
X140169660Y-100409511D01*
X140169660Y-100647606D01*
X140122041Y-100742844D01*
X140074422Y-100790463D01*
X139264899Y-99838082D02*
X139217280Y-99790463D01*
X139169660Y-99695225D01*
X139169660Y-99457130D01*
X139217280Y-99361892D01*
X139264899Y-99314273D01*
X139360137Y-99266654D01*
X139455375Y-99266654D01*
X139598232Y-99314273D01*
X140169660Y-99885701D01*
X140169660Y-99266654D01*
X139598232Y-98695225D02*
X139550613Y-98790463D01*
X139502994Y-98838082D01*
X139407756Y-98885701D01*
X139360137Y-98885701D01*
X139264899Y-98838082D01*
X139217280Y-98790463D01*
X139169660Y-98695225D01*
X139169660Y-98504749D01*
X139217280Y-98409511D01*
X139264899Y-98361892D01*
X139360137Y-98314273D01*
X139407756Y-98314273D01*
X139502994Y-98361892D01*
X139550613Y-98409511D01*
X139598232Y-98504749D01*
X139598232Y-98695225D01*
X139645851Y-98790463D01*
X139693470Y-98838082D01*
X139788708Y-98885701D01*
X139979184Y-98885701D01*
X140074422Y-98838082D01*
X140122041Y-98790463D01*
X140169660Y-98695225D01*
X140169660Y-98504749D01*
X140122041Y-98409511D01*
X140074422Y-98361892D01*
X139979184Y-98314273D01*
X139788708Y-98314273D01*
X139693470Y-98361892D01*
X139645851Y-98409511D01*
X139598232Y-98504749D01*
X139502994Y-97457130D02*
X140169660Y-97457130D01*
X139122041Y-97695225D02*
X139836327Y-97933320D01*
X139836327Y-97314273D01*
X139169660Y-96742844D02*
X139169660Y-96647606D01*
X139217280Y-96552368D01*
X139264899Y-96504749D01*
X139360137Y-96457130D01*
X139550613Y-96409511D01*
X139788708Y-96409511D01*
X139979184Y-96457130D01*
X140074422Y-96504749D01*
X140122041Y-96552368D01*
X140169660Y-96647606D01*
X140169660Y-96742844D01*
X140122041Y-96838082D01*
X140074422Y-96885701D01*
X139979184Y-96933320D01*
X139788708Y-96980940D01*
X139550613Y-96980940D01*
X139360137Y-96933320D01*
X139264899Y-96885701D01*
X139217280Y-96838082D01*
X139169660Y-96742844D01*
X136919660Y-103719035D02*
X137919660Y-103480940D01*
X137205375Y-103290463D01*
X137919660Y-103099987D01*
X136919660Y-102861892D01*
X137919660Y-102052368D02*
X137395851Y-102052368D01*
X137300613Y-102099987D01*
X137252994Y-102195225D01*
X137252994Y-102385701D01*
X137300613Y-102480940D01*
X137872041Y-102052368D02*
X137919660Y-102147606D01*
X137919660Y-102385701D01*
X137872041Y-102480940D01*
X137776803Y-102528559D01*
X137681565Y-102528559D01*
X137586327Y-102480940D01*
X137538708Y-102385701D01*
X137538708Y-102147606D01*
X137491089Y-102052368D01*
X137252994Y-101671416D02*
X137919660Y-101433320D01*
X137252994Y-101195225D01*
X137872041Y-100433320D02*
X137919660Y-100528559D01*
X137919660Y-100719035D01*
X137872041Y-100814273D01*
X137776803Y-100861892D01*
X137395851Y-100861892D01*
X137300613Y-100814273D01*
X137252994Y-100719035D01*
X137252994Y-100528559D01*
X137300613Y-100433320D01*
X137395851Y-100385701D01*
X137491089Y-100385701D01*
X137586327Y-100861892D01*
X137872041Y-100004749D02*
X137919660Y-99909511D01*
X137919660Y-99719035D01*
X137872041Y-99623797D01*
X137776803Y-99576178D01*
X137729184Y-99576178D01*
X137633946Y-99623797D01*
X137586327Y-99719035D01*
X137586327Y-99861892D01*
X137538708Y-99957130D01*
X137443470Y-100004749D01*
X137395851Y-100004749D01*
X137300613Y-99957130D01*
X137252994Y-99861892D01*
X137252994Y-99719035D01*
X137300613Y-99623797D01*
X137919660Y-99147606D02*
X136919660Y-99147606D01*
X137919660Y-98719035D02*
X137395851Y-98719035D01*
X137300613Y-98766654D01*
X137252994Y-98861892D01*
X137252994Y-99004749D01*
X137300613Y-99099987D01*
X137348232Y-99147606D01*
X137919660Y-97814273D02*
X137395851Y-97814273D01*
X137300613Y-97861892D01*
X137252994Y-97957130D01*
X137252994Y-98147606D01*
X137300613Y-98242844D01*
X137872041Y-97814273D02*
X137919660Y-97909511D01*
X137919660Y-98147606D01*
X137872041Y-98242844D01*
X137776803Y-98290463D01*
X137681565Y-98290463D01*
X137586327Y-98242844D01*
X137538708Y-98147606D01*
X137538708Y-97909511D01*
X137491089Y-97814273D01*
X137919660Y-97338082D02*
X137252994Y-97338082D01*
X137443470Y-97338082D02*
X137348232Y-97290463D01*
X137300613Y-97242844D01*
X137252994Y-97147606D01*
X137252994Y-97052368D01*
X137872041Y-96338082D02*
X137919660Y-96433320D01*
X137919660Y-96623797D01*
X137872041Y-96719035D01*
X137776803Y-96766654D01*
X137395851Y-96766654D01*
X137300613Y-96719035D01*
X137252994Y-96623797D01*
X137252994Y-96433320D01*
X137300613Y-96338082D01*
X137395851Y-96290463D01*
X137491089Y-96290463D01*
X137586327Y-96766654D01*
%TO.C,SW2*%
X156436906Y-111901321D02*
X156579763Y-111948940D01*
X156817859Y-111948940D01*
X156913097Y-111901321D01*
X156960716Y-111853702D01*
X157008335Y-111758464D01*
X157008335Y-111663226D01*
X156960716Y-111567988D01*
X156913097Y-111520369D01*
X156817859Y-111472750D01*
X156627382Y-111425131D01*
X156532144Y-111377512D01*
X156484525Y-111329893D01*
X156436906Y-111234655D01*
X156436906Y-111139417D01*
X156484525Y-111044179D01*
X156532144Y-110996560D01*
X156627382Y-110948940D01*
X156865478Y-110948940D01*
X157008335Y-110996560D01*
X157341668Y-110948940D02*
X157579763Y-111948940D01*
X157770240Y-111234655D01*
X157960716Y-111948940D01*
X158198811Y-110948940D01*
X158532144Y-111044179D02*
X158579763Y-110996560D01*
X158675001Y-110948940D01*
X158913097Y-110948940D01*
X159008335Y-110996560D01*
X159055954Y-111044179D01*
X159103573Y-111139417D01*
X159103573Y-111234655D01*
X159055954Y-111377512D01*
X158484525Y-111948940D01*
X159103573Y-111948940D01*
%TO.C,SW1*%
X171389206Y-112658561D02*
X171532063Y-112706180D01*
X171770159Y-112706180D01*
X171865397Y-112658561D01*
X171913016Y-112610942D01*
X171960635Y-112515704D01*
X171960635Y-112420466D01*
X171913016Y-112325228D01*
X171865397Y-112277609D01*
X171770159Y-112229990D01*
X171579682Y-112182371D01*
X171484444Y-112134752D01*
X171436825Y-112087133D01*
X171389206Y-111991895D01*
X171389206Y-111896657D01*
X171436825Y-111801419D01*
X171484444Y-111753800D01*
X171579682Y-111706180D01*
X171817778Y-111706180D01*
X171960635Y-111753800D01*
X172293968Y-111706180D02*
X172532063Y-112706180D01*
X172722540Y-111991895D01*
X172913016Y-112706180D01*
X173151111Y-111706180D01*
X174055873Y-112706180D02*
X173484444Y-112706180D01*
X173770159Y-112706180D02*
X173770159Y-111706180D01*
X173674920Y-111849038D01*
X173579682Y-111944276D01*
X173484444Y-111991895D01*
%TO.C,R101*%
X119291692Y-102916000D02*
X118958359Y-102439810D01*
X118720263Y-102916000D02*
X118720263Y-101916000D01*
X119101216Y-101916000D01*
X119196454Y-101963620D01*
X119244073Y-102011239D01*
X119291692Y-102106477D01*
X119291692Y-102249334D01*
X119244073Y-102344572D01*
X119196454Y-102392191D01*
X119101216Y-102439810D01*
X118720263Y-102439810D01*
X120244073Y-102916000D02*
X119672644Y-102916000D01*
X119958359Y-102916000D02*
X119958359Y-101916000D01*
X119863120Y-102058858D01*
X119767882Y-102154096D01*
X119672644Y-102201715D01*
X120863120Y-101916000D02*
X120958359Y-101916000D01*
X121053597Y-101963620D01*
X121101216Y-102011239D01*
X121148835Y-102106477D01*
X121196454Y-102296953D01*
X121196454Y-102535048D01*
X121148835Y-102725524D01*
X121101216Y-102820762D01*
X121053597Y-102868381D01*
X120958359Y-102916000D01*
X120863120Y-102916000D01*
X120767882Y-102868381D01*
X120720263Y-102820762D01*
X120672644Y-102725524D01*
X120625025Y-102535048D01*
X120625025Y-102296953D01*
X120672644Y-102106477D01*
X120720263Y-102011239D01*
X120767882Y-101963620D01*
X120863120Y-101916000D01*
X122148835Y-102916000D02*
X121577406Y-102916000D01*
X121863120Y-102916000D02*
X121863120Y-101916000D01*
X121767882Y-102058858D01*
X121672644Y-102154096D01*
X121577406Y-102201715D01*
%TO.C,R13*%
X127977162Y-104694000D02*
X127643829Y-104217810D01*
X127405734Y-104694000D02*
X127405734Y-103694000D01*
X127786686Y-103694000D01*
X127881924Y-103741620D01*
X127929543Y-103789239D01*
X127977162Y-103884477D01*
X127977162Y-104027334D01*
X127929543Y-104122572D01*
X127881924Y-104170191D01*
X127786686Y-104217810D01*
X127405734Y-104217810D01*
X128929543Y-104694000D02*
X128358115Y-104694000D01*
X128643829Y-104694000D02*
X128643829Y-103694000D01*
X128548591Y-103836858D01*
X128453353Y-103932096D01*
X128358115Y-103979715D01*
X129262877Y-103694000D02*
X129881924Y-103694000D01*
X129548591Y-104074953D01*
X129691448Y-104074953D01*
X129786686Y-104122572D01*
X129834305Y-104170191D01*
X129881924Y-104265429D01*
X129881924Y-104503524D01*
X129834305Y-104598762D01*
X129786686Y-104646381D01*
X129691448Y-104694000D01*
X129405734Y-104694000D01*
X129310496Y-104646381D01*
X129262877Y-104598762D01*
%TO.C,R11*%
X163161242Y-97957920D02*
X162827909Y-97481730D01*
X162589814Y-97957920D02*
X162589814Y-96957920D01*
X162970766Y-96957920D01*
X163066004Y-97005540D01*
X163113623Y-97053159D01*
X163161242Y-97148397D01*
X163161242Y-97291254D01*
X163113623Y-97386492D01*
X163066004Y-97434111D01*
X162970766Y-97481730D01*
X162589814Y-97481730D01*
X164113623Y-97957920D02*
X163542195Y-97957920D01*
X163827909Y-97957920D02*
X163827909Y-96957920D01*
X163732671Y-97100778D01*
X163637433Y-97196016D01*
X163542195Y-97243635D01*
X165066004Y-97957920D02*
X164494576Y-97957920D01*
X164780290Y-97957920D02*
X164780290Y-96957920D01*
X164685052Y-97100778D01*
X164589814Y-97196016D01*
X164494576Y-97243635D01*
%TO.C,R10*%
X163161742Y-100536020D02*
X162828409Y-100059830D01*
X162590314Y-100536020D02*
X162590314Y-99536020D01*
X162971266Y-99536020D01*
X163066504Y-99583640D01*
X163114123Y-99631259D01*
X163161742Y-99726497D01*
X163161742Y-99869354D01*
X163114123Y-99964592D01*
X163066504Y-100012211D01*
X162971266Y-100059830D01*
X162590314Y-100059830D01*
X164114123Y-100536020D02*
X163542695Y-100536020D01*
X163828409Y-100536020D02*
X163828409Y-99536020D01*
X163733171Y-99678878D01*
X163637933Y-99774116D01*
X163542695Y-99821735D01*
X164733171Y-99536020D02*
X164828409Y-99536020D01*
X164923647Y-99583640D01*
X164971266Y-99631259D01*
X165018885Y-99726497D01*
X165066504Y-99916973D01*
X165066504Y-100155068D01*
X165018885Y-100345544D01*
X164971266Y-100440782D01*
X164923647Y-100488401D01*
X164828409Y-100536020D01*
X164733171Y-100536020D01*
X164637933Y-100488401D01*
X164590314Y-100440782D01*
X164542695Y-100345544D01*
X164495076Y-100155068D01*
X164495076Y-99916973D01*
X164542695Y-99726497D01*
X164590314Y-99631259D01*
X164637933Y-99583640D01*
X164733171Y-99536020D01*
%TO.C,R9*%
X163665873Y-103070940D02*
X163332540Y-102594750D01*
X163094444Y-103070940D02*
X163094444Y-102070940D01*
X163475397Y-102070940D01*
X163570635Y-102118560D01*
X163618254Y-102166179D01*
X163665873Y-102261417D01*
X163665873Y-102404274D01*
X163618254Y-102499512D01*
X163570635Y-102547131D01*
X163475397Y-102594750D01*
X163094444Y-102594750D01*
X164142063Y-103070940D02*
X164332540Y-103070940D01*
X164427778Y-103023321D01*
X164475397Y-102975702D01*
X164570635Y-102832845D01*
X164618254Y-102642369D01*
X164618254Y-102261417D01*
X164570635Y-102166179D01*
X164523016Y-102118560D01*
X164427778Y-102070940D01*
X164237301Y-102070940D01*
X164142063Y-102118560D01*
X164094444Y-102166179D01*
X164046825Y-102261417D01*
X164046825Y-102499512D01*
X164094444Y-102594750D01*
X164142063Y-102642369D01*
X164237301Y-102689988D01*
X164427778Y-102689988D01*
X164523016Y-102642369D01*
X164570635Y-102594750D01*
X164618254Y-102499512D01*
%TO.C,R8*%
X163698893Y-105613480D02*
X163365560Y-105137290D01*
X163127464Y-105613480D02*
X163127464Y-104613480D01*
X163508417Y-104613480D01*
X163603655Y-104661100D01*
X163651274Y-104708719D01*
X163698893Y-104803957D01*
X163698893Y-104946814D01*
X163651274Y-105042052D01*
X163603655Y-105089671D01*
X163508417Y-105137290D01*
X163127464Y-105137290D01*
X164270321Y-105042052D02*
X164175083Y-104994433D01*
X164127464Y-104946814D01*
X164079845Y-104851576D01*
X164079845Y-104803957D01*
X164127464Y-104708719D01*
X164175083Y-104661100D01*
X164270321Y-104613480D01*
X164460798Y-104613480D01*
X164556036Y-104661100D01*
X164603655Y-104708719D01*
X164651274Y-104803957D01*
X164651274Y-104851576D01*
X164603655Y-104946814D01*
X164556036Y-104994433D01*
X164460798Y-105042052D01*
X164270321Y-105042052D01*
X164175083Y-105089671D01*
X164127464Y-105137290D01*
X164079845Y-105232528D01*
X164079845Y-105423004D01*
X164127464Y-105518242D01*
X164175083Y-105565861D01*
X164270321Y-105613480D01*
X164460798Y-105613480D01*
X164556036Y-105565861D01*
X164603655Y-105518242D01*
X164651274Y-105423004D01*
X164651274Y-105232528D01*
X164603655Y-105137290D01*
X164556036Y-105089671D01*
X164460798Y-105042052D01*
%TO.C,R7*%
X163635893Y-108168720D02*
X163302560Y-107692530D01*
X163064464Y-108168720D02*
X163064464Y-107168720D01*
X163445417Y-107168720D01*
X163540655Y-107216340D01*
X163588274Y-107263959D01*
X163635893Y-107359197D01*
X163635893Y-107502054D01*
X163588274Y-107597292D01*
X163540655Y-107644911D01*
X163445417Y-107692530D01*
X163064464Y-107692530D01*
X163969226Y-107168720D02*
X164635893Y-107168720D01*
X164207321Y-108168720D01*
%TO.C,R6*%
X117480553Y-81041520D02*
X117147220Y-80565330D01*
X116909124Y-81041520D02*
X116909124Y-80041520D01*
X117290077Y-80041520D01*
X117385315Y-80089140D01*
X117432934Y-80136759D01*
X117480553Y-80231997D01*
X117480553Y-80374854D01*
X117432934Y-80470092D01*
X117385315Y-80517711D01*
X117290077Y-80565330D01*
X116909124Y-80565330D01*
X118337696Y-80041520D02*
X118147220Y-80041520D01*
X118051981Y-80089140D01*
X118004362Y-80136759D01*
X117909124Y-80279616D01*
X117861505Y-80470092D01*
X117861505Y-80851044D01*
X117909124Y-80946282D01*
X117956743Y-80993901D01*
X118051981Y-81041520D01*
X118242458Y-81041520D01*
X118337696Y-80993901D01*
X118385315Y-80946282D01*
X118432934Y-80851044D01*
X118432934Y-80612949D01*
X118385315Y-80517711D01*
X118337696Y-80470092D01*
X118242458Y-80422473D01*
X118051981Y-80422473D01*
X117956743Y-80470092D01*
X117909124Y-80517711D01*
X117861505Y-80612949D01*
%TO.C,R5*%
X117472933Y-83876160D02*
X117139600Y-83399970D01*
X116901504Y-83876160D02*
X116901504Y-82876160D01*
X117282457Y-82876160D01*
X117377695Y-82923780D01*
X117425314Y-82971399D01*
X117472933Y-83066637D01*
X117472933Y-83209494D01*
X117425314Y-83304732D01*
X117377695Y-83352351D01*
X117282457Y-83399970D01*
X116901504Y-83399970D01*
X118377695Y-82876160D02*
X117901504Y-82876160D01*
X117853885Y-83352351D01*
X117901504Y-83304732D01*
X117996742Y-83257113D01*
X118234838Y-83257113D01*
X118330076Y-83304732D01*
X118377695Y-83352351D01*
X118425314Y-83447589D01*
X118425314Y-83685684D01*
X118377695Y-83780922D01*
X118330076Y-83828541D01*
X118234838Y-83876160D01*
X117996742Y-83876160D01*
X117901504Y-83828541D01*
X117853885Y-83780922D01*
%TO.C,R4*%
X165815213Y-118107700D02*
X165481880Y-117631510D01*
X165243784Y-118107700D02*
X165243784Y-117107700D01*
X165624737Y-117107700D01*
X165719975Y-117155320D01*
X165767594Y-117202939D01*
X165815213Y-117298177D01*
X165815213Y-117441034D01*
X165767594Y-117536272D01*
X165719975Y-117583891D01*
X165624737Y-117631510D01*
X165243784Y-117631510D01*
X166672356Y-117441034D02*
X166672356Y-118107700D01*
X166434260Y-117060081D02*
X166196165Y-117774367D01*
X166815213Y-117774367D01*
%TO.C,R3*%
X117508493Y-75237620D02*
X117175160Y-74761430D01*
X116937064Y-75237620D02*
X116937064Y-74237620D01*
X117318017Y-74237620D01*
X117413255Y-74285240D01*
X117460874Y-74332859D01*
X117508493Y-74428097D01*
X117508493Y-74570954D01*
X117460874Y-74666192D01*
X117413255Y-74713811D01*
X117318017Y-74761430D01*
X116937064Y-74761430D01*
X117841826Y-74237620D02*
X118460874Y-74237620D01*
X118127540Y-74618573D01*
X118270398Y-74618573D01*
X118365636Y-74666192D01*
X118413255Y-74713811D01*
X118460874Y-74809049D01*
X118460874Y-75047144D01*
X118413255Y-75142382D01*
X118365636Y-75190001D01*
X118270398Y-75237620D01*
X117984683Y-75237620D01*
X117889445Y-75190001D01*
X117841826Y-75142382D01*
%TO.C,R2*%
X117505953Y-78082420D02*
X117172620Y-77606230D01*
X116934524Y-78082420D02*
X116934524Y-77082420D01*
X117315477Y-77082420D01*
X117410715Y-77130040D01*
X117458334Y-77177659D01*
X117505953Y-77272897D01*
X117505953Y-77415754D01*
X117458334Y-77510992D01*
X117410715Y-77558611D01*
X117315477Y-77606230D01*
X116934524Y-77606230D01*
X117886905Y-77177659D02*
X117934524Y-77130040D01*
X118029762Y-77082420D01*
X118267858Y-77082420D01*
X118363096Y-77130040D01*
X118410715Y-77177659D01*
X118458334Y-77272897D01*
X118458334Y-77368135D01*
X118410715Y-77510992D01*
X117839286Y-78082420D01*
X118458334Y-78082420D01*
%TO.C,R1*%
X131272520Y-106590126D02*
X130796330Y-106923460D01*
X131272520Y-107161555D02*
X130272520Y-107161555D01*
X130272520Y-106780602D01*
X130320140Y-106685364D01*
X130367759Y-106637745D01*
X130462997Y-106590126D01*
X130605854Y-106590126D01*
X130701092Y-106637745D01*
X130748711Y-106685364D01*
X130796330Y-106780602D01*
X130796330Y-107161555D01*
X131272520Y-105637745D02*
X131272520Y-106209174D01*
X131272520Y-105923460D02*
X130272520Y-105923460D01*
X130415378Y-106018698D01*
X130510616Y-106113936D01*
X130558235Y-106209174D01*
%TO.C,D101*%
X122868683Y-102916000D02*
X122868683Y-101916000D01*
X123106779Y-101916000D01*
X123249636Y-101963620D01*
X123344874Y-102058858D01*
X123392493Y-102154096D01*
X123440112Y-102344572D01*
X123440112Y-102487429D01*
X123392493Y-102677905D01*
X123344874Y-102773143D01*
X123249636Y-102868381D01*
X123106779Y-102916000D01*
X122868683Y-102916000D01*
X124392493Y-102916000D02*
X123821064Y-102916000D01*
X124106779Y-102916000D02*
X124106779Y-101916000D01*
X124011540Y-102058858D01*
X123916302Y-102154096D01*
X123821064Y-102201715D01*
X125011540Y-101916000D02*
X125106779Y-101916000D01*
X125202017Y-101963620D01*
X125249636Y-102011239D01*
X125297255Y-102106477D01*
X125344874Y-102296953D01*
X125344874Y-102535048D01*
X125297255Y-102725524D01*
X125249636Y-102820762D01*
X125202017Y-102868381D01*
X125106779Y-102916000D01*
X125011540Y-102916000D01*
X124916302Y-102868381D01*
X124868683Y-102820762D01*
X124821064Y-102725524D01*
X124773445Y-102535048D01*
X124773445Y-102296953D01*
X124821064Y-102106477D01*
X124868683Y-102011239D01*
X124916302Y-101963620D01*
X125011540Y-101916000D01*
X126297255Y-102916000D02*
X125725826Y-102916000D01*
X126011540Y-102916000D02*
X126011540Y-101916000D01*
X125916302Y-102058858D01*
X125821064Y-102154096D01*
X125725826Y-102201715D01*
%TO.C,D4*%
X112850604Y-83891360D02*
X112850604Y-82891360D01*
X113088700Y-82891360D01*
X113231557Y-82938980D01*
X113326795Y-83034218D01*
X113374414Y-83129456D01*
X113422033Y-83319932D01*
X113422033Y-83462789D01*
X113374414Y-83653265D01*
X113326795Y-83748503D01*
X113231557Y-83843741D01*
X113088700Y-83891360D01*
X112850604Y-83891360D01*
X114279176Y-83224694D02*
X114279176Y-83891360D01*
X114041080Y-82843741D02*
X113802985Y-83558027D01*
X114422033Y-83558027D01*
%TO.C,D3*%
X112832824Y-86804740D02*
X112832824Y-85804740D01*
X113070920Y-85804740D01*
X113213777Y-85852360D01*
X113309015Y-85947598D01*
X113356634Y-86042836D01*
X113404253Y-86233312D01*
X113404253Y-86376169D01*
X113356634Y-86566645D01*
X113309015Y-86661883D01*
X113213777Y-86757121D01*
X113070920Y-86804740D01*
X112832824Y-86804740D01*
X113737586Y-85804740D02*
X114356634Y-85804740D01*
X114023300Y-86185693D01*
X114166158Y-86185693D01*
X114261396Y-86233312D01*
X114309015Y-86280931D01*
X114356634Y-86376169D01*
X114356634Y-86614264D01*
X114309015Y-86709502D01*
X114261396Y-86757121D01*
X114166158Y-86804740D01*
X113880443Y-86804740D01*
X113785205Y-86757121D01*
X113737586Y-86709502D01*
%TO.C,D2*%
X112858224Y-78110320D02*
X112858224Y-77110320D01*
X113096320Y-77110320D01*
X113239177Y-77157940D01*
X113334415Y-77253178D01*
X113382034Y-77348416D01*
X113429653Y-77538892D01*
X113429653Y-77681749D01*
X113382034Y-77872225D01*
X113334415Y-77967463D01*
X113239177Y-78062701D01*
X113096320Y-78110320D01*
X112858224Y-78110320D01*
X113810605Y-77205559D02*
X113858224Y-77157940D01*
X113953462Y-77110320D01*
X114191558Y-77110320D01*
X114286796Y-77157940D01*
X114334415Y-77205559D01*
X114382034Y-77300797D01*
X114382034Y-77396035D01*
X114334415Y-77538892D01*
X113762986Y-78110320D01*
X114382034Y-78110320D01*
%TO.C,D1*%
X112845724Y-80960200D02*
X112845724Y-79960200D01*
X113083820Y-79960200D01*
X113226677Y-80007820D01*
X113321915Y-80103058D01*
X113369534Y-80198296D01*
X113417153Y-80388772D01*
X113417153Y-80531629D01*
X113369534Y-80722105D01*
X113321915Y-80817343D01*
X113226677Y-80912581D01*
X113083820Y-80960200D01*
X112845724Y-80960200D01*
X114369534Y-80960200D02*
X113798105Y-80960200D01*
X114083820Y-80960200D02*
X114083820Y-79960200D01*
X113988581Y-80103058D01*
X113893343Y-80198296D01*
X113798105Y-80245915D01*
%TO.C,AE1*%
X112265446Y-117329346D02*
X112265446Y-116853156D01*
X112551160Y-117424584D02*
X111551160Y-117091251D01*
X112551160Y-116757918D01*
X112027351Y-116424584D02*
X112027351Y-116091251D01*
X112551160Y-115948394D02*
X112551160Y-116424584D01*
X111551160Y-116424584D01*
X111551160Y-115948394D01*
X112551160Y-114996013D02*
X112551160Y-115567441D01*
X112551160Y-115281727D02*
X111551160Y-115281727D01*
X111694018Y-115376965D01*
X111789256Y-115472203D01*
X111836875Y-115567441D01*
%TO.C,P1*%
X147089904Y-121737380D02*
X147089904Y-120737380D01*
X147470857Y-120737380D01*
X147566095Y-120785000D01*
X147613714Y-120832619D01*
X147661333Y-120927857D01*
X147661333Y-121070714D01*
X147613714Y-121165952D01*
X147566095Y-121213571D01*
X147470857Y-121261190D01*
X147089904Y-121261190D01*
X148613714Y-121737380D02*
X148042285Y-121737380D01*
X148328000Y-121737380D02*
X148328000Y-120737380D01*
X148232761Y-120880238D01*
X148137523Y-120975476D01*
X148042285Y-121023095D01*
%TO.C,P2*%
X167663904Y-121737380D02*
X167663904Y-120737380D01*
X168044857Y-120737380D01*
X168140095Y-120785000D01*
X168187714Y-120832619D01*
X168235333Y-120927857D01*
X168235333Y-121070714D01*
X168187714Y-121165952D01*
X168140095Y-121213571D01*
X168044857Y-121261190D01*
X167663904Y-121261190D01*
X168616285Y-120832619D02*
X168663904Y-120785000D01*
X168759142Y-120737380D01*
X168997238Y-120737380D01*
X169092476Y-120785000D01*
X169140095Y-120832619D01*
X169187714Y-120927857D01*
X169187714Y-121023095D01*
X169140095Y-121165952D01*
X168568666Y-121737380D01*
X169187714Y-121737380D01*
%TO.C,P3*%
X140485904Y-78811380D02*
X140485904Y-77811380D01*
X140866857Y-77811380D01*
X140962095Y-77859000D01*
X141009714Y-77906619D01*
X141057333Y-78001857D01*
X141057333Y-78144714D01*
X141009714Y-78239952D01*
X140962095Y-78287571D01*
X140866857Y-78335190D01*
X140485904Y-78335190D01*
X141390666Y-77811380D02*
X142009714Y-77811380D01*
X141676380Y-78192333D01*
X141819238Y-78192333D01*
X141914476Y-78239952D01*
X141962095Y-78287571D01*
X142009714Y-78382809D01*
X142009714Y-78620904D01*
X141962095Y-78716142D01*
X141914476Y-78763761D01*
X141819238Y-78811380D01*
X141533523Y-78811380D01*
X141438285Y-78763761D01*
X141390666Y-78716142D01*
%TO.C,P4*%
X164869904Y-78811380D02*
X164869904Y-77811380D01*
X165250857Y-77811380D01*
X165346095Y-77859000D01*
X165393714Y-77906619D01*
X165441333Y-78001857D01*
X165441333Y-78144714D01*
X165393714Y-78239952D01*
X165346095Y-78287571D01*
X165250857Y-78335190D01*
X164869904Y-78335190D01*
X166298476Y-78144714D02*
X166298476Y-78811380D01*
X166060380Y-77763761D02*
X165822285Y-78478047D01*
X166441333Y-78478047D01*
%TD*%
M02*
