M48
; DRILL file {KiCad (5.1.7)-1} date 11/28/20 10:02:41
; FORMAT={-:-/ absolute / inch / decimal}
; #@! TF.CreationDate,2020-11-28T10:02:41+01:00
; #@! TF.GenerationSoftware,Kicad,Pcbnew,(5.1.7)-1
; #@! TF.FileFunction,Plated,1,2,PTH
FMAT,2
INCH
T1C0.0118
T2C0.0157
T3C0.0394
T4C0.0400
T5C0.0591
T6C0.0669
T7C0.1200
%
G90
G05
T1
X4.6657Y-4.3115
T2
X4.41Y-4.215
X4.47Y-4.215
X4.53Y-4.215
X4.59Y-4.215
X4.66Y-4.215
X4.73Y-4.215
X4.73Y-4.275
X4.73Y-4.335
X4.73Y-4.445
X4.73Y-4.515
X4.73Y-4.575
X4.73Y-4.655
X4.73Y-4.735
X4.73Y-4.805
X4.73Y-4.865
X4.73Y-4.935
X4.87Y-4.335
X4.9Y-4.305
X4.93Y-4.275
X4.96Y-4.245
X4.98Y-4.105
X4.98Y-4.155
X4.98Y-4.205
X5.03Y-4.105
X5.08Y-4.105
X5.13Y-4.105
X5.15Y-4.215
X5.15Y-4.265
X5.15Y-4.315
X5.15Y-4.365
X5.15Y-4.415
X5.18Y-4.105
X5.18Y-4.445
X5.201Y-3.6663
X5.21Y-4.475
X5.23Y-4.105
X5.2323Y-3.663
X5.25Y-4.515
X5.26Y-4.565
X5.26Y-4.615
X5.28Y-4.025
X5.28Y-4.065
X5.28Y-4.105
X5.4814Y-3.6134
X5.4828Y-4.15
X5.483Y-3.8435
X5.5088Y-3.7171
X5.514Y-3.7502
X5.5333Y-4.1419
X5.5647Y-3.8148
X5.6091Y-3.8161
X5.6524Y-3.8161
X5.6958Y-3.8153
X5.7387Y-3.8161
X5.7825Y-3.8175
X5.787Y-4.346
X5.8255Y-3.8188
X5.8284Y-4.2759
X5.8689Y-3.817
X5.8724Y-4.2513
X5.9614Y-4.3214
X5.9712Y-3.1927
X6.0041Y-4.3003
X6.0089Y-3.8847
X6.0233Y-3.1656
X6.0748Y-3.1391
X6.133Y-3.1061
X6.1888Y-3.8623
X6.3637Y-4.0425
X6.3667Y-4.2473
X6.3669Y-3.893
X6.3674Y-4.1449
X6.379Y-3.959
X6.5702Y-4.297
X6.5703Y-4.097
X6.5707Y-3.9967
X6.5711Y-4.1958
X6.5714Y-3.8973
X6.8138Y-3.898
T3
X4.5276Y-3.5891
X4.5276Y-3.6891
X4.5276Y-3.7891
X4.5276Y-3.8891
X4.5276Y-3.9891
X4.5276Y-4.0891
T4
X5.11Y-2.975
X5.21Y-2.975
X5.31Y-2.975
X5.41Y-2.975
X5.51Y-2.975
X5.61Y-2.975
X5.71Y-2.975
X5.81Y-2.975
X5.91Y-2.975
X6.01Y-2.975
X5.47Y-4.875
X5.57Y-4.875
X5.67Y-4.875
X5.77Y-4.875
X5.87Y-4.875
X5.97Y-4.875
X6.07Y-4.875
X6.17Y-4.875
X6.17Y-2.975
X6.27Y-2.975
X6.37Y-2.975
X6.47Y-2.975
X6.57Y-2.975
X6.67Y-2.975
X6.77Y-2.975
X6.87Y-2.975
X6.37Y-4.875
X6.47Y-4.875
X6.57Y-4.875
X6.67Y-4.875
X6.77Y-4.875
X6.87Y-4.875
T5
X5.21Y-4.785
T6
X5.11Y-4.685
X5.11Y-4.885
X5.31Y-4.685
X5.31Y-4.885
T7
X4.92Y-4.875
X6.97Y-4.675
X4.97Y-2.975
X6.97Y-3.575
T0
M30
