%TF.GenerationSoftware,KiCad,Pcbnew,(5.1.7)-1*%
%TF.CreationDate,2020-11-28T10:02:44+01:00*%
%TF.ProjectId,Rhizo_Receiver_Shield,5268697a-6f5f-4526-9563-65697665725f,rev?*%
%TF.SameCoordinates,Original*%
%TF.FileFunction,Copper,L2,Bot*%
%TF.FilePolarity,Positive*%
%FSLAX46Y46*%
G04 Gerber Fmt 4.6, Leading zero omitted, Abs format (unit mm)*
G04 Created by KiCad (PCBNEW (5.1.7)-1) date 2020-11-28 10:02:44*
%MOMM*%
%LPD*%
G01*
G04 APERTURE LIST*
%TA.AperFunction,ComponentPad*%
%ADD10O,1.700000X1.700000*%
%TD*%
%TA.AperFunction,ComponentPad*%
%ADD11R,1.700000X1.700000*%
%TD*%
%TA.AperFunction,ComponentPad*%
%ADD12C,2.250000*%
%TD*%
%TA.AperFunction,ComponentPad*%
%ADD13C,2.050000*%
%TD*%
%TA.AperFunction,ComponentPad*%
%ADD14R,0.500000X0.900000*%
%TD*%
%TA.AperFunction,ComponentPad*%
%ADD15O,1.727200X2.032000*%
%TD*%
%TA.AperFunction,ComponentPad*%
%ADD16C,4.064000*%
%TD*%
%TA.AperFunction,ViaPad*%
%ADD17C,0.600000*%
%TD*%
%TA.AperFunction,Conductor*%
%ADD18C,0.250000*%
%TD*%
%TA.AperFunction,Conductor*%
%ADD19C,0.254000*%
%TD*%
%TA.AperFunction,Conductor*%
%ADD20C,0.100000*%
%TD*%
G04 APERTURE END LIST*
D10*
%TO.P,P9,6*%
%TO.N,VBUS*%
X115001040Y-103863140D03*
%TO.P,P9,5*%
%TO.N,Reset*%
X115001040Y-101323140D03*
%TO.P,P9,4*%
%TO.N,SWDIO*%
X115001040Y-98783140D03*
%TO.P,P9,3*%
%TO.N,GND*%
X115001040Y-96243140D03*
%TO.P,P9,2*%
%TO.N,SWDCLK*%
X115001040Y-93703140D03*
D11*
%TO.P,P9,1*%
%TO.N,VDD_nRF*%
X115001040Y-91163140D03*
%TD*%
D12*
%TO.P,J1,2*%
%TO.N,GND*%
X129794000Y-124079000D03*
X129794000Y-118999000D03*
X134874000Y-118999000D03*
X134874000Y-124079000D03*
D13*
%TO.P,J1,1*%
%TO.N,Net-(J1-Pad1)*%
X132334000Y-121539000D03*
%TD*%
D14*
%TO.P,AE1,2*%
%TO.N,GND*%
X118508780Y-109512680D03*
%TD*%
D15*
%TO.P,P1,1*%
%TO.N,Net-(P1-Pad1)*%
X138938000Y-123825000D03*
%TO.P,P1,2*%
%TO.N,/IOREF*%
X141478000Y-123825000D03*
%TO.P,P1,3*%
%TO.N,Reset*%
X144018000Y-123825000D03*
%TO.P,P1,4*%
%TO.N,VDD_nRF*%
X146558000Y-123825000D03*
%TO.P,P1,5*%
%TO.N,Net-(P1-Pad5)*%
X149098000Y-123825000D03*
%TO.P,P1,6*%
%TO.N,GND*%
X151638000Y-123825000D03*
%TO.P,P1,7*%
X154178000Y-123825000D03*
%TO.P,P1,8*%
%TO.N,/Vin*%
X156718000Y-123825000D03*
%TD*%
%TO.P,P2,1*%
%TO.N,B11*%
X161798000Y-123825000D03*
%TO.P,P2,2*%
%TO.N,Reset*%
X164338000Y-123825000D03*
%TO.P,P2,3*%
%TO.N,J1*%
X166878000Y-123825000D03*
%TO.P,P2,4*%
%TO.N,K2*%
X169418000Y-123825000D03*
%TO.P,P2,5*%
%TO.N,A10*%
X171958000Y-123825000D03*
%TO.P,P2,6*%
%TO.N,B9*%
X174498000Y-123825000D03*
%TD*%
%TO.P,P3,1*%
%TO.N,B15*%
X129794000Y-75565000D03*
%TO.P,P3,2*%
%TO.N,B17*%
X132334000Y-75565000D03*
%TO.P,P3,3*%
%TO.N,Net-(P3-Pad3)*%
X134874000Y-75565000D03*
%TO.P,P3,4*%
%TO.N,GND*%
X137414000Y-75565000D03*
%TO.P,P3,5*%
%TO.N,SPI_SCK*%
X139954000Y-75565000D03*
%TO.P,P3,6*%
%TO.N,SPI_MISO*%
X142494000Y-75565000D03*
%TO.P,P3,7*%
%TO.N,SPI_MOSI*%
X145034000Y-75565000D03*
%TO.P,P3,8*%
%TO.N,SPI_SS*%
X147574000Y-75565000D03*
%TO.P,P3,9*%
%TO.N,/9(\u002A\u002A)*%
X150114000Y-75565000D03*
%TO.P,P3,10*%
%TO.N,/8*%
X152654000Y-75565000D03*
%TD*%
%TO.P,P4,1*%
%TO.N,AD12*%
X156718000Y-75565000D03*
%TO.P,P4,2*%
%TO.N,AD10*%
X159258000Y-75565000D03*
%TO.P,P4,3*%
%TO.N,AC9*%
X161798000Y-75565000D03*
%TO.P,P4,4*%
%TO.N,AD8*%
X164338000Y-75565000D03*
%TO.P,P4,5*%
%TO.N,AD16*%
X166878000Y-75565000D03*
%TO.P,P4,6*%
%TO.N,AD20*%
X169418000Y-75565000D03*
%TO.P,P4,7*%
%TO.N,T23*%
X171958000Y-75565000D03*
%TO.P,P4,8*%
%TO.N,P23*%
X174498000Y-75565000D03*
%TD*%
D16*
%TO.P,P5,1*%
%TO.N,Net-(P5-Pad1)*%
X124968000Y-123825000D03*
%TD*%
%TO.P,P6,1*%
%TO.N,Net-(P6-Pad1)*%
X177038000Y-118745000D03*
%TD*%
%TO.P,P7,1*%
%TO.N,Net-(P7-Pad1)*%
X126238000Y-75565000D03*
%TD*%
%TO.P,P8,1*%
%TO.N,Net-(P8-Pad1)*%
X177038000Y-90805000D03*
%TD*%
D17*
%TO.N,GND*%
X139227560Y-91780360D03*
X139267280Y-97625820D03*
X139263120Y-105410000D03*
X120142000Y-122047000D03*
X120142000Y-120269000D03*
X120142000Y-118237000D03*
X120142000Y-116205000D03*
X120142000Y-108585000D03*
X120142000Y-107061000D03*
X118364000Y-107061000D03*
X116586000Y-107061000D03*
X120142000Y-125349000D03*
X120142000Y-123571000D03*
X112014000Y-107061000D03*
X115062000Y-107061000D03*
X113538000Y-107061000D03*
X120142000Y-110109000D03*
X120142000Y-112903000D03*
X120142000Y-114681000D03*
X123698000Y-110109000D03*
X124460000Y-109347000D03*
X125222000Y-108585000D03*
X125984000Y-107823000D03*
X126492000Y-106807000D03*
X130810000Y-107061000D03*
X130810000Y-108331000D03*
X130810000Y-109601000D03*
X130810000Y-110871000D03*
X130810000Y-112141000D03*
X131572000Y-112903000D03*
X132334000Y-113665000D03*
X133350000Y-114681000D03*
X133604000Y-115951000D03*
X133604000Y-117221000D03*
X134112000Y-104267000D03*
X134112000Y-103251000D03*
X134112000Y-102235000D03*
X132842000Y-104267000D03*
X126492000Y-105537000D03*
X126492000Y-104267000D03*
X127762000Y-104267000D03*
X129032000Y-104267000D03*
X130302000Y-104267000D03*
X131572000Y-104267000D03*
%TO.N,VDD_nRF*%
X157196620Y-98101320D03*
X173070520Y-99009200D03*
X140545990Y-105203325D03*
%TO.N,Reset*%
X152626060Y-98671380D03*
%TO.N,B11*%
X146989800Y-110388400D03*
%TO.N,A10*%
X148041360Y-108607860D03*
%TO.N,B9*%
X149158960Y-107982850D03*
%TO.N,J1*%
X151419560Y-109763390D03*
%TO.N,K2*%
X152504140Y-109227450D03*
%TO.N,B15*%
X132104806Y-93123973D03*
%TO.N,B17*%
X132900420Y-93040200D03*
%TO.N,AD12*%
X145762980Y-96928940D03*
%TO.N,AD10*%
X146875500Y-96964500D03*
%TO.N,AC9*%
X147967280Y-96997100D03*
%TO.N,AD8*%
X149070060Y-96951800D03*
%TO.N,AD16*%
X155777365Y-78894105D03*
X144673320Y-96908620D03*
%TO.N,AD20*%
X154300920Y-79734139D03*
X143570960Y-96928940D03*
%TO.N,T23*%
X152992115Y-80406534D03*
X142471140Y-96928940D03*
%TO.N,P23*%
X151668070Y-81094169D03*
X141343380Y-96895920D03*
%TO.N,SW0*%
X166883080Y-109143800D03*
X161713410Y-107882190D03*
%TO.N,SW1*%
X166905940Y-106573320D03*
X161730940Y-105281480D03*
%TO.N,SW2*%
X166885620Y-104063800D03*
X161638230Y-102679250D03*
%TO.N,SW3*%
X166895780Y-101516180D03*
X162025580Y-100559620D03*
%TO.N,SW4*%
X166913560Y-98991420D03*
X161718000Y-98880940D03*
%TO.N,SWDCLK*%
X140055600Y-95255080D03*
%TO.N,SWDIO*%
X139923520Y-94414340D03*
%TD*%
D18*
%TO.N,GND*%
X137414000Y-75565000D02*
X137414000Y-89966800D01*
X137414000Y-89966800D02*
X139227560Y-91780360D01*
X139267280Y-97625820D02*
X139267280Y-105405840D01*
X139267280Y-105405840D02*
X139263120Y-105410000D01*
%TO.N,VDD_nRF*%
X157196620Y-98101320D02*
X172162640Y-98101320D01*
X172162640Y-98101320D02*
X173070520Y-99009200D01*
X146558000Y-123825000D02*
X146558000Y-111215335D01*
X146558000Y-111215335D02*
X140545990Y-105203325D01*
%TO.N,Reset*%
X144018000Y-120131840D02*
X144018000Y-123825000D01*
X152626060Y-98671380D02*
X144736820Y-98671380D01*
X144736820Y-98671380D02*
X139920980Y-103487220D01*
X115001040Y-101323140D02*
X124714000Y-101323140D01*
X124714000Y-101323140D02*
X125209300Y-101323140D01*
X144018000Y-110558580D02*
X144018000Y-120131840D01*
X142148560Y-108689140D02*
X144018000Y-110558580D01*
X140164820Y-108689140D02*
X142148560Y-108689140D01*
X139971780Y-108689140D02*
X140164820Y-108689140D01*
X139920980Y-108638340D02*
X139971780Y-108689140D01*
X139920980Y-108254800D02*
X139920980Y-108638340D01*
X139920980Y-103487220D02*
X139920980Y-108254800D01*
X139920980Y-108254800D02*
X139920980Y-108445300D01*
X127612140Y-101323140D02*
X135232140Y-101323140D01*
X124714000Y-101323140D02*
X127612140Y-101323140D01*
X127612140Y-101323140D02*
X128013460Y-101323140D01*
X135232140Y-101323140D02*
X137160000Y-103251000D01*
X137160000Y-103251000D02*
X137160000Y-106807000D01*
X139042140Y-108689140D02*
X140164820Y-108689140D01*
X137160000Y-106807000D02*
X139042140Y-108689140D01*
%TO.N,B11*%
X161798000Y-123825000D02*
X161798000Y-111770160D01*
X161798000Y-111770160D02*
X160416240Y-110388400D01*
X160416240Y-110388400D02*
X146989800Y-110388400D01*
%TO.N,A10*%
X152804142Y-108602448D02*
X152204138Y-108602448D01*
X152809554Y-108607860D02*
X152804142Y-108602448D01*
X152198726Y-108607860D02*
X148041360Y-108607860D01*
X152204138Y-108602448D02*
X152198726Y-108607860D01*
X171958000Y-119984239D02*
X160581621Y-108607860D01*
X160581621Y-108607860D02*
X152809554Y-108607860D01*
X171958000Y-123825000D02*
X171958000Y-119984239D01*
%TO.N,B9*%
X174498000Y-121887828D02*
X160593022Y-107982850D01*
X160593022Y-107982850D02*
X149158960Y-107982850D01*
X174498000Y-123825000D02*
X174498000Y-121887828D01*
%TO.N,J1*%
X160553400Y-109852460D02*
X151508630Y-109852460D01*
X151508630Y-109852460D02*
X151419560Y-109763390D01*
X166878000Y-116177060D02*
X160553400Y-109852460D01*
X166878000Y-123825000D02*
X166878000Y-116177060D01*
%TO.N,K2*%
X169418000Y-123825000D02*
X169418000Y-118080649D01*
X169418000Y-118080649D02*
X160564801Y-109227450D01*
X160564801Y-109227450D02*
X152504140Y-109227450D01*
%TO.N,B15*%
X129794000Y-75565000D02*
X129794000Y-75717400D01*
X132143500Y-93085279D02*
X132104806Y-93123973D01*
X129794000Y-75717400D02*
X132143500Y-78066900D01*
X132143500Y-78066900D02*
X132143500Y-93085279D01*
%TO.N,B17*%
X132593511Y-75824511D02*
X132593511Y-92509771D01*
X132334000Y-75565000D02*
X132593511Y-75824511D01*
X132593511Y-92509771D02*
X132593511Y-92733291D01*
X132593511Y-92733291D02*
X132900420Y-93040200D01*
%TO.N,AD12*%
X145793460Y-89761909D02*
X156718000Y-78837369D01*
X156718000Y-78837369D02*
X156718000Y-75565000D01*
X145762980Y-94178120D02*
X145793460Y-94147640D01*
X145762980Y-96928940D02*
X145762980Y-94178120D01*
X145793460Y-94620080D02*
X145793460Y-94147640D01*
X145793460Y-94147640D02*
X145793460Y-89761909D01*
%TO.N,AD10*%
X159258000Y-76933779D02*
X159258000Y-75565000D01*
X146898360Y-89293419D02*
X159258000Y-76933779D01*
X146875500Y-96964500D02*
X146875500Y-94376240D01*
X146875500Y-94376240D02*
X146898360Y-94353380D01*
X146898360Y-94581980D02*
X146898360Y-94353380D01*
X146898360Y-94353380D02*
X146898360Y-89293419D01*
%TO.N,AC9*%
X147967700Y-96996680D02*
X147967280Y-96997100D01*
X147967700Y-88860490D02*
X147967700Y-96996680D01*
X161798000Y-75565000D02*
X161263190Y-75565000D01*
X161263190Y-75565000D02*
X147967700Y-88860490D01*
%TO.N,AD8*%
X159992060Y-77472540D02*
X162430460Y-77472540D01*
X149054820Y-94533720D02*
X149054820Y-88409780D01*
X162430460Y-77472540D02*
X164338000Y-75565000D01*
X149054820Y-88409780D02*
X159992060Y-77472540D01*
X149070060Y-94548960D02*
X149054820Y-94533720D01*
X149070060Y-96951800D02*
X149070060Y-94548960D01*
%TO.N,AD16*%
X155777365Y-78894105D02*
X155777365Y-79141594D01*
X155777365Y-79141594D02*
X144665042Y-90253917D01*
X144673320Y-94533720D02*
X144665042Y-94525442D01*
X144665042Y-90253917D02*
X144665042Y-94525442D01*
X144673320Y-96908620D02*
X144673320Y-94533720D01*
X144665042Y-94525442D02*
X144665042Y-94686789D01*
%TO.N,AD20*%
X154300920Y-79734139D02*
X154300920Y-79981629D01*
X154300920Y-79981629D02*
X143546790Y-90735759D01*
X143570960Y-94358540D02*
X143546790Y-94334370D01*
X143570960Y-96928940D02*
X143570960Y-94358540D01*
X143546790Y-90735759D02*
X143546790Y-94334370D01*
X143546790Y-94334370D02*
X143546790Y-94673590D01*
%TO.N,T23*%
X152992115Y-80654024D02*
X142439429Y-91206710D01*
X152992115Y-80406534D02*
X152992115Y-80654024D01*
X142439429Y-91206710D02*
X142439429Y-94660960D01*
X142471140Y-94692671D02*
X142439429Y-94660960D01*
X142471140Y-96928940D02*
X142471140Y-94692671D01*
%TO.N,P23*%
X151668070Y-81094169D02*
X141335760Y-91426479D01*
X141343380Y-93888560D02*
X141335760Y-93880940D01*
X141343380Y-96895920D02*
X141343380Y-93888560D01*
X141335760Y-91426479D02*
X141335760Y-93880940D01*
X141335760Y-93880940D02*
X141335760Y-94660960D01*
%TO.N,SW0*%
X166883080Y-109143800D02*
X162975020Y-109143800D01*
X162975020Y-109143800D02*
X161713410Y-107882190D01*
%TO.N,SW1*%
X166905940Y-106573320D02*
X163022280Y-106573320D01*
X163022280Y-106572820D02*
X161730940Y-105281480D01*
X163022280Y-106573320D02*
X163022280Y-106572820D01*
%TO.N,SW2*%
X166885620Y-104063800D02*
X163022780Y-104063800D01*
X163022780Y-104063800D02*
X161638230Y-102679250D01*
%TO.N,SW3*%
X166895780Y-101516180D02*
X162963860Y-101516180D01*
X162963860Y-101516180D02*
X162025580Y-100577900D01*
X162025580Y-100577900D02*
X162025580Y-100559620D01*
%TO.N,SW4*%
X166913560Y-98991420D02*
X161828480Y-98991420D01*
X161828480Y-98991420D02*
X161718000Y-98880940D01*
%TO.N,SWDCLK*%
X116552980Y-95255080D02*
X140055600Y-95255080D01*
X115001040Y-93703140D02*
X116552980Y-95255080D01*
%TO.N,SWDIO*%
X115001040Y-98783140D02*
X113365280Y-98783140D01*
X113365280Y-98783140D02*
X112961420Y-98379280D01*
X112961420Y-98379280D02*
X112961420Y-93088460D01*
X112961420Y-93088460D02*
X113626900Y-92422980D01*
X113626900Y-92422980D02*
X117640100Y-92422980D01*
X117640100Y-92422980D02*
X119806720Y-94589600D01*
X119806720Y-94589600D02*
X139748260Y-94589600D01*
X139748260Y-94589600D02*
X139923520Y-94414340D01*
%TD*%
D19*
%TO.N,GND*%
X124166406Y-73864887D02*
X123874536Y-74301702D01*
X123673492Y-74787065D01*
X123571000Y-75302323D01*
X123571000Y-75827677D01*
X123673492Y-76342935D01*
X123874536Y-76828298D01*
X124166406Y-77265113D01*
X124537887Y-77636594D01*
X124974702Y-77928464D01*
X125460065Y-78129508D01*
X125975323Y-78232000D01*
X126500677Y-78232000D01*
X127015935Y-78129508D01*
X127501298Y-77928464D01*
X127938113Y-77636594D01*
X128309594Y-77265113D01*
X128601464Y-76828298D01*
X128657001Y-76694219D01*
X128729203Y-76782197D01*
X128957395Y-76969469D01*
X129217737Y-77108625D01*
X129500224Y-77194316D01*
X129794000Y-77223251D01*
X130087777Y-77194316D01*
X130170900Y-77169101D01*
X131383500Y-78381702D01*
X131383501Y-92522988D01*
X131378544Y-92527945D01*
X131276220Y-92681084D01*
X131205738Y-92851244D01*
X131169806Y-93031884D01*
X131169806Y-93216062D01*
X131205738Y-93396702D01*
X131276220Y-93566862D01*
X131378544Y-93720001D01*
X131488143Y-93829600D01*
X120121523Y-93829600D01*
X118203904Y-91911982D01*
X118180101Y-91882979D01*
X118064376Y-91788006D01*
X117932347Y-91717434D01*
X117789086Y-91673977D01*
X117677433Y-91662980D01*
X117677422Y-91662980D01*
X117640100Y-91659304D01*
X117602778Y-91662980D01*
X116489112Y-91662980D01*
X116489112Y-90313140D01*
X116476852Y-90188658D01*
X116440542Y-90068960D01*
X116381577Y-89958646D01*
X116302225Y-89861955D01*
X116205534Y-89782603D01*
X116095220Y-89723638D01*
X115975522Y-89687328D01*
X115851040Y-89675068D01*
X114151040Y-89675068D01*
X114026558Y-89687328D01*
X113906860Y-89723638D01*
X113796546Y-89782603D01*
X113699855Y-89861955D01*
X113620503Y-89958646D01*
X113561538Y-90068960D01*
X113525228Y-90188658D01*
X113512968Y-90313140D01*
X113512968Y-91670524D01*
X113477914Y-91673977D01*
X113334653Y-91717434D01*
X113202624Y-91788006D01*
X113086899Y-91882979D01*
X113063100Y-91911978D01*
X112450418Y-92524661D01*
X112421420Y-92548459D01*
X112397622Y-92577457D01*
X112397621Y-92577458D01*
X112326446Y-92664184D01*
X112255874Y-92796214D01*
X112229768Y-92882277D01*
X112212418Y-92939474D01*
X112201421Y-93051127D01*
X112197744Y-93088460D01*
X112201421Y-93125792D01*
X112201420Y-98341957D01*
X112197744Y-98379280D01*
X112201420Y-98416602D01*
X112201420Y-98416612D01*
X112212417Y-98528265D01*
X112246712Y-98641321D01*
X112255874Y-98671526D01*
X112326446Y-98803556D01*
X112340242Y-98820366D01*
X112421419Y-98919281D01*
X112450423Y-98943084D01*
X112801476Y-99294137D01*
X112825279Y-99323141D01*
X112941004Y-99418114D01*
X113073033Y-99488686D01*
X113216294Y-99532143D01*
X113327947Y-99543140D01*
X113327956Y-99543140D01*
X113365279Y-99546816D01*
X113402602Y-99543140D01*
X113722862Y-99543140D01*
X113847565Y-99729772D01*
X114054408Y-99936615D01*
X114228800Y-100053140D01*
X114054408Y-100169665D01*
X113847565Y-100376508D01*
X113685050Y-100619729D01*
X113573108Y-100889982D01*
X113516040Y-101176880D01*
X113516040Y-101469400D01*
X113573108Y-101756298D01*
X113685050Y-102026551D01*
X113847565Y-102269772D01*
X114054408Y-102476615D01*
X114228800Y-102593140D01*
X114054408Y-102709665D01*
X113847565Y-102916508D01*
X113685050Y-103159729D01*
X113573108Y-103429982D01*
X113516040Y-103716880D01*
X113516040Y-104009400D01*
X113573108Y-104296298D01*
X113685050Y-104566551D01*
X113847565Y-104809772D01*
X114054408Y-105016615D01*
X114297629Y-105179130D01*
X114567882Y-105291072D01*
X114854780Y-105348140D01*
X115147300Y-105348140D01*
X115434198Y-105291072D01*
X115704451Y-105179130D01*
X115947672Y-105016615D01*
X116154515Y-104809772D01*
X116317030Y-104566551D01*
X116428972Y-104296298D01*
X116486040Y-104009400D01*
X116486040Y-103716880D01*
X116428972Y-103429982D01*
X116317030Y-103159729D01*
X116154515Y-102916508D01*
X115947672Y-102709665D01*
X115773280Y-102593140D01*
X115947672Y-102476615D01*
X116154515Y-102269772D01*
X116279218Y-102083140D01*
X134917339Y-102083140D01*
X136400000Y-103565802D01*
X136400001Y-106769668D01*
X136396324Y-106807000D01*
X136400001Y-106844333D01*
X136410998Y-106955986D01*
X136423468Y-106997096D01*
X136454454Y-107099246D01*
X136525026Y-107231276D01*
X136581084Y-107299582D01*
X136620000Y-107347001D01*
X136648998Y-107370799D01*
X138478340Y-109200142D01*
X138502139Y-109229141D01*
X138531137Y-109252939D01*
X138617863Y-109324114D01*
X138706583Y-109371536D01*
X138749893Y-109394686D01*
X138893154Y-109438143D01*
X139004807Y-109449140D01*
X139004817Y-109449140D01*
X139042140Y-109452816D01*
X139079463Y-109449140D01*
X139934457Y-109449140D01*
X139971779Y-109452816D01*
X140009102Y-109449140D01*
X141833759Y-109449140D01*
X143258000Y-110873383D01*
X143258001Y-120094498D01*
X143258000Y-120094508D01*
X143258001Y-122379584D01*
X143181394Y-122420531D01*
X142953203Y-122607803D01*
X142765931Y-122835995D01*
X142748000Y-122869541D01*
X142730069Y-122835994D01*
X142542797Y-122607803D01*
X142314605Y-122420531D01*
X142054263Y-122281375D01*
X141771776Y-122195684D01*
X141478000Y-122166749D01*
X141184223Y-122195684D01*
X140901736Y-122281375D01*
X140641394Y-122420531D01*
X140413203Y-122607803D01*
X140225931Y-122835995D01*
X140208000Y-122869541D01*
X140190069Y-122835994D01*
X140002797Y-122607803D01*
X139774605Y-122420531D01*
X139514263Y-122281375D01*
X139231776Y-122195684D01*
X138938000Y-122166749D01*
X138644223Y-122195684D01*
X138361736Y-122281375D01*
X138101394Y-122420531D01*
X137873203Y-122607803D01*
X137685931Y-122835995D01*
X137546775Y-123096337D01*
X137461084Y-123378824D01*
X137439400Y-123598982D01*
X137439400Y-124051019D01*
X137461084Y-124271177D01*
X137546775Y-124553664D01*
X137685931Y-124814006D01*
X137873203Y-125042197D01*
X138101395Y-125229469D01*
X138361737Y-125368625D01*
X138644224Y-125454316D01*
X138938000Y-125483251D01*
X139231777Y-125454316D01*
X139514264Y-125368625D01*
X139774606Y-125229469D01*
X140002797Y-125042197D01*
X140190069Y-124814006D01*
X140208000Y-124780459D01*
X140225931Y-124814006D01*
X140413203Y-125042197D01*
X140641395Y-125229469D01*
X140901737Y-125368625D01*
X141184224Y-125454316D01*
X141478000Y-125483251D01*
X141771777Y-125454316D01*
X142054264Y-125368625D01*
X142314606Y-125229469D01*
X142542797Y-125042197D01*
X142730069Y-124814006D01*
X142748000Y-124780459D01*
X142765931Y-124814006D01*
X142953203Y-125042197D01*
X143181395Y-125229469D01*
X143441737Y-125368625D01*
X143724224Y-125454316D01*
X144018000Y-125483251D01*
X144311777Y-125454316D01*
X144594264Y-125368625D01*
X144854606Y-125229469D01*
X145082797Y-125042197D01*
X145270069Y-124814006D01*
X145288000Y-124780459D01*
X145305931Y-124814006D01*
X145493203Y-125042197D01*
X145721395Y-125229469D01*
X145981737Y-125368625D01*
X146264224Y-125454316D01*
X146558000Y-125483251D01*
X146851777Y-125454316D01*
X147134264Y-125368625D01*
X147394606Y-125229469D01*
X147622797Y-125042197D01*
X147810069Y-124814006D01*
X147828000Y-124780459D01*
X147845931Y-124814006D01*
X148033203Y-125042197D01*
X148261395Y-125229469D01*
X148521737Y-125368625D01*
X148804224Y-125454316D01*
X149098000Y-125483251D01*
X149391777Y-125454316D01*
X149674264Y-125368625D01*
X149934606Y-125229469D01*
X150162797Y-125042197D01*
X150350069Y-124814006D01*
X150371424Y-124774053D01*
X150519514Y-124976729D01*
X150735965Y-125175733D01*
X150987081Y-125328686D01*
X151263211Y-125429709D01*
X151278974Y-125432358D01*
X151511000Y-125311217D01*
X151511000Y-123952000D01*
X151765000Y-123952000D01*
X151765000Y-125311217D01*
X151997026Y-125432358D01*
X152012789Y-125429709D01*
X152288919Y-125328686D01*
X152540035Y-125175733D01*
X152756486Y-124976729D01*
X152908000Y-124769367D01*
X153059514Y-124976729D01*
X153275965Y-125175733D01*
X153527081Y-125328686D01*
X153803211Y-125429709D01*
X153818974Y-125432358D01*
X154051000Y-125311217D01*
X154051000Y-123952000D01*
X151765000Y-123952000D01*
X151511000Y-123952000D01*
X151491000Y-123952000D01*
X151491000Y-123698000D01*
X151511000Y-123698000D01*
X151511000Y-122338783D01*
X151765000Y-122338783D01*
X151765000Y-123698000D01*
X154051000Y-123698000D01*
X154051000Y-122338783D01*
X154305000Y-122338783D01*
X154305000Y-123698000D01*
X154325000Y-123698000D01*
X154325000Y-123952000D01*
X154305000Y-123952000D01*
X154305000Y-125311217D01*
X154537026Y-125432358D01*
X154552789Y-125429709D01*
X154828919Y-125328686D01*
X155080035Y-125175733D01*
X155296486Y-124976729D01*
X155444576Y-124774053D01*
X155465931Y-124814006D01*
X155653203Y-125042197D01*
X155881395Y-125229469D01*
X156141737Y-125368625D01*
X156424224Y-125454316D01*
X156718000Y-125483251D01*
X157011777Y-125454316D01*
X157294264Y-125368625D01*
X157554606Y-125229469D01*
X157782797Y-125042197D01*
X157970069Y-124814006D01*
X158109225Y-124553663D01*
X158194916Y-124271176D01*
X158216600Y-124051018D01*
X158216600Y-123598981D01*
X158194916Y-123378823D01*
X158109225Y-123096336D01*
X157970069Y-122835994D01*
X157782797Y-122607803D01*
X157554605Y-122420531D01*
X157294263Y-122281375D01*
X157011776Y-122195684D01*
X156718000Y-122166749D01*
X156424223Y-122195684D01*
X156141736Y-122281375D01*
X155881394Y-122420531D01*
X155653203Y-122607803D01*
X155465931Y-122835995D01*
X155444576Y-122875947D01*
X155296486Y-122673271D01*
X155080035Y-122474267D01*
X154828919Y-122321314D01*
X154552789Y-122220291D01*
X154537026Y-122217642D01*
X154305000Y-122338783D01*
X154051000Y-122338783D01*
X153818974Y-122217642D01*
X153803211Y-122220291D01*
X153527081Y-122321314D01*
X153275965Y-122474267D01*
X153059514Y-122673271D01*
X152908000Y-122880633D01*
X152756486Y-122673271D01*
X152540035Y-122474267D01*
X152288919Y-122321314D01*
X152012789Y-122220291D01*
X151997026Y-122217642D01*
X151765000Y-122338783D01*
X151511000Y-122338783D01*
X151278974Y-122217642D01*
X151263211Y-122220291D01*
X150987081Y-122321314D01*
X150735965Y-122474267D01*
X150519514Y-122673271D01*
X150371424Y-122875947D01*
X150350069Y-122835994D01*
X150162797Y-122607803D01*
X149934605Y-122420531D01*
X149674263Y-122281375D01*
X149391776Y-122195684D01*
X149098000Y-122166749D01*
X148804223Y-122195684D01*
X148521736Y-122281375D01*
X148261394Y-122420531D01*
X148033203Y-122607803D01*
X147845931Y-122835995D01*
X147828000Y-122869541D01*
X147810069Y-122835994D01*
X147622797Y-122607803D01*
X147394605Y-122420531D01*
X147318000Y-122379585D01*
X147318000Y-111264491D01*
X147432689Y-111216986D01*
X147535335Y-111148400D01*
X160101439Y-111148400D01*
X161038001Y-112084963D01*
X161038000Y-122379584D01*
X160961394Y-122420531D01*
X160733203Y-122607803D01*
X160545931Y-122835995D01*
X160406775Y-123096337D01*
X160321084Y-123378824D01*
X160299400Y-123598982D01*
X160299400Y-124051019D01*
X160321084Y-124271177D01*
X160406775Y-124553664D01*
X160545931Y-124814006D01*
X160733203Y-125042197D01*
X160961395Y-125229469D01*
X161221737Y-125368625D01*
X161504224Y-125454316D01*
X161798000Y-125483251D01*
X162091777Y-125454316D01*
X162374264Y-125368625D01*
X162634606Y-125229469D01*
X162862797Y-125042197D01*
X163050069Y-124814006D01*
X163068000Y-124780459D01*
X163085931Y-124814006D01*
X163273203Y-125042197D01*
X163501395Y-125229469D01*
X163761737Y-125368625D01*
X164044224Y-125454316D01*
X164338000Y-125483251D01*
X164631777Y-125454316D01*
X164914264Y-125368625D01*
X165174606Y-125229469D01*
X165402797Y-125042197D01*
X165590069Y-124814006D01*
X165608000Y-124780459D01*
X165625931Y-124814006D01*
X165813203Y-125042197D01*
X166041395Y-125229469D01*
X166301737Y-125368625D01*
X166584224Y-125454316D01*
X166878000Y-125483251D01*
X167171777Y-125454316D01*
X167454264Y-125368625D01*
X167714606Y-125229469D01*
X167942797Y-125042197D01*
X168130069Y-124814006D01*
X168148000Y-124780459D01*
X168165931Y-124814006D01*
X168353203Y-125042197D01*
X168581395Y-125229469D01*
X168841737Y-125368625D01*
X169124224Y-125454316D01*
X169418000Y-125483251D01*
X169711777Y-125454316D01*
X169994264Y-125368625D01*
X170254606Y-125229469D01*
X170482797Y-125042197D01*
X170670069Y-124814006D01*
X170688000Y-124780459D01*
X170705931Y-124814006D01*
X170893203Y-125042197D01*
X171121395Y-125229469D01*
X171381737Y-125368625D01*
X171664224Y-125454316D01*
X171958000Y-125483251D01*
X172251777Y-125454316D01*
X172534264Y-125368625D01*
X172794606Y-125229469D01*
X173022797Y-125042197D01*
X173210069Y-124814006D01*
X173228000Y-124780459D01*
X173245931Y-124814006D01*
X173433203Y-125042197D01*
X173661395Y-125229469D01*
X173921737Y-125368625D01*
X174204224Y-125454316D01*
X174498000Y-125483251D01*
X174791777Y-125454316D01*
X175074264Y-125368625D01*
X175334606Y-125229469D01*
X175562797Y-125042197D01*
X175750069Y-124814006D01*
X175889225Y-124553663D01*
X175974916Y-124271176D01*
X175996600Y-124051018D01*
X175996600Y-123598981D01*
X175974916Y-123378823D01*
X175889225Y-123096336D01*
X175750069Y-122835994D01*
X175562797Y-122607803D01*
X175334605Y-122420531D01*
X175258000Y-122379585D01*
X175258000Y-121925150D01*
X175261676Y-121887827D01*
X175258000Y-121850504D01*
X175258000Y-121850495D01*
X175247003Y-121738842D01*
X175203546Y-121595581D01*
X175132974Y-121463552D01*
X175100665Y-121424183D01*
X175061799Y-121376824D01*
X175061795Y-121376820D01*
X175038001Y-121347827D01*
X175009008Y-121324033D01*
X163588773Y-109903800D01*
X166337545Y-109903800D01*
X166440191Y-109972386D01*
X166610351Y-110042868D01*
X166790991Y-110078800D01*
X166975169Y-110078800D01*
X167155809Y-110042868D01*
X167325969Y-109972386D01*
X167479108Y-109870062D01*
X167609342Y-109739828D01*
X167711666Y-109586689D01*
X167782148Y-109416529D01*
X167818080Y-109235889D01*
X167818080Y-109051711D01*
X167782148Y-108871071D01*
X167711666Y-108700911D01*
X167609342Y-108547772D01*
X167479108Y-108417538D01*
X167325969Y-108315214D01*
X167155809Y-108244732D01*
X166975169Y-108208800D01*
X166790991Y-108208800D01*
X166610351Y-108244732D01*
X166440191Y-108315214D01*
X166337545Y-108383800D01*
X163289822Y-108383800D01*
X162636563Y-107730541D01*
X162612478Y-107609461D01*
X162541996Y-107439301D01*
X162439672Y-107286162D01*
X162309438Y-107155928D01*
X162156299Y-107053604D01*
X161986139Y-106983122D01*
X161805499Y-106947190D01*
X161621321Y-106947190D01*
X161440681Y-106983122D01*
X161270521Y-107053604D01*
X161117382Y-107155928D01*
X160987148Y-107286162D01*
X160964698Y-107319760D01*
X160885269Y-107277304D01*
X160742008Y-107233847D01*
X160630355Y-107222850D01*
X160630344Y-107222850D01*
X160593022Y-107219174D01*
X160555700Y-107222850D01*
X149704495Y-107222850D01*
X149601849Y-107154264D01*
X149431689Y-107083782D01*
X149251049Y-107047850D01*
X149066871Y-107047850D01*
X148886231Y-107083782D01*
X148716071Y-107154264D01*
X148562932Y-107256588D01*
X148432698Y-107386822D01*
X148330374Y-107539961D01*
X148264526Y-107698933D01*
X148133449Y-107672860D01*
X147949271Y-107672860D01*
X147768631Y-107708792D01*
X147598471Y-107779274D01*
X147445332Y-107881598D01*
X147315098Y-108011832D01*
X147212774Y-108164971D01*
X147142292Y-108335131D01*
X147106360Y-108515771D01*
X147106360Y-108699949D01*
X147142292Y-108880589D01*
X147212774Y-109050749D01*
X147315098Y-109203888D01*
X147445332Y-109334122D01*
X147598471Y-109436446D01*
X147768631Y-109506928D01*
X147949271Y-109542860D01*
X148133449Y-109542860D01*
X148314089Y-109506928D01*
X148484249Y-109436446D01*
X148586895Y-109367860D01*
X150571357Y-109367860D01*
X150520492Y-109490661D01*
X150493094Y-109628400D01*
X147535335Y-109628400D01*
X147432689Y-109559814D01*
X147262529Y-109489332D01*
X147081889Y-109453400D01*
X146897711Y-109453400D01*
X146717071Y-109489332D01*
X146546911Y-109559814D01*
X146393772Y-109662138D01*
X146263538Y-109792372D01*
X146242029Y-109824562D01*
X141606858Y-105189391D01*
X160795940Y-105189391D01*
X160795940Y-105373569D01*
X160831872Y-105554209D01*
X160902354Y-105724369D01*
X161004678Y-105877508D01*
X161134912Y-106007742D01*
X161288051Y-106110066D01*
X161458211Y-106180548D01*
X161579291Y-106204633D01*
X162456194Y-107081536D01*
X162482279Y-107113321D01*
X162598004Y-107208294D01*
X162730033Y-107278866D01*
X162873294Y-107322323D01*
X163022280Y-107336997D01*
X163059613Y-107333320D01*
X166360405Y-107333320D01*
X166463051Y-107401906D01*
X166633211Y-107472388D01*
X166813851Y-107508320D01*
X166998029Y-107508320D01*
X167178669Y-107472388D01*
X167348829Y-107401906D01*
X167501968Y-107299582D01*
X167632202Y-107169348D01*
X167734526Y-107016209D01*
X167805008Y-106846049D01*
X167840940Y-106665409D01*
X167840940Y-106481231D01*
X167805008Y-106300591D01*
X167734526Y-106130431D01*
X167632202Y-105977292D01*
X167501968Y-105847058D01*
X167348829Y-105744734D01*
X167178669Y-105674252D01*
X166998029Y-105638320D01*
X166813851Y-105638320D01*
X166633211Y-105674252D01*
X166463051Y-105744734D01*
X166360405Y-105813320D01*
X163337582Y-105813320D01*
X162654093Y-105129831D01*
X162630008Y-105008751D01*
X162559526Y-104838591D01*
X162457202Y-104685452D01*
X162326968Y-104555218D01*
X162173829Y-104452894D01*
X162003669Y-104382412D01*
X161823029Y-104346480D01*
X161638851Y-104346480D01*
X161458211Y-104382412D01*
X161288051Y-104452894D01*
X161134912Y-104555218D01*
X161004678Y-104685452D01*
X160902354Y-104838591D01*
X160831872Y-105008751D01*
X160795940Y-105189391D01*
X141606858Y-105189391D01*
X141469143Y-105051677D01*
X141445058Y-104930596D01*
X141374576Y-104760436D01*
X141272252Y-104607297D01*
X141142018Y-104477063D01*
X140988879Y-104374739D01*
X140818719Y-104304257D01*
X140680980Y-104276859D01*
X140680980Y-103802021D01*
X141895840Y-102587161D01*
X160703230Y-102587161D01*
X160703230Y-102771339D01*
X160739162Y-102951979D01*
X160809644Y-103122139D01*
X160911968Y-103275278D01*
X161042202Y-103405512D01*
X161195341Y-103507836D01*
X161365501Y-103578318D01*
X161486581Y-103602403D01*
X162458985Y-104574808D01*
X162482779Y-104603801D01*
X162511772Y-104627595D01*
X162511776Y-104627599D01*
X162534815Y-104646506D01*
X162598504Y-104698774D01*
X162730533Y-104769346D01*
X162873794Y-104812803D01*
X162985447Y-104823800D01*
X162985456Y-104823800D01*
X163022779Y-104827476D01*
X163060102Y-104823800D01*
X166340085Y-104823800D01*
X166442731Y-104892386D01*
X166612891Y-104962868D01*
X166793531Y-104998800D01*
X166977709Y-104998800D01*
X167158349Y-104962868D01*
X167328509Y-104892386D01*
X167481648Y-104790062D01*
X167611882Y-104659828D01*
X167714206Y-104506689D01*
X167784688Y-104336529D01*
X167820620Y-104155889D01*
X167820620Y-103971711D01*
X167784688Y-103791071D01*
X167714206Y-103620911D01*
X167611882Y-103467772D01*
X167481648Y-103337538D01*
X167328509Y-103235214D01*
X167158349Y-103164732D01*
X166977709Y-103128800D01*
X166793531Y-103128800D01*
X166612891Y-103164732D01*
X166442731Y-103235214D01*
X166340085Y-103303800D01*
X163337583Y-103303800D01*
X162561383Y-102527601D01*
X162537298Y-102406521D01*
X162466816Y-102236361D01*
X162364492Y-102083222D01*
X162234258Y-101952988D01*
X162081119Y-101850664D01*
X161910959Y-101780182D01*
X161730319Y-101744250D01*
X161546141Y-101744250D01*
X161365501Y-101780182D01*
X161195341Y-101850664D01*
X161042202Y-101952988D01*
X160911968Y-102083222D01*
X160809644Y-102236361D01*
X160739162Y-102406521D01*
X160703230Y-102587161D01*
X141895840Y-102587161D01*
X145051622Y-99431380D01*
X152080525Y-99431380D01*
X152183171Y-99499966D01*
X152353331Y-99570448D01*
X152533971Y-99606380D01*
X152718149Y-99606380D01*
X152898789Y-99570448D01*
X153068949Y-99499966D01*
X153222088Y-99397642D01*
X153352322Y-99267408D01*
X153454646Y-99114269D01*
X153525128Y-98944109D01*
X153561060Y-98763469D01*
X153561060Y-98579291D01*
X153525128Y-98398651D01*
X153454646Y-98228491D01*
X153352322Y-98075352D01*
X153286201Y-98009231D01*
X156261620Y-98009231D01*
X156261620Y-98193409D01*
X156297552Y-98374049D01*
X156368034Y-98544209D01*
X156470358Y-98697348D01*
X156600592Y-98827582D01*
X156753731Y-98929906D01*
X156923891Y-99000388D01*
X157104531Y-99036320D01*
X157288709Y-99036320D01*
X157469349Y-99000388D01*
X157639509Y-98929906D01*
X157742155Y-98861320D01*
X160783000Y-98861320D01*
X160783000Y-98973029D01*
X160818932Y-99153669D01*
X160889414Y-99323829D01*
X160991738Y-99476968D01*
X161121972Y-99607202D01*
X161275111Y-99709526D01*
X161445271Y-99780008D01*
X161494685Y-99789837D01*
X161429552Y-99833358D01*
X161299318Y-99963592D01*
X161196994Y-100116731D01*
X161126512Y-100286891D01*
X161090580Y-100467531D01*
X161090580Y-100651709D01*
X161126512Y-100832349D01*
X161196994Y-101002509D01*
X161299318Y-101155648D01*
X161429552Y-101285882D01*
X161582691Y-101388206D01*
X161752851Y-101458688D01*
X161851112Y-101478234D01*
X162400061Y-102027183D01*
X162423859Y-102056181D01*
X162539584Y-102151154D01*
X162671613Y-102221726D01*
X162814874Y-102265183D01*
X162926527Y-102276180D01*
X162926536Y-102276180D01*
X162963859Y-102279856D01*
X163001182Y-102276180D01*
X166350245Y-102276180D01*
X166452891Y-102344766D01*
X166623051Y-102415248D01*
X166803691Y-102451180D01*
X166987869Y-102451180D01*
X167168509Y-102415248D01*
X167338669Y-102344766D01*
X167491808Y-102242442D01*
X167622042Y-102112208D01*
X167724366Y-101959069D01*
X167794848Y-101788909D01*
X167830780Y-101608269D01*
X167830780Y-101424091D01*
X167794848Y-101243451D01*
X167724366Y-101073291D01*
X167622042Y-100920152D01*
X167491808Y-100789918D01*
X167338669Y-100687594D01*
X167168509Y-100617112D01*
X166987869Y-100581180D01*
X166803691Y-100581180D01*
X166623051Y-100617112D01*
X166452891Y-100687594D01*
X166350245Y-100756180D01*
X163278662Y-100756180D01*
X162953272Y-100430790D01*
X162924648Y-100286891D01*
X162854166Y-100116731D01*
X162751842Y-99963592D01*
X162621608Y-99833358D01*
X162498979Y-99751420D01*
X166368025Y-99751420D01*
X166470671Y-99820006D01*
X166640831Y-99890488D01*
X166821471Y-99926420D01*
X167005649Y-99926420D01*
X167186289Y-99890488D01*
X167356449Y-99820006D01*
X167509588Y-99717682D01*
X167639822Y-99587448D01*
X167742146Y-99434309D01*
X167812628Y-99264149D01*
X167848560Y-99083509D01*
X167848560Y-98899331D01*
X167840999Y-98861320D01*
X171847839Y-98861320D01*
X172147367Y-99160849D01*
X172171452Y-99281929D01*
X172241934Y-99452089D01*
X172344258Y-99605228D01*
X172474492Y-99735462D01*
X172627631Y-99837786D01*
X172797791Y-99908268D01*
X172978431Y-99944200D01*
X173162609Y-99944200D01*
X173343249Y-99908268D01*
X173513409Y-99837786D01*
X173666548Y-99735462D01*
X173796782Y-99605228D01*
X173899106Y-99452089D01*
X173969588Y-99281929D01*
X174005520Y-99101289D01*
X174005520Y-98917111D01*
X173969588Y-98736471D01*
X173899106Y-98566311D01*
X173796782Y-98413172D01*
X173666548Y-98282938D01*
X173513409Y-98180614D01*
X173343249Y-98110132D01*
X173222169Y-98086047D01*
X172726443Y-97590322D01*
X172702641Y-97561319D01*
X172586916Y-97466346D01*
X172454887Y-97395774D01*
X172311626Y-97352317D01*
X172199973Y-97341320D01*
X172199962Y-97341320D01*
X172162640Y-97337644D01*
X172125318Y-97341320D01*
X157742155Y-97341320D01*
X157639509Y-97272734D01*
X157469349Y-97202252D01*
X157288709Y-97166320D01*
X157104531Y-97166320D01*
X156923891Y-97202252D01*
X156753731Y-97272734D01*
X156600592Y-97375058D01*
X156470358Y-97505292D01*
X156368034Y-97658431D01*
X156297552Y-97828591D01*
X156261620Y-98009231D01*
X153286201Y-98009231D01*
X153222088Y-97945118D01*
X153068949Y-97842794D01*
X152898789Y-97772312D01*
X152718149Y-97736380D01*
X152533971Y-97736380D01*
X152353331Y-97772312D01*
X152183171Y-97842794D01*
X152080525Y-97911380D01*
X148163534Y-97911380D01*
X148240009Y-97896168D01*
X148410169Y-97825686D01*
X148552568Y-97730538D01*
X148627171Y-97780386D01*
X148797331Y-97850868D01*
X148977971Y-97886800D01*
X149162149Y-97886800D01*
X149342789Y-97850868D01*
X149512949Y-97780386D01*
X149666088Y-97678062D01*
X149796322Y-97547828D01*
X149898646Y-97394689D01*
X149969128Y-97224529D01*
X150005060Y-97043889D01*
X150005060Y-96859711D01*
X149969128Y-96679071D01*
X149898646Y-96508911D01*
X149830060Y-96406265D01*
X149830060Y-94586293D01*
X149833737Y-94548960D01*
X149827744Y-94488109D01*
X149819063Y-94399974D01*
X149814820Y-94385986D01*
X149814820Y-88724581D01*
X160306862Y-78232540D01*
X162393138Y-78232540D01*
X162430460Y-78236216D01*
X162467782Y-78232540D01*
X162467793Y-78232540D01*
X162579446Y-78221543D01*
X162722707Y-78178086D01*
X162854736Y-78107514D01*
X162970461Y-78012541D01*
X162994264Y-77983537D01*
X163844171Y-77133631D01*
X164044224Y-77194316D01*
X164338000Y-77223251D01*
X164631777Y-77194316D01*
X164914264Y-77108625D01*
X165174606Y-76969469D01*
X165402797Y-76782197D01*
X165590069Y-76554006D01*
X165608000Y-76520459D01*
X165625931Y-76554006D01*
X165813203Y-76782197D01*
X166041395Y-76969469D01*
X166301737Y-77108625D01*
X166584224Y-77194316D01*
X166878000Y-77223251D01*
X167171777Y-77194316D01*
X167454264Y-77108625D01*
X167714606Y-76969469D01*
X167942797Y-76782197D01*
X168130069Y-76554006D01*
X168148000Y-76520459D01*
X168165931Y-76554006D01*
X168353203Y-76782197D01*
X168581395Y-76969469D01*
X168841737Y-77108625D01*
X169124224Y-77194316D01*
X169418000Y-77223251D01*
X169711777Y-77194316D01*
X169994264Y-77108625D01*
X170254606Y-76969469D01*
X170482797Y-76782197D01*
X170670069Y-76554006D01*
X170688000Y-76520459D01*
X170705931Y-76554006D01*
X170893203Y-76782197D01*
X171121395Y-76969469D01*
X171381737Y-77108625D01*
X171664224Y-77194316D01*
X171958000Y-77223251D01*
X172251777Y-77194316D01*
X172534264Y-77108625D01*
X172794606Y-76969469D01*
X173022797Y-76782197D01*
X173210069Y-76554006D01*
X173228000Y-76520459D01*
X173245931Y-76554006D01*
X173433203Y-76782197D01*
X173661395Y-76969469D01*
X173921737Y-77108625D01*
X174204224Y-77194316D01*
X174498000Y-77223251D01*
X174791777Y-77194316D01*
X175074264Y-77108625D01*
X175334606Y-76969469D01*
X175562797Y-76782197D01*
X175750069Y-76554006D01*
X175889225Y-76293663D01*
X175974916Y-76011176D01*
X175996600Y-75791018D01*
X175996600Y-75338981D01*
X175974916Y-75118823D01*
X175889225Y-74836336D01*
X175750069Y-74575994D01*
X175562797Y-74347803D01*
X175334605Y-74160531D01*
X175074263Y-74021375D01*
X174791776Y-73935684D01*
X174498000Y-73906749D01*
X174204223Y-73935684D01*
X173921736Y-74021375D01*
X173661394Y-74160531D01*
X173433203Y-74347803D01*
X173245931Y-74575995D01*
X173228000Y-74609541D01*
X173210069Y-74575994D01*
X173022797Y-74347803D01*
X172794605Y-74160531D01*
X172534263Y-74021375D01*
X172251776Y-73935684D01*
X171958000Y-73906749D01*
X171664223Y-73935684D01*
X171381736Y-74021375D01*
X171121394Y-74160531D01*
X170893203Y-74347803D01*
X170705931Y-74575995D01*
X170688000Y-74609541D01*
X170670069Y-74575994D01*
X170482797Y-74347803D01*
X170254605Y-74160531D01*
X169994263Y-74021375D01*
X169711776Y-73935684D01*
X169418000Y-73906749D01*
X169124223Y-73935684D01*
X168841736Y-74021375D01*
X168581394Y-74160531D01*
X168353203Y-74347803D01*
X168165931Y-74575995D01*
X168148000Y-74609541D01*
X168130069Y-74575994D01*
X167942797Y-74347803D01*
X167714605Y-74160531D01*
X167454263Y-74021375D01*
X167171776Y-73935684D01*
X166878000Y-73906749D01*
X166584223Y-73935684D01*
X166301736Y-74021375D01*
X166041394Y-74160531D01*
X165813203Y-74347803D01*
X165625931Y-74575995D01*
X165608000Y-74609541D01*
X165590069Y-74575994D01*
X165402797Y-74347803D01*
X165174605Y-74160531D01*
X164914263Y-74021375D01*
X164631776Y-73935684D01*
X164338000Y-73906749D01*
X164044223Y-73935684D01*
X163761736Y-74021375D01*
X163501394Y-74160531D01*
X163273203Y-74347803D01*
X163085931Y-74575995D01*
X163068000Y-74609541D01*
X163050069Y-74575994D01*
X162862797Y-74347803D01*
X162634605Y-74160531D01*
X162374263Y-74021375D01*
X162091776Y-73935684D01*
X161798000Y-73906749D01*
X161504223Y-73935684D01*
X161221736Y-74021375D01*
X160961394Y-74160531D01*
X160733203Y-74347803D01*
X160545931Y-74575995D01*
X160528000Y-74609541D01*
X160510069Y-74575994D01*
X160322797Y-74347803D01*
X160094605Y-74160531D01*
X159834263Y-74021375D01*
X159551776Y-73935684D01*
X159258000Y-73906749D01*
X158964223Y-73935684D01*
X158681736Y-74021375D01*
X158421394Y-74160531D01*
X158193203Y-74347803D01*
X158005931Y-74575995D01*
X157988000Y-74609541D01*
X157970069Y-74575994D01*
X157782797Y-74347803D01*
X157554605Y-74160531D01*
X157294263Y-74021375D01*
X157011776Y-73935684D01*
X156718000Y-73906749D01*
X156424223Y-73935684D01*
X156141736Y-74021375D01*
X155881394Y-74160531D01*
X155653203Y-74347803D01*
X155465931Y-74575995D01*
X155326775Y-74836337D01*
X155241084Y-75118824D01*
X155219400Y-75338982D01*
X155219400Y-75791019D01*
X155241084Y-76011177D01*
X155326775Y-76293664D01*
X155465931Y-76554006D01*
X155653203Y-76782197D01*
X155881395Y-76969469D01*
X155958001Y-77010416D01*
X155958000Y-77976718D01*
X155869454Y-77959105D01*
X155685276Y-77959105D01*
X155504636Y-77995037D01*
X155334476Y-78065519D01*
X155181337Y-78167843D01*
X155051103Y-78298077D01*
X154948779Y-78451216D01*
X154878297Y-78621376D01*
X154842365Y-78802016D01*
X154842365Y-78971406D01*
X154743809Y-78905553D01*
X154573649Y-78835071D01*
X154393009Y-78799139D01*
X154208831Y-78799139D01*
X154028191Y-78835071D01*
X153858031Y-78905553D01*
X153704892Y-79007877D01*
X153574658Y-79138111D01*
X153472334Y-79291250D01*
X153401852Y-79461410D01*
X153382959Y-79556390D01*
X153264844Y-79507466D01*
X153084204Y-79471534D01*
X152900026Y-79471534D01*
X152719386Y-79507466D01*
X152549226Y-79577948D01*
X152396087Y-79680272D01*
X152265853Y-79810506D01*
X152163529Y-79963645D01*
X152093047Y-80133805D01*
X152070193Y-80248697D01*
X151940799Y-80195101D01*
X151760159Y-80159169D01*
X151575981Y-80159169D01*
X151395341Y-80195101D01*
X151225181Y-80265583D01*
X151072042Y-80367907D01*
X150941808Y-80498141D01*
X150839484Y-80651280D01*
X150769002Y-80821440D01*
X150744917Y-80942520D01*
X140824763Y-90862675D01*
X140795759Y-90886478D01*
X140740631Y-90953653D01*
X140700786Y-91002203D01*
X140671109Y-91057725D01*
X140630214Y-91134233D01*
X140586757Y-91277494D01*
X140575760Y-91389147D01*
X140575760Y-91389157D01*
X140572084Y-91426479D01*
X140575760Y-91463802D01*
X140575761Y-93744291D01*
X140519548Y-93688078D01*
X140366409Y-93585754D01*
X140196249Y-93515272D01*
X140015609Y-93479340D01*
X139831431Y-93479340D01*
X139650791Y-93515272D01*
X139480631Y-93585754D01*
X139327492Y-93688078D01*
X139197258Y-93818312D01*
X139189716Y-93829600D01*
X133401955Y-93829600D01*
X133496448Y-93766462D01*
X133626682Y-93636228D01*
X133729006Y-93483089D01*
X133799488Y-93312929D01*
X133835420Y-93132289D01*
X133835420Y-92948111D01*
X133799488Y-92767471D01*
X133729006Y-92597311D01*
X133626682Y-92444172D01*
X133496448Y-92313938D01*
X133353511Y-92218431D01*
X133353511Y-76819362D01*
X133398797Y-76782197D01*
X133586069Y-76554006D01*
X133604000Y-76520459D01*
X133621931Y-76554006D01*
X133809203Y-76782197D01*
X134037395Y-76969469D01*
X134297737Y-77108625D01*
X134580224Y-77194316D01*
X134874000Y-77223251D01*
X135167777Y-77194316D01*
X135450264Y-77108625D01*
X135710606Y-76969469D01*
X135938797Y-76782197D01*
X136126069Y-76554006D01*
X136147424Y-76514053D01*
X136295514Y-76716729D01*
X136511965Y-76915733D01*
X136763081Y-77068686D01*
X137039211Y-77169709D01*
X137054974Y-77172358D01*
X137287000Y-77051217D01*
X137287000Y-75692000D01*
X137267000Y-75692000D01*
X137267000Y-75438000D01*
X137287000Y-75438000D01*
X137287000Y-74078783D01*
X137541000Y-74078783D01*
X137541000Y-75438000D01*
X137561000Y-75438000D01*
X137561000Y-75692000D01*
X137541000Y-75692000D01*
X137541000Y-77051217D01*
X137773026Y-77172358D01*
X137788789Y-77169709D01*
X138064919Y-77068686D01*
X138316035Y-76915733D01*
X138532486Y-76716729D01*
X138680576Y-76514053D01*
X138701931Y-76554006D01*
X138889203Y-76782197D01*
X139117395Y-76969469D01*
X139377737Y-77108625D01*
X139660224Y-77194316D01*
X139954000Y-77223251D01*
X140247777Y-77194316D01*
X140530264Y-77108625D01*
X140790606Y-76969469D01*
X141018797Y-76782197D01*
X141206069Y-76554006D01*
X141224000Y-76520459D01*
X141241931Y-76554006D01*
X141429203Y-76782197D01*
X141657395Y-76969469D01*
X141917737Y-77108625D01*
X142200224Y-77194316D01*
X142494000Y-77223251D01*
X142787777Y-77194316D01*
X143070264Y-77108625D01*
X143330606Y-76969469D01*
X143558797Y-76782197D01*
X143746069Y-76554006D01*
X143764000Y-76520459D01*
X143781931Y-76554006D01*
X143969203Y-76782197D01*
X144197395Y-76969469D01*
X144457737Y-77108625D01*
X144740224Y-77194316D01*
X145034000Y-77223251D01*
X145327777Y-77194316D01*
X145610264Y-77108625D01*
X145870606Y-76969469D01*
X146098797Y-76782197D01*
X146286069Y-76554006D01*
X146304000Y-76520459D01*
X146321931Y-76554006D01*
X146509203Y-76782197D01*
X146737395Y-76969469D01*
X146997737Y-77108625D01*
X147280224Y-77194316D01*
X147574000Y-77223251D01*
X147867777Y-77194316D01*
X148150264Y-77108625D01*
X148410606Y-76969469D01*
X148638797Y-76782197D01*
X148826069Y-76554006D01*
X148844000Y-76520459D01*
X148861931Y-76554006D01*
X149049203Y-76782197D01*
X149277395Y-76969469D01*
X149537737Y-77108625D01*
X149820224Y-77194316D01*
X150114000Y-77223251D01*
X150407777Y-77194316D01*
X150690264Y-77108625D01*
X150950606Y-76969469D01*
X151178797Y-76782197D01*
X151366069Y-76554006D01*
X151384000Y-76520459D01*
X151401931Y-76554006D01*
X151589203Y-76782197D01*
X151817395Y-76969469D01*
X152077737Y-77108625D01*
X152360224Y-77194316D01*
X152654000Y-77223251D01*
X152947777Y-77194316D01*
X153230264Y-77108625D01*
X153490606Y-76969469D01*
X153718797Y-76782197D01*
X153906069Y-76554006D01*
X154045225Y-76293663D01*
X154130916Y-76011176D01*
X154152600Y-75791018D01*
X154152600Y-75338981D01*
X154130916Y-75118823D01*
X154045225Y-74836336D01*
X153906069Y-74575994D01*
X153718797Y-74347803D01*
X153490605Y-74160531D01*
X153230263Y-74021375D01*
X152947776Y-73935684D01*
X152654000Y-73906749D01*
X152360223Y-73935684D01*
X152077736Y-74021375D01*
X151817394Y-74160531D01*
X151589203Y-74347803D01*
X151401931Y-74575995D01*
X151384000Y-74609541D01*
X151366069Y-74575994D01*
X151178797Y-74347803D01*
X150950605Y-74160531D01*
X150690263Y-74021375D01*
X150407776Y-73935684D01*
X150114000Y-73906749D01*
X149820223Y-73935684D01*
X149537736Y-74021375D01*
X149277394Y-74160531D01*
X149049203Y-74347803D01*
X148861931Y-74575995D01*
X148844000Y-74609541D01*
X148826069Y-74575994D01*
X148638797Y-74347803D01*
X148410605Y-74160531D01*
X148150263Y-74021375D01*
X147867776Y-73935684D01*
X147574000Y-73906749D01*
X147280223Y-73935684D01*
X146997736Y-74021375D01*
X146737394Y-74160531D01*
X146509203Y-74347803D01*
X146321931Y-74575995D01*
X146304000Y-74609541D01*
X146286069Y-74575994D01*
X146098797Y-74347803D01*
X145870605Y-74160531D01*
X145610263Y-74021375D01*
X145327776Y-73935684D01*
X145034000Y-73906749D01*
X144740223Y-73935684D01*
X144457736Y-74021375D01*
X144197394Y-74160531D01*
X143969203Y-74347803D01*
X143781931Y-74575995D01*
X143764000Y-74609541D01*
X143746069Y-74575994D01*
X143558797Y-74347803D01*
X143330605Y-74160531D01*
X143070263Y-74021375D01*
X142787776Y-73935684D01*
X142494000Y-73906749D01*
X142200223Y-73935684D01*
X141917736Y-74021375D01*
X141657394Y-74160531D01*
X141429203Y-74347803D01*
X141241931Y-74575995D01*
X141224000Y-74609541D01*
X141206069Y-74575994D01*
X141018797Y-74347803D01*
X140790605Y-74160531D01*
X140530263Y-74021375D01*
X140247776Y-73935684D01*
X139954000Y-73906749D01*
X139660223Y-73935684D01*
X139377736Y-74021375D01*
X139117394Y-74160531D01*
X138889203Y-74347803D01*
X138701931Y-74575995D01*
X138680576Y-74615947D01*
X138532486Y-74413271D01*
X138316035Y-74214267D01*
X138064919Y-74061314D01*
X137788789Y-73960291D01*
X137773026Y-73957642D01*
X137541000Y-74078783D01*
X137287000Y-74078783D01*
X137054974Y-73957642D01*
X137039211Y-73960291D01*
X136763081Y-74061314D01*
X136511965Y-74214267D01*
X136295514Y-74413271D01*
X136147424Y-74615947D01*
X136126069Y-74575994D01*
X135938797Y-74347803D01*
X135710605Y-74160531D01*
X135450263Y-74021375D01*
X135167776Y-73935684D01*
X134874000Y-73906749D01*
X134580223Y-73935684D01*
X134297736Y-74021375D01*
X134037394Y-74160531D01*
X133809203Y-74347803D01*
X133621931Y-74575995D01*
X133604000Y-74609541D01*
X133586069Y-74575994D01*
X133398797Y-74347803D01*
X133170605Y-74160531D01*
X132910263Y-74021375D01*
X132627776Y-73935684D01*
X132334000Y-73906749D01*
X132040223Y-73935684D01*
X131757736Y-74021375D01*
X131497394Y-74160531D01*
X131269203Y-74347803D01*
X131081931Y-74575995D01*
X131064000Y-74609541D01*
X131046069Y-74575994D01*
X130858797Y-74347803D01*
X130630605Y-74160531D01*
X130370263Y-74021375D01*
X130087776Y-73935684D01*
X129794000Y-73906749D01*
X129500223Y-73935684D01*
X129217736Y-74021375D01*
X128957394Y-74160531D01*
X128729203Y-74347803D01*
X128657001Y-74435781D01*
X128601464Y-74301702D01*
X128309594Y-73864887D01*
X128179707Y-73735000D01*
X175219909Y-73735000D01*
X176328001Y-74843093D01*
X176328000Y-85944125D01*
X176324565Y-85979000D01*
X176328000Y-86013875D01*
X176328000Y-86013876D01*
X176338273Y-86118183D01*
X176378872Y-86252019D01*
X176444800Y-86375362D01*
X176533525Y-86483474D01*
X176560617Y-86505708D01*
X178868001Y-88813093D01*
X178868001Y-88863294D01*
X178738113Y-88733406D01*
X178301298Y-88441536D01*
X177815935Y-88240492D01*
X177300677Y-88138000D01*
X176775323Y-88138000D01*
X176260065Y-88240492D01*
X175774702Y-88441536D01*
X175337887Y-88733406D01*
X174966406Y-89104887D01*
X174674536Y-89541702D01*
X174473492Y-90027065D01*
X174371000Y-90542323D01*
X174371000Y-91067677D01*
X174473492Y-91582935D01*
X174674536Y-92068298D01*
X174966406Y-92505113D01*
X175337887Y-92876594D01*
X175774702Y-93168464D01*
X176260065Y-93369508D01*
X176775323Y-93472000D01*
X177300677Y-93472000D01*
X177815935Y-93369508D01*
X178301298Y-93168464D01*
X178738113Y-92876594D01*
X178868001Y-92746706D01*
X178868000Y-116803293D01*
X178738113Y-116673406D01*
X178301298Y-116381536D01*
X177815935Y-116180492D01*
X177300677Y-116078000D01*
X176775323Y-116078000D01*
X176260065Y-116180492D01*
X175774702Y-116381536D01*
X175337887Y-116673406D01*
X174966406Y-117044887D01*
X174674536Y-117481702D01*
X174473492Y-117967065D01*
X174371000Y-118482323D01*
X174371000Y-119007677D01*
X174473492Y-119522935D01*
X174674536Y-120008298D01*
X174966406Y-120445113D01*
X175337887Y-120816594D01*
X175774702Y-121108464D01*
X176260065Y-121309508D01*
X176775323Y-121412000D01*
X177300677Y-121412000D01*
X177815935Y-121309508D01*
X178301298Y-121108464D01*
X178738113Y-120816594D01*
X178868000Y-120686707D01*
X178868000Y-120990908D01*
X176560617Y-123298292D01*
X176533526Y-123320525D01*
X176511293Y-123347616D01*
X176444801Y-123428637D01*
X176378872Y-123551981D01*
X176338274Y-123685816D01*
X176324565Y-123825000D01*
X176328001Y-123859885D01*
X176328000Y-125655000D01*
X135669101Y-125655000D01*
X135808079Y-125580714D01*
X135918926Y-125303531D01*
X134874000Y-124258605D01*
X133829074Y-125303531D01*
X133939921Y-125580714D01*
X134090512Y-125655000D01*
X130589101Y-125655000D01*
X130728079Y-125580714D01*
X130838926Y-125303531D01*
X129794000Y-124258605D01*
X128749074Y-125303531D01*
X128859921Y-125580714D01*
X129010512Y-125655000D01*
X126909707Y-125655000D01*
X127039594Y-125525113D01*
X127331464Y-125088298D01*
X127532508Y-124602935D01*
X127625258Y-124136650D01*
X128026424Y-124136650D01*
X128071634Y-124480380D01*
X128183034Y-124808685D01*
X128292286Y-125013079D01*
X128569469Y-125123926D01*
X129614395Y-124079000D01*
X129973605Y-124079000D01*
X131018531Y-125123926D01*
X131295714Y-125013079D01*
X131449089Y-124702160D01*
X131538860Y-124367295D01*
X131554004Y-124136650D01*
X133106424Y-124136650D01*
X133151634Y-124480380D01*
X133263034Y-124808685D01*
X133372286Y-125013079D01*
X133649469Y-125123926D01*
X134694395Y-124079000D01*
X135053605Y-124079000D01*
X136098531Y-125123926D01*
X136375714Y-125013079D01*
X136529089Y-124702160D01*
X136618860Y-124367295D01*
X136641576Y-124021350D01*
X136596366Y-123677620D01*
X136484966Y-123349315D01*
X136375714Y-123144921D01*
X136098531Y-123034074D01*
X135053605Y-124079000D01*
X134694395Y-124079000D01*
X133649469Y-123034074D01*
X133372286Y-123144921D01*
X133218911Y-123455840D01*
X133129140Y-123790705D01*
X133106424Y-124136650D01*
X131554004Y-124136650D01*
X131561576Y-124021350D01*
X131516366Y-123677620D01*
X131404966Y-123349315D01*
X131295714Y-123144921D01*
X131018531Y-123034074D01*
X129973605Y-124079000D01*
X129614395Y-124079000D01*
X128569469Y-123034074D01*
X128292286Y-123144921D01*
X128138911Y-123455840D01*
X128049140Y-123790705D01*
X128026424Y-124136650D01*
X127625258Y-124136650D01*
X127635000Y-124087677D01*
X127635000Y-123562323D01*
X127532508Y-123047065D01*
X127452733Y-122854469D01*
X128749074Y-122854469D01*
X129794000Y-123899395D01*
X130838926Y-122854469D01*
X130728079Y-122577286D01*
X130417160Y-122423911D01*
X130082295Y-122334140D01*
X129736350Y-122311424D01*
X129392620Y-122356634D01*
X129064315Y-122468034D01*
X128859921Y-122577286D01*
X128749074Y-122854469D01*
X127452733Y-122854469D01*
X127331464Y-122561702D01*
X127039594Y-122124887D01*
X126668113Y-121753406D01*
X126231298Y-121461536D01*
X126023599Y-121375504D01*
X130674000Y-121375504D01*
X130674000Y-121702496D01*
X130737793Y-122023204D01*
X130862927Y-122325305D01*
X131044594Y-122597188D01*
X131275812Y-122828406D01*
X131547695Y-123010073D01*
X131849796Y-123135207D01*
X132170504Y-123199000D01*
X132497496Y-123199000D01*
X132818204Y-123135207D01*
X133120305Y-123010073D01*
X133353182Y-122854469D01*
X133829074Y-122854469D01*
X134874000Y-123899395D01*
X135918926Y-122854469D01*
X135808079Y-122577286D01*
X135497160Y-122423911D01*
X135162295Y-122334140D01*
X134816350Y-122311424D01*
X134472620Y-122356634D01*
X134144315Y-122468034D01*
X133939921Y-122577286D01*
X133829074Y-122854469D01*
X133353182Y-122854469D01*
X133392188Y-122828406D01*
X133623406Y-122597188D01*
X133805073Y-122325305D01*
X133930207Y-122023204D01*
X133994000Y-121702496D01*
X133994000Y-121375504D01*
X133930207Y-121054796D01*
X133805073Y-120752695D01*
X133623406Y-120480812D01*
X133392188Y-120249594D01*
X133353183Y-120223531D01*
X133829074Y-120223531D01*
X133939921Y-120500714D01*
X134250840Y-120654089D01*
X134585705Y-120743860D01*
X134931650Y-120766576D01*
X135275380Y-120721366D01*
X135603685Y-120609966D01*
X135808079Y-120500714D01*
X135918926Y-120223531D01*
X134874000Y-119178605D01*
X133829074Y-120223531D01*
X133353183Y-120223531D01*
X133120305Y-120067927D01*
X132818204Y-119942793D01*
X132497496Y-119879000D01*
X132170504Y-119879000D01*
X131849796Y-119942793D01*
X131547695Y-120067927D01*
X131275812Y-120249594D01*
X131044594Y-120480812D01*
X130862927Y-120752695D01*
X130737793Y-121054796D01*
X130674000Y-121375504D01*
X126023599Y-121375504D01*
X125745935Y-121260492D01*
X125230677Y-121158000D01*
X124705323Y-121158000D01*
X124190065Y-121260492D01*
X123704702Y-121461536D01*
X123267887Y-121753406D01*
X122896406Y-122124887D01*
X122604536Y-122561702D01*
X122403492Y-123047065D01*
X122301000Y-123562323D01*
X122301000Y-124087677D01*
X122403492Y-124602935D01*
X122604536Y-125088298D01*
X122896406Y-125525113D01*
X123026293Y-125655000D01*
X119318126Y-125655000D01*
X119291694Y-120223531D01*
X128749074Y-120223531D01*
X128859921Y-120500714D01*
X129170840Y-120654089D01*
X129505705Y-120743860D01*
X129851650Y-120766576D01*
X130195380Y-120721366D01*
X130523685Y-120609966D01*
X130728079Y-120500714D01*
X130838926Y-120223531D01*
X129794000Y-119178605D01*
X128749074Y-120223531D01*
X119291694Y-120223531D01*
X119286015Y-119056650D01*
X128026424Y-119056650D01*
X128071634Y-119400380D01*
X128183034Y-119728685D01*
X128292286Y-119933079D01*
X128569469Y-120043926D01*
X129614395Y-118999000D01*
X129973605Y-118999000D01*
X131018531Y-120043926D01*
X131295714Y-119933079D01*
X131449089Y-119622160D01*
X131538860Y-119287295D01*
X131554004Y-119056650D01*
X133106424Y-119056650D01*
X133151634Y-119400380D01*
X133263034Y-119728685D01*
X133372286Y-119933079D01*
X133649469Y-120043926D01*
X134694395Y-118999000D01*
X135053605Y-118999000D01*
X136098531Y-120043926D01*
X136375714Y-119933079D01*
X136529089Y-119622160D01*
X136618860Y-119287295D01*
X136641576Y-118941350D01*
X136596366Y-118597620D01*
X136484966Y-118269315D01*
X136375714Y-118064921D01*
X136098531Y-117954074D01*
X135053605Y-118999000D01*
X134694395Y-118999000D01*
X133649469Y-117954074D01*
X133372286Y-118064921D01*
X133218911Y-118375840D01*
X133129140Y-118710705D01*
X133106424Y-119056650D01*
X131554004Y-119056650D01*
X131561576Y-118941350D01*
X131516366Y-118597620D01*
X131404966Y-118269315D01*
X131295714Y-118064921D01*
X131018531Y-117954074D01*
X129973605Y-118999000D01*
X129614395Y-118999000D01*
X128569469Y-117954074D01*
X128292286Y-118064921D01*
X128138911Y-118375840D01*
X128049140Y-118710705D01*
X128026424Y-119056650D01*
X119286015Y-119056650D01*
X119279776Y-117774469D01*
X128749074Y-117774469D01*
X129794000Y-118819395D01*
X130838926Y-117774469D01*
X133829074Y-117774469D01*
X134874000Y-118819395D01*
X135918926Y-117774469D01*
X135808079Y-117497286D01*
X135497160Y-117343911D01*
X135162295Y-117254140D01*
X134816350Y-117231424D01*
X134472620Y-117276634D01*
X134144315Y-117388034D01*
X133939921Y-117497286D01*
X133829074Y-117774469D01*
X130838926Y-117774469D01*
X130728079Y-117497286D01*
X130417160Y-117343911D01*
X130082295Y-117254140D01*
X129736350Y-117231424D01*
X129392620Y-117276634D01*
X129064315Y-117388034D01*
X128859921Y-117497286D01*
X128749074Y-117774469D01*
X119279776Y-117774469D01*
X119232678Y-108096702D01*
X119230118Y-108071938D01*
X119222775Y-108048149D01*
X119210932Y-108026250D01*
X119195044Y-108007081D01*
X119175723Y-107991381D01*
X119153709Y-107979752D01*
X119129850Y-107972641D01*
X119106039Y-107970321D01*
X111708000Y-107949423D01*
X111708000Y-73735000D01*
X124296293Y-73735000D01*
X124166406Y-73864887D01*
%TA.AperFunction,Conductor*%
D20*
G36*
X124166406Y-73864887D02*
G01*
X123874536Y-74301702D01*
X123673492Y-74787065D01*
X123571000Y-75302323D01*
X123571000Y-75827677D01*
X123673492Y-76342935D01*
X123874536Y-76828298D01*
X124166406Y-77265113D01*
X124537887Y-77636594D01*
X124974702Y-77928464D01*
X125460065Y-78129508D01*
X125975323Y-78232000D01*
X126500677Y-78232000D01*
X127015935Y-78129508D01*
X127501298Y-77928464D01*
X127938113Y-77636594D01*
X128309594Y-77265113D01*
X128601464Y-76828298D01*
X128657001Y-76694219D01*
X128729203Y-76782197D01*
X128957395Y-76969469D01*
X129217737Y-77108625D01*
X129500224Y-77194316D01*
X129794000Y-77223251D01*
X130087777Y-77194316D01*
X130170900Y-77169101D01*
X131383500Y-78381702D01*
X131383501Y-92522988D01*
X131378544Y-92527945D01*
X131276220Y-92681084D01*
X131205738Y-92851244D01*
X131169806Y-93031884D01*
X131169806Y-93216062D01*
X131205738Y-93396702D01*
X131276220Y-93566862D01*
X131378544Y-93720001D01*
X131488143Y-93829600D01*
X120121523Y-93829600D01*
X118203904Y-91911982D01*
X118180101Y-91882979D01*
X118064376Y-91788006D01*
X117932347Y-91717434D01*
X117789086Y-91673977D01*
X117677433Y-91662980D01*
X117677422Y-91662980D01*
X117640100Y-91659304D01*
X117602778Y-91662980D01*
X116489112Y-91662980D01*
X116489112Y-90313140D01*
X116476852Y-90188658D01*
X116440542Y-90068960D01*
X116381577Y-89958646D01*
X116302225Y-89861955D01*
X116205534Y-89782603D01*
X116095220Y-89723638D01*
X115975522Y-89687328D01*
X115851040Y-89675068D01*
X114151040Y-89675068D01*
X114026558Y-89687328D01*
X113906860Y-89723638D01*
X113796546Y-89782603D01*
X113699855Y-89861955D01*
X113620503Y-89958646D01*
X113561538Y-90068960D01*
X113525228Y-90188658D01*
X113512968Y-90313140D01*
X113512968Y-91670524D01*
X113477914Y-91673977D01*
X113334653Y-91717434D01*
X113202624Y-91788006D01*
X113086899Y-91882979D01*
X113063100Y-91911978D01*
X112450418Y-92524661D01*
X112421420Y-92548459D01*
X112397622Y-92577457D01*
X112397621Y-92577458D01*
X112326446Y-92664184D01*
X112255874Y-92796214D01*
X112229768Y-92882277D01*
X112212418Y-92939474D01*
X112201421Y-93051127D01*
X112197744Y-93088460D01*
X112201421Y-93125792D01*
X112201420Y-98341957D01*
X112197744Y-98379280D01*
X112201420Y-98416602D01*
X112201420Y-98416612D01*
X112212417Y-98528265D01*
X112246712Y-98641321D01*
X112255874Y-98671526D01*
X112326446Y-98803556D01*
X112340242Y-98820366D01*
X112421419Y-98919281D01*
X112450423Y-98943084D01*
X112801476Y-99294137D01*
X112825279Y-99323141D01*
X112941004Y-99418114D01*
X113073033Y-99488686D01*
X113216294Y-99532143D01*
X113327947Y-99543140D01*
X113327956Y-99543140D01*
X113365279Y-99546816D01*
X113402602Y-99543140D01*
X113722862Y-99543140D01*
X113847565Y-99729772D01*
X114054408Y-99936615D01*
X114228800Y-100053140D01*
X114054408Y-100169665D01*
X113847565Y-100376508D01*
X113685050Y-100619729D01*
X113573108Y-100889982D01*
X113516040Y-101176880D01*
X113516040Y-101469400D01*
X113573108Y-101756298D01*
X113685050Y-102026551D01*
X113847565Y-102269772D01*
X114054408Y-102476615D01*
X114228800Y-102593140D01*
X114054408Y-102709665D01*
X113847565Y-102916508D01*
X113685050Y-103159729D01*
X113573108Y-103429982D01*
X113516040Y-103716880D01*
X113516040Y-104009400D01*
X113573108Y-104296298D01*
X113685050Y-104566551D01*
X113847565Y-104809772D01*
X114054408Y-105016615D01*
X114297629Y-105179130D01*
X114567882Y-105291072D01*
X114854780Y-105348140D01*
X115147300Y-105348140D01*
X115434198Y-105291072D01*
X115704451Y-105179130D01*
X115947672Y-105016615D01*
X116154515Y-104809772D01*
X116317030Y-104566551D01*
X116428972Y-104296298D01*
X116486040Y-104009400D01*
X116486040Y-103716880D01*
X116428972Y-103429982D01*
X116317030Y-103159729D01*
X116154515Y-102916508D01*
X115947672Y-102709665D01*
X115773280Y-102593140D01*
X115947672Y-102476615D01*
X116154515Y-102269772D01*
X116279218Y-102083140D01*
X134917339Y-102083140D01*
X136400000Y-103565802D01*
X136400001Y-106769668D01*
X136396324Y-106807000D01*
X136400001Y-106844333D01*
X136410998Y-106955986D01*
X136423468Y-106997096D01*
X136454454Y-107099246D01*
X136525026Y-107231276D01*
X136581084Y-107299582D01*
X136620000Y-107347001D01*
X136648998Y-107370799D01*
X138478340Y-109200142D01*
X138502139Y-109229141D01*
X138531137Y-109252939D01*
X138617863Y-109324114D01*
X138706583Y-109371536D01*
X138749893Y-109394686D01*
X138893154Y-109438143D01*
X139004807Y-109449140D01*
X139004817Y-109449140D01*
X139042140Y-109452816D01*
X139079463Y-109449140D01*
X139934457Y-109449140D01*
X139971779Y-109452816D01*
X140009102Y-109449140D01*
X141833759Y-109449140D01*
X143258000Y-110873383D01*
X143258001Y-120094498D01*
X143258000Y-120094508D01*
X143258001Y-122379584D01*
X143181394Y-122420531D01*
X142953203Y-122607803D01*
X142765931Y-122835995D01*
X142748000Y-122869541D01*
X142730069Y-122835994D01*
X142542797Y-122607803D01*
X142314605Y-122420531D01*
X142054263Y-122281375D01*
X141771776Y-122195684D01*
X141478000Y-122166749D01*
X141184223Y-122195684D01*
X140901736Y-122281375D01*
X140641394Y-122420531D01*
X140413203Y-122607803D01*
X140225931Y-122835995D01*
X140208000Y-122869541D01*
X140190069Y-122835994D01*
X140002797Y-122607803D01*
X139774605Y-122420531D01*
X139514263Y-122281375D01*
X139231776Y-122195684D01*
X138938000Y-122166749D01*
X138644223Y-122195684D01*
X138361736Y-122281375D01*
X138101394Y-122420531D01*
X137873203Y-122607803D01*
X137685931Y-122835995D01*
X137546775Y-123096337D01*
X137461084Y-123378824D01*
X137439400Y-123598982D01*
X137439400Y-124051019D01*
X137461084Y-124271177D01*
X137546775Y-124553664D01*
X137685931Y-124814006D01*
X137873203Y-125042197D01*
X138101395Y-125229469D01*
X138361737Y-125368625D01*
X138644224Y-125454316D01*
X138938000Y-125483251D01*
X139231777Y-125454316D01*
X139514264Y-125368625D01*
X139774606Y-125229469D01*
X140002797Y-125042197D01*
X140190069Y-124814006D01*
X140208000Y-124780459D01*
X140225931Y-124814006D01*
X140413203Y-125042197D01*
X140641395Y-125229469D01*
X140901737Y-125368625D01*
X141184224Y-125454316D01*
X141478000Y-125483251D01*
X141771777Y-125454316D01*
X142054264Y-125368625D01*
X142314606Y-125229469D01*
X142542797Y-125042197D01*
X142730069Y-124814006D01*
X142748000Y-124780459D01*
X142765931Y-124814006D01*
X142953203Y-125042197D01*
X143181395Y-125229469D01*
X143441737Y-125368625D01*
X143724224Y-125454316D01*
X144018000Y-125483251D01*
X144311777Y-125454316D01*
X144594264Y-125368625D01*
X144854606Y-125229469D01*
X145082797Y-125042197D01*
X145270069Y-124814006D01*
X145288000Y-124780459D01*
X145305931Y-124814006D01*
X145493203Y-125042197D01*
X145721395Y-125229469D01*
X145981737Y-125368625D01*
X146264224Y-125454316D01*
X146558000Y-125483251D01*
X146851777Y-125454316D01*
X147134264Y-125368625D01*
X147394606Y-125229469D01*
X147622797Y-125042197D01*
X147810069Y-124814006D01*
X147828000Y-124780459D01*
X147845931Y-124814006D01*
X148033203Y-125042197D01*
X148261395Y-125229469D01*
X148521737Y-125368625D01*
X148804224Y-125454316D01*
X149098000Y-125483251D01*
X149391777Y-125454316D01*
X149674264Y-125368625D01*
X149934606Y-125229469D01*
X150162797Y-125042197D01*
X150350069Y-124814006D01*
X150371424Y-124774053D01*
X150519514Y-124976729D01*
X150735965Y-125175733D01*
X150987081Y-125328686D01*
X151263211Y-125429709D01*
X151278974Y-125432358D01*
X151511000Y-125311217D01*
X151511000Y-123952000D01*
X151765000Y-123952000D01*
X151765000Y-125311217D01*
X151997026Y-125432358D01*
X152012789Y-125429709D01*
X152288919Y-125328686D01*
X152540035Y-125175733D01*
X152756486Y-124976729D01*
X152908000Y-124769367D01*
X153059514Y-124976729D01*
X153275965Y-125175733D01*
X153527081Y-125328686D01*
X153803211Y-125429709D01*
X153818974Y-125432358D01*
X154051000Y-125311217D01*
X154051000Y-123952000D01*
X151765000Y-123952000D01*
X151511000Y-123952000D01*
X151491000Y-123952000D01*
X151491000Y-123698000D01*
X151511000Y-123698000D01*
X151511000Y-122338783D01*
X151765000Y-122338783D01*
X151765000Y-123698000D01*
X154051000Y-123698000D01*
X154051000Y-122338783D01*
X154305000Y-122338783D01*
X154305000Y-123698000D01*
X154325000Y-123698000D01*
X154325000Y-123952000D01*
X154305000Y-123952000D01*
X154305000Y-125311217D01*
X154537026Y-125432358D01*
X154552789Y-125429709D01*
X154828919Y-125328686D01*
X155080035Y-125175733D01*
X155296486Y-124976729D01*
X155444576Y-124774053D01*
X155465931Y-124814006D01*
X155653203Y-125042197D01*
X155881395Y-125229469D01*
X156141737Y-125368625D01*
X156424224Y-125454316D01*
X156718000Y-125483251D01*
X157011777Y-125454316D01*
X157294264Y-125368625D01*
X157554606Y-125229469D01*
X157782797Y-125042197D01*
X157970069Y-124814006D01*
X158109225Y-124553663D01*
X158194916Y-124271176D01*
X158216600Y-124051018D01*
X158216600Y-123598981D01*
X158194916Y-123378823D01*
X158109225Y-123096336D01*
X157970069Y-122835994D01*
X157782797Y-122607803D01*
X157554605Y-122420531D01*
X157294263Y-122281375D01*
X157011776Y-122195684D01*
X156718000Y-122166749D01*
X156424223Y-122195684D01*
X156141736Y-122281375D01*
X155881394Y-122420531D01*
X155653203Y-122607803D01*
X155465931Y-122835995D01*
X155444576Y-122875947D01*
X155296486Y-122673271D01*
X155080035Y-122474267D01*
X154828919Y-122321314D01*
X154552789Y-122220291D01*
X154537026Y-122217642D01*
X154305000Y-122338783D01*
X154051000Y-122338783D01*
X153818974Y-122217642D01*
X153803211Y-122220291D01*
X153527081Y-122321314D01*
X153275965Y-122474267D01*
X153059514Y-122673271D01*
X152908000Y-122880633D01*
X152756486Y-122673271D01*
X152540035Y-122474267D01*
X152288919Y-122321314D01*
X152012789Y-122220291D01*
X151997026Y-122217642D01*
X151765000Y-122338783D01*
X151511000Y-122338783D01*
X151278974Y-122217642D01*
X151263211Y-122220291D01*
X150987081Y-122321314D01*
X150735965Y-122474267D01*
X150519514Y-122673271D01*
X150371424Y-122875947D01*
X150350069Y-122835994D01*
X150162797Y-122607803D01*
X149934605Y-122420531D01*
X149674263Y-122281375D01*
X149391776Y-122195684D01*
X149098000Y-122166749D01*
X148804223Y-122195684D01*
X148521736Y-122281375D01*
X148261394Y-122420531D01*
X148033203Y-122607803D01*
X147845931Y-122835995D01*
X147828000Y-122869541D01*
X147810069Y-122835994D01*
X147622797Y-122607803D01*
X147394605Y-122420531D01*
X147318000Y-122379585D01*
X147318000Y-111264491D01*
X147432689Y-111216986D01*
X147535335Y-111148400D01*
X160101439Y-111148400D01*
X161038001Y-112084963D01*
X161038000Y-122379584D01*
X160961394Y-122420531D01*
X160733203Y-122607803D01*
X160545931Y-122835995D01*
X160406775Y-123096337D01*
X160321084Y-123378824D01*
X160299400Y-123598982D01*
X160299400Y-124051019D01*
X160321084Y-124271177D01*
X160406775Y-124553664D01*
X160545931Y-124814006D01*
X160733203Y-125042197D01*
X160961395Y-125229469D01*
X161221737Y-125368625D01*
X161504224Y-125454316D01*
X161798000Y-125483251D01*
X162091777Y-125454316D01*
X162374264Y-125368625D01*
X162634606Y-125229469D01*
X162862797Y-125042197D01*
X163050069Y-124814006D01*
X163068000Y-124780459D01*
X163085931Y-124814006D01*
X163273203Y-125042197D01*
X163501395Y-125229469D01*
X163761737Y-125368625D01*
X164044224Y-125454316D01*
X164338000Y-125483251D01*
X164631777Y-125454316D01*
X164914264Y-125368625D01*
X165174606Y-125229469D01*
X165402797Y-125042197D01*
X165590069Y-124814006D01*
X165608000Y-124780459D01*
X165625931Y-124814006D01*
X165813203Y-125042197D01*
X166041395Y-125229469D01*
X166301737Y-125368625D01*
X166584224Y-125454316D01*
X166878000Y-125483251D01*
X167171777Y-125454316D01*
X167454264Y-125368625D01*
X167714606Y-125229469D01*
X167942797Y-125042197D01*
X168130069Y-124814006D01*
X168148000Y-124780459D01*
X168165931Y-124814006D01*
X168353203Y-125042197D01*
X168581395Y-125229469D01*
X168841737Y-125368625D01*
X169124224Y-125454316D01*
X169418000Y-125483251D01*
X169711777Y-125454316D01*
X169994264Y-125368625D01*
X170254606Y-125229469D01*
X170482797Y-125042197D01*
X170670069Y-124814006D01*
X170688000Y-124780459D01*
X170705931Y-124814006D01*
X170893203Y-125042197D01*
X171121395Y-125229469D01*
X171381737Y-125368625D01*
X171664224Y-125454316D01*
X171958000Y-125483251D01*
X172251777Y-125454316D01*
X172534264Y-125368625D01*
X172794606Y-125229469D01*
X173022797Y-125042197D01*
X173210069Y-124814006D01*
X173228000Y-124780459D01*
X173245931Y-124814006D01*
X173433203Y-125042197D01*
X173661395Y-125229469D01*
X173921737Y-125368625D01*
X174204224Y-125454316D01*
X174498000Y-125483251D01*
X174791777Y-125454316D01*
X175074264Y-125368625D01*
X175334606Y-125229469D01*
X175562797Y-125042197D01*
X175750069Y-124814006D01*
X175889225Y-124553663D01*
X175974916Y-124271176D01*
X175996600Y-124051018D01*
X175996600Y-123598981D01*
X175974916Y-123378823D01*
X175889225Y-123096336D01*
X175750069Y-122835994D01*
X175562797Y-122607803D01*
X175334605Y-122420531D01*
X175258000Y-122379585D01*
X175258000Y-121925150D01*
X175261676Y-121887827D01*
X175258000Y-121850504D01*
X175258000Y-121850495D01*
X175247003Y-121738842D01*
X175203546Y-121595581D01*
X175132974Y-121463552D01*
X175100665Y-121424183D01*
X175061799Y-121376824D01*
X175061795Y-121376820D01*
X175038001Y-121347827D01*
X175009008Y-121324033D01*
X163588773Y-109903800D01*
X166337545Y-109903800D01*
X166440191Y-109972386D01*
X166610351Y-110042868D01*
X166790991Y-110078800D01*
X166975169Y-110078800D01*
X167155809Y-110042868D01*
X167325969Y-109972386D01*
X167479108Y-109870062D01*
X167609342Y-109739828D01*
X167711666Y-109586689D01*
X167782148Y-109416529D01*
X167818080Y-109235889D01*
X167818080Y-109051711D01*
X167782148Y-108871071D01*
X167711666Y-108700911D01*
X167609342Y-108547772D01*
X167479108Y-108417538D01*
X167325969Y-108315214D01*
X167155809Y-108244732D01*
X166975169Y-108208800D01*
X166790991Y-108208800D01*
X166610351Y-108244732D01*
X166440191Y-108315214D01*
X166337545Y-108383800D01*
X163289822Y-108383800D01*
X162636563Y-107730541D01*
X162612478Y-107609461D01*
X162541996Y-107439301D01*
X162439672Y-107286162D01*
X162309438Y-107155928D01*
X162156299Y-107053604D01*
X161986139Y-106983122D01*
X161805499Y-106947190D01*
X161621321Y-106947190D01*
X161440681Y-106983122D01*
X161270521Y-107053604D01*
X161117382Y-107155928D01*
X160987148Y-107286162D01*
X160964698Y-107319760D01*
X160885269Y-107277304D01*
X160742008Y-107233847D01*
X160630355Y-107222850D01*
X160630344Y-107222850D01*
X160593022Y-107219174D01*
X160555700Y-107222850D01*
X149704495Y-107222850D01*
X149601849Y-107154264D01*
X149431689Y-107083782D01*
X149251049Y-107047850D01*
X149066871Y-107047850D01*
X148886231Y-107083782D01*
X148716071Y-107154264D01*
X148562932Y-107256588D01*
X148432698Y-107386822D01*
X148330374Y-107539961D01*
X148264526Y-107698933D01*
X148133449Y-107672860D01*
X147949271Y-107672860D01*
X147768631Y-107708792D01*
X147598471Y-107779274D01*
X147445332Y-107881598D01*
X147315098Y-108011832D01*
X147212774Y-108164971D01*
X147142292Y-108335131D01*
X147106360Y-108515771D01*
X147106360Y-108699949D01*
X147142292Y-108880589D01*
X147212774Y-109050749D01*
X147315098Y-109203888D01*
X147445332Y-109334122D01*
X147598471Y-109436446D01*
X147768631Y-109506928D01*
X147949271Y-109542860D01*
X148133449Y-109542860D01*
X148314089Y-109506928D01*
X148484249Y-109436446D01*
X148586895Y-109367860D01*
X150571357Y-109367860D01*
X150520492Y-109490661D01*
X150493094Y-109628400D01*
X147535335Y-109628400D01*
X147432689Y-109559814D01*
X147262529Y-109489332D01*
X147081889Y-109453400D01*
X146897711Y-109453400D01*
X146717071Y-109489332D01*
X146546911Y-109559814D01*
X146393772Y-109662138D01*
X146263538Y-109792372D01*
X146242029Y-109824562D01*
X141606858Y-105189391D01*
X160795940Y-105189391D01*
X160795940Y-105373569D01*
X160831872Y-105554209D01*
X160902354Y-105724369D01*
X161004678Y-105877508D01*
X161134912Y-106007742D01*
X161288051Y-106110066D01*
X161458211Y-106180548D01*
X161579291Y-106204633D01*
X162456194Y-107081536D01*
X162482279Y-107113321D01*
X162598004Y-107208294D01*
X162730033Y-107278866D01*
X162873294Y-107322323D01*
X163022280Y-107336997D01*
X163059613Y-107333320D01*
X166360405Y-107333320D01*
X166463051Y-107401906D01*
X166633211Y-107472388D01*
X166813851Y-107508320D01*
X166998029Y-107508320D01*
X167178669Y-107472388D01*
X167348829Y-107401906D01*
X167501968Y-107299582D01*
X167632202Y-107169348D01*
X167734526Y-107016209D01*
X167805008Y-106846049D01*
X167840940Y-106665409D01*
X167840940Y-106481231D01*
X167805008Y-106300591D01*
X167734526Y-106130431D01*
X167632202Y-105977292D01*
X167501968Y-105847058D01*
X167348829Y-105744734D01*
X167178669Y-105674252D01*
X166998029Y-105638320D01*
X166813851Y-105638320D01*
X166633211Y-105674252D01*
X166463051Y-105744734D01*
X166360405Y-105813320D01*
X163337582Y-105813320D01*
X162654093Y-105129831D01*
X162630008Y-105008751D01*
X162559526Y-104838591D01*
X162457202Y-104685452D01*
X162326968Y-104555218D01*
X162173829Y-104452894D01*
X162003669Y-104382412D01*
X161823029Y-104346480D01*
X161638851Y-104346480D01*
X161458211Y-104382412D01*
X161288051Y-104452894D01*
X161134912Y-104555218D01*
X161004678Y-104685452D01*
X160902354Y-104838591D01*
X160831872Y-105008751D01*
X160795940Y-105189391D01*
X141606858Y-105189391D01*
X141469143Y-105051677D01*
X141445058Y-104930596D01*
X141374576Y-104760436D01*
X141272252Y-104607297D01*
X141142018Y-104477063D01*
X140988879Y-104374739D01*
X140818719Y-104304257D01*
X140680980Y-104276859D01*
X140680980Y-103802021D01*
X141895840Y-102587161D01*
X160703230Y-102587161D01*
X160703230Y-102771339D01*
X160739162Y-102951979D01*
X160809644Y-103122139D01*
X160911968Y-103275278D01*
X161042202Y-103405512D01*
X161195341Y-103507836D01*
X161365501Y-103578318D01*
X161486581Y-103602403D01*
X162458985Y-104574808D01*
X162482779Y-104603801D01*
X162511772Y-104627595D01*
X162511776Y-104627599D01*
X162534815Y-104646506D01*
X162598504Y-104698774D01*
X162730533Y-104769346D01*
X162873794Y-104812803D01*
X162985447Y-104823800D01*
X162985456Y-104823800D01*
X163022779Y-104827476D01*
X163060102Y-104823800D01*
X166340085Y-104823800D01*
X166442731Y-104892386D01*
X166612891Y-104962868D01*
X166793531Y-104998800D01*
X166977709Y-104998800D01*
X167158349Y-104962868D01*
X167328509Y-104892386D01*
X167481648Y-104790062D01*
X167611882Y-104659828D01*
X167714206Y-104506689D01*
X167784688Y-104336529D01*
X167820620Y-104155889D01*
X167820620Y-103971711D01*
X167784688Y-103791071D01*
X167714206Y-103620911D01*
X167611882Y-103467772D01*
X167481648Y-103337538D01*
X167328509Y-103235214D01*
X167158349Y-103164732D01*
X166977709Y-103128800D01*
X166793531Y-103128800D01*
X166612891Y-103164732D01*
X166442731Y-103235214D01*
X166340085Y-103303800D01*
X163337583Y-103303800D01*
X162561383Y-102527601D01*
X162537298Y-102406521D01*
X162466816Y-102236361D01*
X162364492Y-102083222D01*
X162234258Y-101952988D01*
X162081119Y-101850664D01*
X161910959Y-101780182D01*
X161730319Y-101744250D01*
X161546141Y-101744250D01*
X161365501Y-101780182D01*
X161195341Y-101850664D01*
X161042202Y-101952988D01*
X160911968Y-102083222D01*
X160809644Y-102236361D01*
X160739162Y-102406521D01*
X160703230Y-102587161D01*
X141895840Y-102587161D01*
X145051622Y-99431380D01*
X152080525Y-99431380D01*
X152183171Y-99499966D01*
X152353331Y-99570448D01*
X152533971Y-99606380D01*
X152718149Y-99606380D01*
X152898789Y-99570448D01*
X153068949Y-99499966D01*
X153222088Y-99397642D01*
X153352322Y-99267408D01*
X153454646Y-99114269D01*
X153525128Y-98944109D01*
X153561060Y-98763469D01*
X153561060Y-98579291D01*
X153525128Y-98398651D01*
X153454646Y-98228491D01*
X153352322Y-98075352D01*
X153286201Y-98009231D01*
X156261620Y-98009231D01*
X156261620Y-98193409D01*
X156297552Y-98374049D01*
X156368034Y-98544209D01*
X156470358Y-98697348D01*
X156600592Y-98827582D01*
X156753731Y-98929906D01*
X156923891Y-99000388D01*
X157104531Y-99036320D01*
X157288709Y-99036320D01*
X157469349Y-99000388D01*
X157639509Y-98929906D01*
X157742155Y-98861320D01*
X160783000Y-98861320D01*
X160783000Y-98973029D01*
X160818932Y-99153669D01*
X160889414Y-99323829D01*
X160991738Y-99476968D01*
X161121972Y-99607202D01*
X161275111Y-99709526D01*
X161445271Y-99780008D01*
X161494685Y-99789837D01*
X161429552Y-99833358D01*
X161299318Y-99963592D01*
X161196994Y-100116731D01*
X161126512Y-100286891D01*
X161090580Y-100467531D01*
X161090580Y-100651709D01*
X161126512Y-100832349D01*
X161196994Y-101002509D01*
X161299318Y-101155648D01*
X161429552Y-101285882D01*
X161582691Y-101388206D01*
X161752851Y-101458688D01*
X161851112Y-101478234D01*
X162400061Y-102027183D01*
X162423859Y-102056181D01*
X162539584Y-102151154D01*
X162671613Y-102221726D01*
X162814874Y-102265183D01*
X162926527Y-102276180D01*
X162926536Y-102276180D01*
X162963859Y-102279856D01*
X163001182Y-102276180D01*
X166350245Y-102276180D01*
X166452891Y-102344766D01*
X166623051Y-102415248D01*
X166803691Y-102451180D01*
X166987869Y-102451180D01*
X167168509Y-102415248D01*
X167338669Y-102344766D01*
X167491808Y-102242442D01*
X167622042Y-102112208D01*
X167724366Y-101959069D01*
X167794848Y-101788909D01*
X167830780Y-101608269D01*
X167830780Y-101424091D01*
X167794848Y-101243451D01*
X167724366Y-101073291D01*
X167622042Y-100920152D01*
X167491808Y-100789918D01*
X167338669Y-100687594D01*
X167168509Y-100617112D01*
X166987869Y-100581180D01*
X166803691Y-100581180D01*
X166623051Y-100617112D01*
X166452891Y-100687594D01*
X166350245Y-100756180D01*
X163278662Y-100756180D01*
X162953272Y-100430790D01*
X162924648Y-100286891D01*
X162854166Y-100116731D01*
X162751842Y-99963592D01*
X162621608Y-99833358D01*
X162498979Y-99751420D01*
X166368025Y-99751420D01*
X166470671Y-99820006D01*
X166640831Y-99890488D01*
X166821471Y-99926420D01*
X167005649Y-99926420D01*
X167186289Y-99890488D01*
X167356449Y-99820006D01*
X167509588Y-99717682D01*
X167639822Y-99587448D01*
X167742146Y-99434309D01*
X167812628Y-99264149D01*
X167848560Y-99083509D01*
X167848560Y-98899331D01*
X167840999Y-98861320D01*
X171847839Y-98861320D01*
X172147367Y-99160849D01*
X172171452Y-99281929D01*
X172241934Y-99452089D01*
X172344258Y-99605228D01*
X172474492Y-99735462D01*
X172627631Y-99837786D01*
X172797791Y-99908268D01*
X172978431Y-99944200D01*
X173162609Y-99944200D01*
X173343249Y-99908268D01*
X173513409Y-99837786D01*
X173666548Y-99735462D01*
X173796782Y-99605228D01*
X173899106Y-99452089D01*
X173969588Y-99281929D01*
X174005520Y-99101289D01*
X174005520Y-98917111D01*
X173969588Y-98736471D01*
X173899106Y-98566311D01*
X173796782Y-98413172D01*
X173666548Y-98282938D01*
X173513409Y-98180614D01*
X173343249Y-98110132D01*
X173222169Y-98086047D01*
X172726443Y-97590322D01*
X172702641Y-97561319D01*
X172586916Y-97466346D01*
X172454887Y-97395774D01*
X172311626Y-97352317D01*
X172199973Y-97341320D01*
X172199962Y-97341320D01*
X172162640Y-97337644D01*
X172125318Y-97341320D01*
X157742155Y-97341320D01*
X157639509Y-97272734D01*
X157469349Y-97202252D01*
X157288709Y-97166320D01*
X157104531Y-97166320D01*
X156923891Y-97202252D01*
X156753731Y-97272734D01*
X156600592Y-97375058D01*
X156470358Y-97505292D01*
X156368034Y-97658431D01*
X156297552Y-97828591D01*
X156261620Y-98009231D01*
X153286201Y-98009231D01*
X153222088Y-97945118D01*
X153068949Y-97842794D01*
X152898789Y-97772312D01*
X152718149Y-97736380D01*
X152533971Y-97736380D01*
X152353331Y-97772312D01*
X152183171Y-97842794D01*
X152080525Y-97911380D01*
X148163534Y-97911380D01*
X148240009Y-97896168D01*
X148410169Y-97825686D01*
X148552568Y-97730538D01*
X148627171Y-97780386D01*
X148797331Y-97850868D01*
X148977971Y-97886800D01*
X149162149Y-97886800D01*
X149342789Y-97850868D01*
X149512949Y-97780386D01*
X149666088Y-97678062D01*
X149796322Y-97547828D01*
X149898646Y-97394689D01*
X149969128Y-97224529D01*
X150005060Y-97043889D01*
X150005060Y-96859711D01*
X149969128Y-96679071D01*
X149898646Y-96508911D01*
X149830060Y-96406265D01*
X149830060Y-94586293D01*
X149833737Y-94548960D01*
X149827744Y-94488109D01*
X149819063Y-94399974D01*
X149814820Y-94385986D01*
X149814820Y-88724581D01*
X160306862Y-78232540D01*
X162393138Y-78232540D01*
X162430460Y-78236216D01*
X162467782Y-78232540D01*
X162467793Y-78232540D01*
X162579446Y-78221543D01*
X162722707Y-78178086D01*
X162854736Y-78107514D01*
X162970461Y-78012541D01*
X162994264Y-77983537D01*
X163844171Y-77133631D01*
X164044224Y-77194316D01*
X164338000Y-77223251D01*
X164631777Y-77194316D01*
X164914264Y-77108625D01*
X165174606Y-76969469D01*
X165402797Y-76782197D01*
X165590069Y-76554006D01*
X165608000Y-76520459D01*
X165625931Y-76554006D01*
X165813203Y-76782197D01*
X166041395Y-76969469D01*
X166301737Y-77108625D01*
X166584224Y-77194316D01*
X166878000Y-77223251D01*
X167171777Y-77194316D01*
X167454264Y-77108625D01*
X167714606Y-76969469D01*
X167942797Y-76782197D01*
X168130069Y-76554006D01*
X168148000Y-76520459D01*
X168165931Y-76554006D01*
X168353203Y-76782197D01*
X168581395Y-76969469D01*
X168841737Y-77108625D01*
X169124224Y-77194316D01*
X169418000Y-77223251D01*
X169711777Y-77194316D01*
X169994264Y-77108625D01*
X170254606Y-76969469D01*
X170482797Y-76782197D01*
X170670069Y-76554006D01*
X170688000Y-76520459D01*
X170705931Y-76554006D01*
X170893203Y-76782197D01*
X171121395Y-76969469D01*
X171381737Y-77108625D01*
X171664224Y-77194316D01*
X171958000Y-77223251D01*
X172251777Y-77194316D01*
X172534264Y-77108625D01*
X172794606Y-76969469D01*
X173022797Y-76782197D01*
X173210069Y-76554006D01*
X173228000Y-76520459D01*
X173245931Y-76554006D01*
X173433203Y-76782197D01*
X173661395Y-76969469D01*
X173921737Y-77108625D01*
X174204224Y-77194316D01*
X174498000Y-77223251D01*
X174791777Y-77194316D01*
X175074264Y-77108625D01*
X175334606Y-76969469D01*
X175562797Y-76782197D01*
X175750069Y-76554006D01*
X175889225Y-76293663D01*
X175974916Y-76011176D01*
X175996600Y-75791018D01*
X175996600Y-75338981D01*
X175974916Y-75118823D01*
X175889225Y-74836336D01*
X175750069Y-74575994D01*
X175562797Y-74347803D01*
X175334605Y-74160531D01*
X175074263Y-74021375D01*
X174791776Y-73935684D01*
X174498000Y-73906749D01*
X174204223Y-73935684D01*
X173921736Y-74021375D01*
X173661394Y-74160531D01*
X173433203Y-74347803D01*
X173245931Y-74575995D01*
X173228000Y-74609541D01*
X173210069Y-74575994D01*
X173022797Y-74347803D01*
X172794605Y-74160531D01*
X172534263Y-74021375D01*
X172251776Y-73935684D01*
X171958000Y-73906749D01*
X171664223Y-73935684D01*
X171381736Y-74021375D01*
X171121394Y-74160531D01*
X170893203Y-74347803D01*
X170705931Y-74575995D01*
X170688000Y-74609541D01*
X170670069Y-74575994D01*
X170482797Y-74347803D01*
X170254605Y-74160531D01*
X169994263Y-74021375D01*
X169711776Y-73935684D01*
X169418000Y-73906749D01*
X169124223Y-73935684D01*
X168841736Y-74021375D01*
X168581394Y-74160531D01*
X168353203Y-74347803D01*
X168165931Y-74575995D01*
X168148000Y-74609541D01*
X168130069Y-74575994D01*
X167942797Y-74347803D01*
X167714605Y-74160531D01*
X167454263Y-74021375D01*
X167171776Y-73935684D01*
X166878000Y-73906749D01*
X166584223Y-73935684D01*
X166301736Y-74021375D01*
X166041394Y-74160531D01*
X165813203Y-74347803D01*
X165625931Y-74575995D01*
X165608000Y-74609541D01*
X165590069Y-74575994D01*
X165402797Y-74347803D01*
X165174605Y-74160531D01*
X164914263Y-74021375D01*
X164631776Y-73935684D01*
X164338000Y-73906749D01*
X164044223Y-73935684D01*
X163761736Y-74021375D01*
X163501394Y-74160531D01*
X163273203Y-74347803D01*
X163085931Y-74575995D01*
X163068000Y-74609541D01*
X163050069Y-74575994D01*
X162862797Y-74347803D01*
X162634605Y-74160531D01*
X162374263Y-74021375D01*
X162091776Y-73935684D01*
X161798000Y-73906749D01*
X161504223Y-73935684D01*
X161221736Y-74021375D01*
X160961394Y-74160531D01*
X160733203Y-74347803D01*
X160545931Y-74575995D01*
X160528000Y-74609541D01*
X160510069Y-74575994D01*
X160322797Y-74347803D01*
X160094605Y-74160531D01*
X159834263Y-74021375D01*
X159551776Y-73935684D01*
X159258000Y-73906749D01*
X158964223Y-73935684D01*
X158681736Y-74021375D01*
X158421394Y-74160531D01*
X158193203Y-74347803D01*
X158005931Y-74575995D01*
X157988000Y-74609541D01*
X157970069Y-74575994D01*
X157782797Y-74347803D01*
X157554605Y-74160531D01*
X157294263Y-74021375D01*
X157011776Y-73935684D01*
X156718000Y-73906749D01*
X156424223Y-73935684D01*
X156141736Y-74021375D01*
X155881394Y-74160531D01*
X155653203Y-74347803D01*
X155465931Y-74575995D01*
X155326775Y-74836337D01*
X155241084Y-75118824D01*
X155219400Y-75338982D01*
X155219400Y-75791019D01*
X155241084Y-76011177D01*
X155326775Y-76293664D01*
X155465931Y-76554006D01*
X155653203Y-76782197D01*
X155881395Y-76969469D01*
X155958001Y-77010416D01*
X155958000Y-77976718D01*
X155869454Y-77959105D01*
X155685276Y-77959105D01*
X155504636Y-77995037D01*
X155334476Y-78065519D01*
X155181337Y-78167843D01*
X155051103Y-78298077D01*
X154948779Y-78451216D01*
X154878297Y-78621376D01*
X154842365Y-78802016D01*
X154842365Y-78971406D01*
X154743809Y-78905553D01*
X154573649Y-78835071D01*
X154393009Y-78799139D01*
X154208831Y-78799139D01*
X154028191Y-78835071D01*
X153858031Y-78905553D01*
X153704892Y-79007877D01*
X153574658Y-79138111D01*
X153472334Y-79291250D01*
X153401852Y-79461410D01*
X153382959Y-79556390D01*
X153264844Y-79507466D01*
X153084204Y-79471534D01*
X152900026Y-79471534D01*
X152719386Y-79507466D01*
X152549226Y-79577948D01*
X152396087Y-79680272D01*
X152265853Y-79810506D01*
X152163529Y-79963645D01*
X152093047Y-80133805D01*
X152070193Y-80248697D01*
X151940799Y-80195101D01*
X151760159Y-80159169D01*
X151575981Y-80159169D01*
X151395341Y-80195101D01*
X151225181Y-80265583D01*
X151072042Y-80367907D01*
X150941808Y-80498141D01*
X150839484Y-80651280D01*
X150769002Y-80821440D01*
X150744917Y-80942520D01*
X140824763Y-90862675D01*
X140795759Y-90886478D01*
X140740631Y-90953653D01*
X140700786Y-91002203D01*
X140671109Y-91057725D01*
X140630214Y-91134233D01*
X140586757Y-91277494D01*
X140575760Y-91389147D01*
X140575760Y-91389157D01*
X140572084Y-91426479D01*
X140575760Y-91463802D01*
X140575761Y-93744291D01*
X140519548Y-93688078D01*
X140366409Y-93585754D01*
X140196249Y-93515272D01*
X140015609Y-93479340D01*
X139831431Y-93479340D01*
X139650791Y-93515272D01*
X139480631Y-93585754D01*
X139327492Y-93688078D01*
X139197258Y-93818312D01*
X139189716Y-93829600D01*
X133401955Y-93829600D01*
X133496448Y-93766462D01*
X133626682Y-93636228D01*
X133729006Y-93483089D01*
X133799488Y-93312929D01*
X133835420Y-93132289D01*
X133835420Y-92948111D01*
X133799488Y-92767471D01*
X133729006Y-92597311D01*
X133626682Y-92444172D01*
X133496448Y-92313938D01*
X133353511Y-92218431D01*
X133353511Y-76819362D01*
X133398797Y-76782197D01*
X133586069Y-76554006D01*
X133604000Y-76520459D01*
X133621931Y-76554006D01*
X133809203Y-76782197D01*
X134037395Y-76969469D01*
X134297737Y-77108625D01*
X134580224Y-77194316D01*
X134874000Y-77223251D01*
X135167777Y-77194316D01*
X135450264Y-77108625D01*
X135710606Y-76969469D01*
X135938797Y-76782197D01*
X136126069Y-76554006D01*
X136147424Y-76514053D01*
X136295514Y-76716729D01*
X136511965Y-76915733D01*
X136763081Y-77068686D01*
X137039211Y-77169709D01*
X137054974Y-77172358D01*
X137287000Y-77051217D01*
X137287000Y-75692000D01*
X137267000Y-75692000D01*
X137267000Y-75438000D01*
X137287000Y-75438000D01*
X137287000Y-74078783D01*
X137541000Y-74078783D01*
X137541000Y-75438000D01*
X137561000Y-75438000D01*
X137561000Y-75692000D01*
X137541000Y-75692000D01*
X137541000Y-77051217D01*
X137773026Y-77172358D01*
X137788789Y-77169709D01*
X138064919Y-77068686D01*
X138316035Y-76915733D01*
X138532486Y-76716729D01*
X138680576Y-76514053D01*
X138701931Y-76554006D01*
X138889203Y-76782197D01*
X139117395Y-76969469D01*
X139377737Y-77108625D01*
X139660224Y-77194316D01*
X139954000Y-77223251D01*
X140247777Y-77194316D01*
X140530264Y-77108625D01*
X140790606Y-76969469D01*
X141018797Y-76782197D01*
X141206069Y-76554006D01*
X141224000Y-76520459D01*
X141241931Y-76554006D01*
X141429203Y-76782197D01*
X141657395Y-76969469D01*
X141917737Y-77108625D01*
X142200224Y-77194316D01*
X142494000Y-77223251D01*
X142787777Y-77194316D01*
X143070264Y-77108625D01*
X143330606Y-76969469D01*
X143558797Y-76782197D01*
X143746069Y-76554006D01*
X143764000Y-76520459D01*
X143781931Y-76554006D01*
X143969203Y-76782197D01*
X144197395Y-76969469D01*
X144457737Y-77108625D01*
X144740224Y-77194316D01*
X145034000Y-77223251D01*
X145327777Y-77194316D01*
X145610264Y-77108625D01*
X145870606Y-76969469D01*
X146098797Y-76782197D01*
X146286069Y-76554006D01*
X146304000Y-76520459D01*
X146321931Y-76554006D01*
X146509203Y-76782197D01*
X146737395Y-76969469D01*
X146997737Y-77108625D01*
X147280224Y-77194316D01*
X147574000Y-77223251D01*
X147867777Y-77194316D01*
X148150264Y-77108625D01*
X148410606Y-76969469D01*
X148638797Y-76782197D01*
X148826069Y-76554006D01*
X148844000Y-76520459D01*
X148861931Y-76554006D01*
X149049203Y-76782197D01*
X149277395Y-76969469D01*
X149537737Y-77108625D01*
X149820224Y-77194316D01*
X150114000Y-77223251D01*
X150407777Y-77194316D01*
X150690264Y-77108625D01*
X150950606Y-76969469D01*
X151178797Y-76782197D01*
X151366069Y-76554006D01*
X151384000Y-76520459D01*
X151401931Y-76554006D01*
X151589203Y-76782197D01*
X151817395Y-76969469D01*
X152077737Y-77108625D01*
X152360224Y-77194316D01*
X152654000Y-77223251D01*
X152947777Y-77194316D01*
X153230264Y-77108625D01*
X153490606Y-76969469D01*
X153718797Y-76782197D01*
X153906069Y-76554006D01*
X154045225Y-76293663D01*
X154130916Y-76011176D01*
X154152600Y-75791018D01*
X154152600Y-75338981D01*
X154130916Y-75118823D01*
X154045225Y-74836336D01*
X153906069Y-74575994D01*
X153718797Y-74347803D01*
X153490605Y-74160531D01*
X153230263Y-74021375D01*
X152947776Y-73935684D01*
X152654000Y-73906749D01*
X152360223Y-73935684D01*
X152077736Y-74021375D01*
X151817394Y-74160531D01*
X151589203Y-74347803D01*
X151401931Y-74575995D01*
X151384000Y-74609541D01*
X151366069Y-74575994D01*
X151178797Y-74347803D01*
X150950605Y-74160531D01*
X150690263Y-74021375D01*
X150407776Y-73935684D01*
X150114000Y-73906749D01*
X149820223Y-73935684D01*
X149537736Y-74021375D01*
X149277394Y-74160531D01*
X149049203Y-74347803D01*
X148861931Y-74575995D01*
X148844000Y-74609541D01*
X148826069Y-74575994D01*
X148638797Y-74347803D01*
X148410605Y-74160531D01*
X148150263Y-74021375D01*
X147867776Y-73935684D01*
X147574000Y-73906749D01*
X147280223Y-73935684D01*
X146997736Y-74021375D01*
X146737394Y-74160531D01*
X146509203Y-74347803D01*
X146321931Y-74575995D01*
X146304000Y-74609541D01*
X146286069Y-74575994D01*
X146098797Y-74347803D01*
X145870605Y-74160531D01*
X145610263Y-74021375D01*
X145327776Y-73935684D01*
X145034000Y-73906749D01*
X144740223Y-73935684D01*
X144457736Y-74021375D01*
X144197394Y-74160531D01*
X143969203Y-74347803D01*
X143781931Y-74575995D01*
X143764000Y-74609541D01*
X143746069Y-74575994D01*
X143558797Y-74347803D01*
X143330605Y-74160531D01*
X143070263Y-74021375D01*
X142787776Y-73935684D01*
X142494000Y-73906749D01*
X142200223Y-73935684D01*
X141917736Y-74021375D01*
X141657394Y-74160531D01*
X141429203Y-74347803D01*
X141241931Y-74575995D01*
X141224000Y-74609541D01*
X141206069Y-74575994D01*
X141018797Y-74347803D01*
X140790605Y-74160531D01*
X140530263Y-74021375D01*
X140247776Y-73935684D01*
X139954000Y-73906749D01*
X139660223Y-73935684D01*
X139377736Y-74021375D01*
X139117394Y-74160531D01*
X138889203Y-74347803D01*
X138701931Y-74575995D01*
X138680576Y-74615947D01*
X138532486Y-74413271D01*
X138316035Y-74214267D01*
X138064919Y-74061314D01*
X137788789Y-73960291D01*
X137773026Y-73957642D01*
X137541000Y-74078783D01*
X137287000Y-74078783D01*
X137054974Y-73957642D01*
X137039211Y-73960291D01*
X136763081Y-74061314D01*
X136511965Y-74214267D01*
X136295514Y-74413271D01*
X136147424Y-74615947D01*
X136126069Y-74575994D01*
X135938797Y-74347803D01*
X135710605Y-74160531D01*
X135450263Y-74021375D01*
X135167776Y-73935684D01*
X134874000Y-73906749D01*
X134580223Y-73935684D01*
X134297736Y-74021375D01*
X134037394Y-74160531D01*
X133809203Y-74347803D01*
X133621931Y-74575995D01*
X133604000Y-74609541D01*
X133586069Y-74575994D01*
X133398797Y-74347803D01*
X133170605Y-74160531D01*
X132910263Y-74021375D01*
X132627776Y-73935684D01*
X132334000Y-73906749D01*
X132040223Y-73935684D01*
X131757736Y-74021375D01*
X131497394Y-74160531D01*
X131269203Y-74347803D01*
X131081931Y-74575995D01*
X131064000Y-74609541D01*
X131046069Y-74575994D01*
X130858797Y-74347803D01*
X130630605Y-74160531D01*
X130370263Y-74021375D01*
X130087776Y-73935684D01*
X129794000Y-73906749D01*
X129500223Y-73935684D01*
X129217736Y-74021375D01*
X128957394Y-74160531D01*
X128729203Y-74347803D01*
X128657001Y-74435781D01*
X128601464Y-74301702D01*
X128309594Y-73864887D01*
X128179707Y-73735000D01*
X175219909Y-73735000D01*
X176328001Y-74843093D01*
X176328000Y-85944125D01*
X176324565Y-85979000D01*
X176328000Y-86013875D01*
X176328000Y-86013876D01*
X176338273Y-86118183D01*
X176378872Y-86252019D01*
X176444800Y-86375362D01*
X176533525Y-86483474D01*
X176560617Y-86505708D01*
X178868001Y-88813093D01*
X178868001Y-88863294D01*
X178738113Y-88733406D01*
X178301298Y-88441536D01*
X177815935Y-88240492D01*
X177300677Y-88138000D01*
X176775323Y-88138000D01*
X176260065Y-88240492D01*
X175774702Y-88441536D01*
X175337887Y-88733406D01*
X174966406Y-89104887D01*
X174674536Y-89541702D01*
X174473492Y-90027065D01*
X174371000Y-90542323D01*
X174371000Y-91067677D01*
X174473492Y-91582935D01*
X174674536Y-92068298D01*
X174966406Y-92505113D01*
X175337887Y-92876594D01*
X175774702Y-93168464D01*
X176260065Y-93369508D01*
X176775323Y-93472000D01*
X177300677Y-93472000D01*
X177815935Y-93369508D01*
X178301298Y-93168464D01*
X178738113Y-92876594D01*
X178868001Y-92746706D01*
X178868000Y-116803293D01*
X178738113Y-116673406D01*
X178301298Y-116381536D01*
X177815935Y-116180492D01*
X177300677Y-116078000D01*
X176775323Y-116078000D01*
X176260065Y-116180492D01*
X175774702Y-116381536D01*
X175337887Y-116673406D01*
X174966406Y-117044887D01*
X174674536Y-117481702D01*
X174473492Y-117967065D01*
X174371000Y-118482323D01*
X174371000Y-119007677D01*
X174473492Y-119522935D01*
X174674536Y-120008298D01*
X174966406Y-120445113D01*
X175337887Y-120816594D01*
X175774702Y-121108464D01*
X176260065Y-121309508D01*
X176775323Y-121412000D01*
X177300677Y-121412000D01*
X177815935Y-121309508D01*
X178301298Y-121108464D01*
X178738113Y-120816594D01*
X178868000Y-120686707D01*
X178868000Y-120990908D01*
X176560617Y-123298292D01*
X176533526Y-123320525D01*
X176511293Y-123347616D01*
X176444801Y-123428637D01*
X176378872Y-123551981D01*
X176338274Y-123685816D01*
X176324565Y-123825000D01*
X176328001Y-123859885D01*
X176328000Y-125655000D01*
X135669101Y-125655000D01*
X135808079Y-125580714D01*
X135918926Y-125303531D01*
X134874000Y-124258605D01*
X133829074Y-125303531D01*
X133939921Y-125580714D01*
X134090512Y-125655000D01*
X130589101Y-125655000D01*
X130728079Y-125580714D01*
X130838926Y-125303531D01*
X129794000Y-124258605D01*
X128749074Y-125303531D01*
X128859921Y-125580714D01*
X129010512Y-125655000D01*
X126909707Y-125655000D01*
X127039594Y-125525113D01*
X127331464Y-125088298D01*
X127532508Y-124602935D01*
X127625258Y-124136650D01*
X128026424Y-124136650D01*
X128071634Y-124480380D01*
X128183034Y-124808685D01*
X128292286Y-125013079D01*
X128569469Y-125123926D01*
X129614395Y-124079000D01*
X129973605Y-124079000D01*
X131018531Y-125123926D01*
X131295714Y-125013079D01*
X131449089Y-124702160D01*
X131538860Y-124367295D01*
X131554004Y-124136650D01*
X133106424Y-124136650D01*
X133151634Y-124480380D01*
X133263034Y-124808685D01*
X133372286Y-125013079D01*
X133649469Y-125123926D01*
X134694395Y-124079000D01*
X135053605Y-124079000D01*
X136098531Y-125123926D01*
X136375714Y-125013079D01*
X136529089Y-124702160D01*
X136618860Y-124367295D01*
X136641576Y-124021350D01*
X136596366Y-123677620D01*
X136484966Y-123349315D01*
X136375714Y-123144921D01*
X136098531Y-123034074D01*
X135053605Y-124079000D01*
X134694395Y-124079000D01*
X133649469Y-123034074D01*
X133372286Y-123144921D01*
X133218911Y-123455840D01*
X133129140Y-123790705D01*
X133106424Y-124136650D01*
X131554004Y-124136650D01*
X131561576Y-124021350D01*
X131516366Y-123677620D01*
X131404966Y-123349315D01*
X131295714Y-123144921D01*
X131018531Y-123034074D01*
X129973605Y-124079000D01*
X129614395Y-124079000D01*
X128569469Y-123034074D01*
X128292286Y-123144921D01*
X128138911Y-123455840D01*
X128049140Y-123790705D01*
X128026424Y-124136650D01*
X127625258Y-124136650D01*
X127635000Y-124087677D01*
X127635000Y-123562323D01*
X127532508Y-123047065D01*
X127452733Y-122854469D01*
X128749074Y-122854469D01*
X129794000Y-123899395D01*
X130838926Y-122854469D01*
X130728079Y-122577286D01*
X130417160Y-122423911D01*
X130082295Y-122334140D01*
X129736350Y-122311424D01*
X129392620Y-122356634D01*
X129064315Y-122468034D01*
X128859921Y-122577286D01*
X128749074Y-122854469D01*
X127452733Y-122854469D01*
X127331464Y-122561702D01*
X127039594Y-122124887D01*
X126668113Y-121753406D01*
X126231298Y-121461536D01*
X126023599Y-121375504D01*
X130674000Y-121375504D01*
X130674000Y-121702496D01*
X130737793Y-122023204D01*
X130862927Y-122325305D01*
X131044594Y-122597188D01*
X131275812Y-122828406D01*
X131547695Y-123010073D01*
X131849796Y-123135207D01*
X132170504Y-123199000D01*
X132497496Y-123199000D01*
X132818204Y-123135207D01*
X133120305Y-123010073D01*
X133353182Y-122854469D01*
X133829074Y-122854469D01*
X134874000Y-123899395D01*
X135918926Y-122854469D01*
X135808079Y-122577286D01*
X135497160Y-122423911D01*
X135162295Y-122334140D01*
X134816350Y-122311424D01*
X134472620Y-122356634D01*
X134144315Y-122468034D01*
X133939921Y-122577286D01*
X133829074Y-122854469D01*
X133353182Y-122854469D01*
X133392188Y-122828406D01*
X133623406Y-122597188D01*
X133805073Y-122325305D01*
X133930207Y-122023204D01*
X133994000Y-121702496D01*
X133994000Y-121375504D01*
X133930207Y-121054796D01*
X133805073Y-120752695D01*
X133623406Y-120480812D01*
X133392188Y-120249594D01*
X133353183Y-120223531D01*
X133829074Y-120223531D01*
X133939921Y-120500714D01*
X134250840Y-120654089D01*
X134585705Y-120743860D01*
X134931650Y-120766576D01*
X135275380Y-120721366D01*
X135603685Y-120609966D01*
X135808079Y-120500714D01*
X135918926Y-120223531D01*
X134874000Y-119178605D01*
X133829074Y-120223531D01*
X133353183Y-120223531D01*
X133120305Y-120067927D01*
X132818204Y-119942793D01*
X132497496Y-119879000D01*
X132170504Y-119879000D01*
X131849796Y-119942793D01*
X131547695Y-120067927D01*
X131275812Y-120249594D01*
X131044594Y-120480812D01*
X130862927Y-120752695D01*
X130737793Y-121054796D01*
X130674000Y-121375504D01*
X126023599Y-121375504D01*
X125745935Y-121260492D01*
X125230677Y-121158000D01*
X124705323Y-121158000D01*
X124190065Y-121260492D01*
X123704702Y-121461536D01*
X123267887Y-121753406D01*
X122896406Y-122124887D01*
X122604536Y-122561702D01*
X122403492Y-123047065D01*
X122301000Y-123562323D01*
X122301000Y-124087677D01*
X122403492Y-124602935D01*
X122604536Y-125088298D01*
X122896406Y-125525113D01*
X123026293Y-125655000D01*
X119318126Y-125655000D01*
X119291694Y-120223531D01*
X128749074Y-120223531D01*
X128859921Y-120500714D01*
X129170840Y-120654089D01*
X129505705Y-120743860D01*
X129851650Y-120766576D01*
X130195380Y-120721366D01*
X130523685Y-120609966D01*
X130728079Y-120500714D01*
X130838926Y-120223531D01*
X129794000Y-119178605D01*
X128749074Y-120223531D01*
X119291694Y-120223531D01*
X119286015Y-119056650D01*
X128026424Y-119056650D01*
X128071634Y-119400380D01*
X128183034Y-119728685D01*
X128292286Y-119933079D01*
X128569469Y-120043926D01*
X129614395Y-118999000D01*
X129973605Y-118999000D01*
X131018531Y-120043926D01*
X131295714Y-119933079D01*
X131449089Y-119622160D01*
X131538860Y-119287295D01*
X131554004Y-119056650D01*
X133106424Y-119056650D01*
X133151634Y-119400380D01*
X133263034Y-119728685D01*
X133372286Y-119933079D01*
X133649469Y-120043926D01*
X134694395Y-118999000D01*
X135053605Y-118999000D01*
X136098531Y-120043926D01*
X136375714Y-119933079D01*
X136529089Y-119622160D01*
X136618860Y-119287295D01*
X136641576Y-118941350D01*
X136596366Y-118597620D01*
X136484966Y-118269315D01*
X136375714Y-118064921D01*
X136098531Y-117954074D01*
X135053605Y-118999000D01*
X134694395Y-118999000D01*
X133649469Y-117954074D01*
X133372286Y-118064921D01*
X133218911Y-118375840D01*
X133129140Y-118710705D01*
X133106424Y-119056650D01*
X131554004Y-119056650D01*
X131561576Y-118941350D01*
X131516366Y-118597620D01*
X131404966Y-118269315D01*
X131295714Y-118064921D01*
X131018531Y-117954074D01*
X129973605Y-118999000D01*
X129614395Y-118999000D01*
X128569469Y-117954074D01*
X128292286Y-118064921D01*
X128138911Y-118375840D01*
X128049140Y-118710705D01*
X128026424Y-119056650D01*
X119286015Y-119056650D01*
X119279776Y-117774469D01*
X128749074Y-117774469D01*
X129794000Y-118819395D01*
X130838926Y-117774469D01*
X133829074Y-117774469D01*
X134874000Y-118819395D01*
X135918926Y-117774469D01*
X135808079Y-117497286D01*
X135497160Y-117343911D01*
X135162295Y-117254140D01*
X134816350Y-117231424D01*
X134472620Y-117276634D01*
X134144315Y-117388034D01*
X133939921Y-117497286D01*
X133829074Y-117774469D01*
X130838926Y-117774469D01*
X130728079Y-117497286D01*
X130417160Y-117343911D01*
X130082295Y-117254140D01*
X129736350Y-117231424D01*
X129392620Y-117276634D01*
X129064315Y-117388034D01*
X128859921Y-117497286D01*
X128749074Y-117774469D01*
X119279776Y-117774469D01*
X119232678Y-108096702D01*
X119230118Y-108071938D01*
X119222775Y-108048149D01*
X119210932Y-108026250D01*
X119195044Y-108007081D01*
X119175723Y-107991381D01*
X119153709Y-107979752D01*
X119129850Y-107972641D01*
X119106039Y-107970321D01*
X111708000Y-107949423D01*
X111708000Y-73735000D01*
X124296293Y-73735000D01*
X124166406Y-73864887D01*
G37*
%TD.AperFunction*%
D19*
X116403994Y-96004083D02*
X116552980Y-96018757D01*
X116590313Y-96015080D01*
X139510065Y-96015080D01*
X139612711Y-96083666D01*
X139782871Y-96154148D01*
X139963511Y-96190080D01*
X140147689Y-96190080D01*
X140328329Y-96154148D01*
X140498489Y-96083666D01*
X140583380Y-96026944D01*
X140583380Y-96350384D01*
X140514794Y-96453031D01*
X140444312Y-96623191D01*
X140408380Y-96803831D01*
X140408380Y-96988009D01*
X140444312Y-97168649D01*
X140514794Y-97338809D01*
X140617118Y-97491948D01*
X140747352Y-97622182D01*
X140900491Y-97724506D01*
X141070651Y-97794988D01*
X141251291Y-97830920D01*
X141435469Y-97830920D01*
X141616109Y-97794988D01*
X141786269Y-97724506D01*
X141882551Y-97660173D01*
X142028251Y-97757526D01*
X142198411Y-97828008D01*
X142379051Y-97863940D01*
X142563229Y-97863940D01*
X142743869Y-97828008D01*
X142914029Y-97757526D01*
X143021050Y-97686017D01*
X143128071Y-97757526D01*
X143298231Y-97828008D01*
X143478871Y-97863940D01*
X143663049Y-97863940D01*
X143843689Y-97828008D01*
X144013849Y-97757526D01*
X144137346Y-97675008D01*
X144230431Y-97737206D01*
X144400591Y-97807688D01*
X144581231Y-97843620D01*
X144765409Y-97843620D01*
X144946049Y-97807688D01*
X145116209Y-97737206D01*
X145202944Y-97679251D01*
X145320091Y-97757526D01*
X145490251Y-97828008D01*
X145670891Y-97863940D01*
X145855069Y-97863940D01*
X146035709Y-97828008D01*
X146205869Y-97757526D01*
X146292630Y-97699554D01*
X146432611Y-97793086D01*
X146602771Y-97863568D01*
X146783411Y-97899500D01*
X146967589Y-97899500D01*
X147148229Y-97863568D01*
X147318389Y-97793086D01*
X147396995Y-97740563D01*
X147524391Y-97825686D01*
X147694551Y-97896168D01*
X147771026Y-97911380D01*
X144774142Y-97911380D01*
X144736819Y-97907704D01*
X144699496Y-97911380D01*
X144699487Y-97911380D01*
X144587834Y-97922377D01*
X144444573Y-97965834D01*
X144312544Y-98036406D01*
X144196819Y-98131379D01*
X144173021Y-98160377D01*
X139409983Y-102923416D01*
X139380979Y-102947219D01*
X139325851Y-103014394D01*
X139286006Y-103062944D01*
X139250805Y-103128800D01*
X139215434Y-103194974D01*
X139171977Y-103338235D01*
X139160980Y-103449888D01*
X139160980Y-103449898D01*
X139157304Y-103487220D01*
X139160980Y-103524543D01*
X139160981Y-107733179D01*
X137920000Y-106492199D01*
X137920000Y-103288325D01*
X137923676Y-103251000D01*
X137920000Y-103213675D01*
X137920000Y-103213667D01*
X137909003Y-103102014D01*
X137865546Y-102958753D01*
X137794974Y-102826724D01*
X137700001Y-102710999D01*
X137671004Y-102687202D01*
X135795944Y-100812143D01*
X135772141Y-100783139D01*
X135656416Y-100688166D01*
X135524387Y-100617594D01*
X135381126Y-100574137D01*
X135269473Y-100563140D01*
X135269462Y-100563140D01*
X135232140Y-100559464D01*
X135194818Y-100563140D01*
X116279218Y-100563140D01*
X116154515Y-100376508D01*
X115947672Y-100169665D01*
X115773280Y-100053140D01*
X115947672Y-99936615D01*
X116154515Y-99729772D01*
X116317030Y-99486551D01*
X116428972Y-99216298D01*
X116486040Y-98929400D01*
X116486040Y-98636880D01*
X116428972Y-98349982D01*
X116317030Y-98079729D01*
X116154515Y-97836508D01*
X115947672Y-97629665D01*
X115765506Y-97507945D01*
X115882395Y-97438318D01*
X116098628Y-97243409D01*
X116272681Y-97010060D01*
X116397865Y-96747239D01*
X116442516Y-96600030D01*
X116321195Y-96370140D01*
X115128040Y-96370140D01*
X115128040Y-96390140D01*
X114874040Y-96390140D01*
X114874040Y-96370140D01*
X114854040Y-96370140D01*
X114854040Y-96116140D01*
X114874040Y-96116140D01*
X114874040Y-96096140D01*
X115128040Y-96096140D01*
X115128040Y-96116140D01*
X116321195Y-96116140D01*
X116383597Y-95997896D01*
X116403994Y-96004083D01*
%TA.AperFunction,Conductor*%
D20*
G36*
X116403994Y-96004083D02*
G01*
X116552980Y-96018757D01*
X116590313Y-96015080D01*
X139510065Y-96015080D01*
X139612711Y-96083666D01*
X139782871Y-96154148D01*
X139963511Y-96190080D01*
X140147689Y-96190080D01*
X140328329Y-96154148D01*
X140498489Y-96083666D01*
X140583380Y-96026944D01*
X140583380Y-96350384D01*
X140514794Y-96453031D01*
X140444312Y-96623191D01*
X140408380Y-96803831D01*
X140408380Y-96988009D01*
X140444312Y-97168649D01*
X140514794Y-97338809D01*
X140617118Y-97491948D01*
X140747352Y-97622182D01*
X140900491Y-97724506D01*
X141070651Y-97794988D01*
X141251291Y-97830920D01*
X141435469Y-97830920D01*
X141616109Y-97794988D01*
X141786269Y-97724506D01*
X141882551Y-97660173D01*
X142028251Y-97757526D01*
X142198411Y-97828008D01*
X142379051Y-97863940D01*
X142563229Y-97863940D01*
X142743869Y-97828008D01*
X142914029Y-97757526D01*
X143021050Y-97686017D01*
X143128071Y-97757526D01*
X143298231Y-97828008D01*
X143478871Y-97863940D01*
X143663049Y-97863940D01*
X143843689Y-97828008D01*
X144013849Y-97757526D01*
X144137346Y-97675008D01*
X144230431Y-97737206D01*
X144400591Y-97807688D01*
X144581231Y-97843620D01*
X144765409Y-97843620D01*
X144946049Y-97807688D01*
X145116209Y-97737206D01*
X145202944Y-97679251D01*
X145320091Y-97757526D01*
X145490251Y-97828008D01*
X145670891Y-97863940D01*
X145855069Y-97863940D01*
X146035709Y-97828008D01*
X146205869Y-97757526D01*
X146292630Y-97699554D01*
X146432611Y-97793086D01*
X146602771Y-97863568D01*
X146783411Y-97899500D01*
X146967589Y-97899500D01*
X147148229Y-97863568D01*
X147318389Y-97793086D01*
X147396995Y-97740563D01*
X147524391Y-97825686D01*
X147694551Y-97896168D01*
X147771026Y-97911380D01*
X144774142Y-97911380D01*
X144736819Y-97907704D01*
X144699496Y-97911380D01*
X144699487Y-97911380D01*
X144587834Y-97922377D01*
X144444573Y-97965834D01*
X144312544Y-98036406D01*
X144196819Y-98131379D01*
X144173021Y-98160377D01*
X139409983Y-102923416D01*
X139380979Y-102947219D01*
X139325851Y-103014394D01*
X139286006Y-103062944D01*
X139250805Y-103128800D01*
X139215434Y-103194974D01*
X139171977Y-103338235D01*
X139160980Y-103449888D01*
X139160980Y-103449898D01*
X139157304Y-103487220D01*
X139160980Y-103524543D01*
X139160981Y-107733179D01*
X137920000Y-106492199D01*
X137920000Y-103288325D01*
X137923676Y-103251000D01*
X137920000Y-103213675D01*
X137920000Y-103213667D01*
X137909003Y-103102014D01*
X137865546Y-102958753D01*
X137794974Y-102826724D01*
X137700001Y-102710999D01*
X137671004Y-102687202D01*
X135795944Y-100812143D01*
X135772141Y-100783139D01*
X135656416Y-100688166D01*
X135524387Y-100617594D01*
X135381126Y-100574137D01*
X135269473Y-100563140D01*
X135269462Y-100563140D01*
X135232140Y-100559464D01*
X135194818Y-100563140D01*
X116279218Y-100563140D01*
X116154515Y-100376508D01*
X115947672Y-100169665D01*
X115773280Y-100053140D01*
X115947672Y-99936615D01*
X116154515Y-99729772D01*
X116317030Y-99486551D01*
X116428972Y-99216298D01*
X116486040Y-98929400D01*
X116486040Y-98636880D01*
X116428972Y-98349982D01*
X116317030Y-98079729D01*
X116154515Y-97836508D01*
X115947672Y-97629665D01*
X115765506Y-97507945D01*
X115882395Y-97438318D01*
X116098628Y-97243409D01*
X116272681Y-97010060D01*
X116397865Y-96747239D01*
X116442516Y-96600030D01*
X116321195Y-96370140D01*
X115128040Y-96370140D01*
X115128040Y-96390140D01*
X114874040Y-96390140D01*
X114874040Y-96370140D01*
X114854040Y-96370140D01*
X114854040Y-96116140D01*
X114874040Y-96116140D01*
X114874040Y-96096140D01*
X115128040Y-96096140D01*
X115128040Y-96116140D01*
X116321195Y-96116140D01*
X116383597Y-95997896D01*
X116403994Y-96004083D01*
G37*
%TD.AperFunction*%
%TD*%
M02*
