%TF.GenerationSoftware,KiCad,Pcbnew,(5.1.7)-1*%
%TF.CreationDate,2020-11-28T10:02:44+01:00*%
%TF.ProjectId,Rhizo_Receiver_Shield,5268697a-6f5f-4526-9563-65697665725f,rev?*%
%TF.SameCoordinates,Original*%
%TF.FileFunction,Paste,Top*%
%TF.FilePolarity,Positive*%
%FSLAX46Y46*%
G04 Gerber Fmt 4.6, Leading zero omitted, Abs format (unit mm)*
G04 Created by KiCad (PCBNEW (5.1.7)-1) date 2020-11-28 10:02:44*
%MOMM*%
%LPD*%
G01*
G04 APERTURE LIST*
%ADD10R,3.200000X1.000000*%
%ADD11R,2.160000X1.120000*%
G04 APERTURE END LIST*
%TO.C,C18*%
G36*
G01*
X158384120Y-94077800D02*
X158384120Y-93602800D01*
G75*
G02*
X158621620Y-93365300I237500J0D01*
G01*
X159221620Y-93365300D01*
G75*
G02*
X159459120Y-93602800I0J-237500D01*
G01*
X159459120Y-94077800D01*
G75*
G02*
X159221620Y-94315300I-237500J0D01*
G01*
X158621620Y-94315300D01*
G75*
G02*
X158384120Y-94077800I0J237500D01*
G01*
G37*
G36*
G01*
X156659120Y-94077800D02*
X156659120Y-93602800D01*
G75*
G02*
X156896620Y-93365300I237500J0D01*
G01*
X157496620Y-93365300D01*
G75*
G02*
X157734120Y-93602800I0J-237500D01*
G01*
X157734120Y-94077800D01*
G75*
G02*
X157496620Y-94315300I-237500J0D01*
G01*
X156896620Y-94315300D01*
G75*
G02*
X156659120Y-94077800I0J237500D01*
G01*
G37*
%TD*%
%TO.C,C16*%
G36*
G01*
X158405880Y-96950540D02*
X158405880Y-96475540D01*
G75*
G02*
X158643380Y-96238040I237500J0D01*
G01*
X159243380Y-96238040D01*
G75*
G02*
X159480880Y-96475540I0J-237500D01*
G01*
X159480880Y-96950540D01*
G75*
G02*
X159243380Y-97188040I-237500J0D01*
G01*
X158643380Y-97188040D01*
G75*
G02*
X158405880Y-96950540I0J237500D01*
G01*
G37*
G36*
G01*
X156680880Y-96950540D02*
X156680880Y-96475540D01*
G75*
G02*
X156918380Y-96238040I237500J0D01*
G01*
X157518380Y-96238040D01*
G75*
G02*
X157755880Y-96475540I0J-237500D01*
G01*
X157755880Y-96950540D01*
G75*
G02*
X157518380Y-97188040I-237500J0D01*
G01*
X156918380Y-97188040D01*
G75*
G02*
X156680880Y-96950540I0J237500D01*
G01*
G37*
%TD*%
%TO.C,C15*%
G36*
G01*
X158795600Y-108144320D02*
X158795600Y-107669320D01*
G75*
G02*
X159033100Y-107431820I237500J0D01*
G01*
X159633100Y-107431820D01*
G75*
G02*
X159870600Y-107669320I0J-237500D01*
G01*
X159870600Y-108144320D01*
G75*
G02*
X159633100Y-108381820I-237500J0D01*
G01*
X159033100Y-108381820D01*
G75*
G02*
X158795600Y-108144320I0J237500D01*
G01*
G37*
G36*
G01*
X157070600Y-108144320D02*
X157070600Y-107669320D01*
G75*
G02*
X157308100Y-107431820I237500J0D01*
G01*
X157908100Y-107431820D01*
G75*
G02*
X158145600Y-107669320I0J-237500D01*
G01*
X158145600Y-108144320D01*
G75*
G02*
X157908100Y-108381820I-237500J0D01*
G01*
X157308100Y-108381820D01*
G75*
G02*
X157070600Y-108144320I0J237500D01*
G01*
G37*
%TD*%
%TO.C,C14*%
G36*
G01*
X166362260Y-113612940D02*
X166362260Y-113137940D01*
G75*
G02*
X166599760Y-112900440I237500J0D01*
G01*
X167199760Y-112900440D01*
G75*
G02*
X167437260Y-113137940I0J-237500D01*
G01*
X167437260Y-113612940D01*
G75*
G02*
X167199760Y-113850440I-237500J0D01*
G01*
X166599760Y-113850440D01*
G75*
G02*
X166362260Y-113612940I0J237500D01*
G01*
G37*
G36*
G01*
X164637260Y-113612940D02*
X164637260Y-113137940D01*
G75*
G02*
X164874760Y-112900440I237500J0D01*
G01*
X165474760Y-112900440D01*
G75*
G02*
X165712260Y-113137940I0J-237500D01*
G01*
X165712260Y-113612940D01*
G75*
G02*
X165474760Y-113850440I-237500J0D01*
G01*
X164874760Y-113850440D01*
G75*
G02*
X164637260Y-113612940I0J237500D01*
G01*
G37*
%TD*%
%TO.C,C2*%
G36*
G01*
X122675660Y-110453460D02*
X122200660Y-110453460D01*
G75*
G02*
X121963160Y-110215960I0J237500D01*
G01*
X121963160Y-109615960D01*
G75*
G02*
X122200660Y-109378460I237500J0D01*
G01*
X122675660Y-109378460D01*
G75*
G02*
X122913160Y-109615960I0J-237500D01*
G01*
X122913160Y-110215960D01*
G75*
G02*
X122675660Y-110453460I-237500J0D01*
G01*
G37*
G36*
G01*
X122675660Y-112178460D02*
X122200660Y-112178460D01*
G75*
G02*
X121963160Y-111940960I0J237500D01*
G01*
X121963160Y-111340960D01*
G75*
G02*
X122200660Y-111103460I237500J0D01*
G01*
X122675660Y-111103460D01*
G75*
G02*
X122913160Y-111340960I0J-237500D01*
G01*
X122913160Y-111940960D01*
G75*
G02*
X122675660Y-112178460I-237500J0D01*
G01*
G37*
%TD*%
%TO.C,U101*%
G36*
G01*
X153467280Y-104555940D02*
X153467280Y-104205940D01*
G75*
G02*
X153642280Y-104030940I175000J0D01*
G01*
X154292280Y-104030940D01*
G75*
G02*
X154467280Y-104205940I0J-175000D01*
G01*
X154467280Y-104555940D01*
G75*
G02*
X154292280Y-104730940I-175000J0D01*
G01*
X153642280Y-104730940D01*
G75*
G02*
X153467280Y-104555940I0J175000D01*
G01*
G37*
G36*
G01*
X153467280Y-103455940D02*
X153467280Y-103105940D01*
G75*
G02*
X153642280Y-102930940I175000J0D01*
G01*
X154292280Y-102930940D01*
G75*
G02*
X154467280Y-103105940I0J-175000D01*
G01*
X154467280Y-103455940D01*
G75*
G02*
X154292280Y-103630940I-175000J0D01*
G01*
X153642280Y-103630940D01*
G75*
G02*
X153467280Y-103455940I0J175000D01*
G01*
G37*
G36*
G01*
X153467280Y-105655940D02*
X153467280Y-105305940D01*
G75*
G02*
X153642280Y-105130940I175000J0D01*
G01*
X154292280Y-105130940D01*
G75*
G02*
X154467280Y-105305940I0J-175000D01*
G01*
X154467280Y-105655940D01*
G75*
G02*
X154292280Y-105830940I-175000J0D01*
G01*
X153642280Y-105830940D01*
G75*
G02*
X153467280Y-105655940I0J175000D01*
G01*
G37*
G36*
G01*
X153467280Y-97955940D02*
X153467280Y-97605940D01*
G75*
G02*
X153642280Y-97430940I175000J0D01*
G01*
X154292280Y-97430940D01*
G75*
G02*
X154467280Y-97605940I0J-175000D01*
G01*
X154467280Y-97955940D01*
G75*
G02*
X154292280Y-98130940I-175000J0D01*
G01*
X153642280Y-98130940D01*
G75*
G02*
X153467280Y-97955940I0J175000D01*
G01*
G37*
G36*
G01*
X153467280Y-102355940D02*
X153467280Y-102005940D01*
G75*
G02*
X153642280Y-101830940I175000J0D01*
G01*
X154292280Y-101830940D01*
G75*
G02*
X154467280Y-102005940I0J-175000D01*
G01*
X154467280Y-102355940D01*
G75*
G02*
X154292280Y-102530940I-175000J0D01*
G01*
X153642280Y-102530940D01*
G75*
G02*
X153467280Y-102355940I0J175000D01*
G01*
G37*
G36*
G01*
X153467280Y-96855940D02*
X153467280Y-96505940D01*
G75*
G02*
X153642280Y-96330940I175000J0D01*
G01*
X154292280Y-96330940D01*
G75*
G02*
X154467280Y-96505940I0J-175000D01*
G01*
X154467280Y-96855940D01*
G75*
G02*
X154292280Y-97030940I-175000J0D01*
G01*
X153642280Y-97030940D01*
G75*
G02*
X153467280Y-96855940I0J175000D01*
G01*
G37*
G36*
G01*
X153467280Y-101255940D02*
X153467280Y-100905940D01*
G75*
G02*
X153642280Y-100730940I175000J0D01*
G01*
X154292280Y-100730940D01*
G75*
G02*
X154467280Y-100905940I0J-175000D01*
G01*
X154467280Y-101255940D01*
G75*
G02*
X154292280Y-101430940I-175000J0D01*
G01*
X153642280Y-101430940D01*
G75*
G02*
X153467280Y-101255940I0J175000D01*
G01*
G37*
G36*
G01*
X153467280Y-95755940D02*
X153467280Y-95405940D01*
G75*
G02*
X153642280Y-95230940I175000J0D01*
G01*
X154292280Y-95230940D01*
G75*
G02*
X154467280Y-95405940I0J-175000D01*
G01*
X154467280Y-95755940D01*
G75*
G02*
X154292280Y-95930940I-175000J0D01*
G01*
X153642280Y-95930940D01*
G75*
G02*
X153467280Y-95755940I0J175000D01*
G01*
G37*
G36*
G01*
X153467280Y-94655940D02*
X153467280Y-94305940D01*
G75*
G02*
X153642280Y-94130940I175000J0D01*
G01*
X154292280Y-94130940D01*
G75*
G02*
X154467280Y-94305940I0J-175000D01*
G01*
X154467280Y-94655940D01*
G75*
G02*
X154292280Y-94830940I-175000J0D01*
G01*
X153642280Y-94830940D01*
G75*
G02*
X153467280Y-94655940I0J175000D01*
G01*
G37*
G36*
G01*
X153467280Y-100155940D02*
X153467280Y-99805940D01*
G75*
G02*
X153642280Y-99630940I175000J0D01*
G01*
X154292280Y-99630940D01*
G75*
G02*
X154467280Y-99805940I0J-175000D01*
G01*
X154467280Y-100155940D01*
G75*
G02*
X154292280Y-100330940I-175000J0D01*
G01*
X153642280Y-100330940D01*
G75*
G02*
X153467280Y-100155940I0J175000D01*
G01*
G37*
G36*
G01*
X153467280Y-99055940D02*
X153467280Y-98705940D01*
G75*
G02*
X153642280Y-98530940I175000J0D01*
G01*
X154292280Y-98530940D01*
G75*
G02*
X154467280Y-98705940I0J-175000D01*
G01*
X154467280Y-99055940D01*
G75*
G02*
X154292280Y-99230940I-175000J0D01*
G01*
X153642280Y-99230940D01*
G75*
G02*
X153467280Y-99055940I0J175000D01*
G01*
G37*
G36*
G01*
X148242280Y-107210940D02*
X147892280Y-107210940D01*
G75*
G02*
X147717280Y-107035940I0J175000D01*
G01*
X147717280Y-106385940D01*
G75*
G02*
X147892280Y-106210940I175000J0D01*
G01*
X148242280Y-106210940D01*
G75*
G02*
X148417280Y-106385940I0J-175000D01*
G01*
X148417280Y-107035940D01*
G75*
G02*
X148242280Y-107210940I-175000J0D01*
G01*
G37*
G36*
G01*
X150442280Y-107210940D02*
X150092280Y-107210940D01*
G75*
G02*
X149917280Y-107035940I0J175000D01*
G01*
X149917280Y-106385940D01*
G75*
G02*
X150092280Y-106210940I175000J0D01*
G01*
X150442280Y-106210940D01*
G75*
G02*
X150617280Y-106385940I0J-175000D01*
G01*
X150617280Y-107035940D01*
G75*
G02*
X150442280Y-107210940I-175000J0D01*
G01*
G37*
G36*
G01*
X141642280Y-107210940D02*
X141292280Y-107210940D01*
G75*
G02*
X141117280Y-107035940I0J175000D01*
G01*
X141117280Y-106385940D01*
G75*
G02*
X141292280Y-106210940I175000J0D01*
G01*
X141642280Y-106210940D01*
G75*
G02*
X141817280Y-106385940I0J-175000D01*
G01*
X141817280Y-107035940D01*
G75*
G02*
X141642280Y-107210940I-175000J0D01*
G01*
G37*
G36*
G01*
X146042280Y-107210940D02*
X145692280Y-107210940D01*
G75*
G02*
X145517280Y-107035940I0J175000D01*
G01*
X145517280Y-106385940D01*
G75*
G02*
X145692280Y-106210940I175000J0D01*
G01*
X146042280Y-106210940D01*
G75*
G02*
X146217280Y-106385940I0J-175000D01*
G01*
X146217280Y-107035940D01*
G75*
G02*
X146042280Y-107210940I-175000J0D01*
G01*
G37*
G36*
G01*
X144942280Y-107210940D02*
X144592280Y-107210940D01*
G75*
G02*
X144417280Y-107035940I0J175000D01*
G01*
X144417280Y-106385940D01*
G75*
G02*
X144592280Y-106210940I175000J0D01*
G01*
X144942280Y-106210940D01*
G75*
G02*
X145117280Y-106385940I0J-175000D01*
G01*
X145117280Y-107035940D01*
G75*
G02*
X144942280Y-107210940I-175000J0D01*
G01*
G37*
G36*
G01*
X152642280Y-107230940D02*
X152292280Y-107230940D01*
G75*
G02*
X152117280Y-107055940I0J175000D01*
G01*
X152117280Y-106405940D01*
G75*
G02*
X152292280Y-106230940I175000J0D01*
G01*
X152642280Y-106230940D01*
G75*
G02*
X152817280Y-106405940I0J-175000D01*
G01*
X152817280Y-107055940D01*
G75*
G02*
X152642280Y-107230940I-175000J0D01*
G01*
G37*
G36*
G01*
X143842280Y-107210940D02*
X143492280Y-107210940D01*
G75*
G02*
X143317280Y-107035940I0J175000D01*
G01*
X143317280Y-106385940D01*
G75*
G02*
X143492280Y-106210940I175000J0D01*
G01*
X143842280Y-106210940D01*
G75*
G02*
X144017280Y-106385940I0J-175000D01*
G01*
X144017280Y-107035940D01*
G75*
G02*
X143842280Y-107210940I-175000J0D01*
G01*
G37*
G36*
G01*
X149342280Y-107210940D02*
X148992280Y-107210940D01*
G75*
G02*
X148817280Y-107035940I0J175000D01*
G01*
X148817280Y-106385940D01*
G75*
G02*
X148992280Y-106210940I175000J0D01*
G01*
X149342280Y-106210940D01*
G75*
G02*
X149517280Y-106385940I0J-175000D01*
G01*
X149517280Y-107035940D01*
G75*
G02*
X149342280Y-107210940I-175000J0D01*
G01*
G37*
G36*
G01*
X151542280Y-107210940D02*
X151192280Y-107210940D01*
G75*
G02*
X151017280Y-107035940I0J175000D01*
G01*
X151017280Y-106385940D01*
G75*
G02*
X151192280Y-106210940I175000J0D01*
G01*
X151542280Y-106210940D01*
G75*
G02*
X151717280Y-106385940I0J-175000D01*
G01*
X151717280Y-107035940D01*
G75*
G02*
X151542280Y-107210940I-175000J0D01*
G01*
G37*
G36*
G01*
X142742280Y-107210940D02*
X142392280Y-107210940D01*
G75*
G02*
X142217280Y-107035940I0J175000D01*
G01*
X142217280Y-106385940D01*
G75*
G02*
X142392280Y-106210940I175000J0D01*
G01*
X142742280Y-106210940D01*
G75*
G02*
X142917280Y-106385940I0J-175000D01*
G01*
X142917280Y-107035940D01*
G75*
G02*
X142742280Y-107210940I-175000J0D01*
G01*
G37*
G36*
G01*
X147142280Y-107210940D02*
X146792280Y-107210940D01*
G75*
G02*
X146617280Y-107035940I0J175000D01*
G01*
X146617280Y-106385940D01*
G75*
G02*
X146792280Y-106210940I175000J0D01*
G01*
X147142280Y-106210940D01*
G75*
G02*
X147317280Y-106385940I0J-175000D01*
G01*
X147317280Y-107035940D01*
G75*
G02*
X147142280Y-107210940I-175000J0D01*
G01*
G37*
G36*
G01*
X140542280Y-107210940D02*
X140192280Y-107210940D01*
G75*
G02*
X140017280Y-107035940I0J175000D01*
G01*
X140017280Y-106385940D01*
G75*
G02*
X140192280Y-106210940I175000J0D01*
G01*
X140542280Y-106210940D01*
G75*
G02*
X140717280Y-106385940I0J-175000D01*
G01*
X140717280Y-107035940D01*
G75*
G02*
X140542280Y-107210940I-175000J0D01*
G01*
G37*
G36*
G01*
X139442280Y-107210940D02*
X139092280Y-107210940D01*
G75*
G02*
X138917280Y-107035940I0J175000D01*
G01*
X138917280Y-106385940D01*
G75*
G02*
X139092280Y-106210940I175000J0D01*
G01*
X139442280Y-106210940D01*
G75*
G02*
X139617280Y-106385940I0J-175000D01*
G01*
X139617280Y-107035940D01*
G75*
G02*
X139442280Y-107210940I-175000J0D01*
G01*
G37*
G36*
G01*
X152642280Y-93730940D02*
X152292280Y-93730940D01*
G75*
G02*
X152117280Y-93555940I0J175000D01*
G01*
X152117280Y-92905940D01*
G75*
G02*
X152292280Y-92730940I175000J0D01*
G01*
X152642280Y-92730940D01*
G75*
G02*
X152817280Y-92905940I0J-175000D01*
G01*
X152817280Y-93555940D01*
G75*
G02*
X152642280Y-93730940I-175000J0D01*
G01*
G37*
G36*
G01*
X150442280Y-93710940D02*
X150092280Y-93710940D01*
G75*
G02*
X149917280Y-93535940I0J175000D01*
G01*
X149917280Y-92885940D01*
G75*
G02*
X150092280Y-92710940I175000J0D01*
G01*
X150442280Y-92710940D01*
G75*
G02*
X150617280Y-92885940I0J-175000D01*
G01*
X150617280Y-93535940D01*
G75*
G02*
X150442280Y-93710940I-175000J0D01*
G01*
G37*
G36*
G01*
X148242280Y-93710940D02*
X147892280Y-93710940D01*
G75*
G02*
X147717280Y-93535940I0J175000D01*
G01*
X147717280Y-92885940D01*
G75*
G02*
X147892280Y-92710940I175000J0D01*
G01*
X148242280Y-92710940D01*
G75*
G02*
X148417280Y-92885940I0J-175000D01*
G01*
X148417280Y-93535940D01*
G75*
G02*
X148242280Y-93710940I-175000J0D01*
G01*
G37*
G36*
G01*
X151542280Y-93710940D02*
X151192280Y-93710940D01*
G75*
G02*
X151017280Y-93535940I0J175000D01*
G01*
X151017280Y-92885940D01*
G75*
G02*
X151192280Y-92710940I175000J0D01*
G01*
X151542280Y-92710940D01*
G75*
G02*
X151717280Y-92885940I0J-175000D01*
G01*
X151717280Y-93535940D01*
G75*
G02*
X151542280Y-93710940I-175000J0D01*
G01*
G37*
G36*
G01*
X149342280Y-93710940D02*
X148992280Y-93710940D01*
G75*
G02*
X148817280Y-93535940I0J175000D01*
G01*
X148817280Y-92885940D01*
G75*
G02*
X148992280Y-92710940I175000J0D01*
G01*
X149342280Y-92710940D01*
G75*
G02*
X149517280Y-92885940I0J-175000D01*
G01*
X149517280Y-93535940D01*
G75*
G02*
X149342280Y-93710940I-175000J0D01*
G01*
G37*
G36*
G01*
X146042280Y-93710940D02*
X145692280Y-93710940D01*
G75*
G02*
X145517280Y-93535940I0J175000D01*
G01*
X145517280Y-92885940D01*
G75*
G02*
X145692280Y-92710940I175000J0D01*
G01*
X146042280Y-92710940D01*
G75*
G02*
X146217280Y-92885940I0J-175000D01*
G01*
X146217280Y-93535940D01*
G75*
G02*
X146042280Y-93710940I-175000J0D01*
G01*
G37*
G36*
G01*
X141642280Y-93710940D02*
X141292280Y-93710940D01*
G75*
G02*
X141117280Y-93535940I0J175000D01*
G01*
X141117280Y-92885940D01*
G75*
G02*
X141292280Y-92710940I175000J0D01*
G01*
X141642280Y-92710940D01*
G75*
G02*
X141817280Y-92885940I0J-175000D01*
G01*
X141817280Y-93535940D01*
G75*
G02*
X141642280Y-93710940I-175000J0D01*
G01*
G37*
G36*
G01*
X147142280Y-93710940D02*
X146792280Y-93710940D01*
G75*
G02*
X146617280Y-93535940I0J175000D01*
G01*
X146617280Y-92885940D01*
G75*
G02*
X146792280Y-92710940I175000J0D01*
G01*
X147142280Y-92710940D01*
G75*
G02*
X147317280Y-92885940I0J-175000D01*
G01*
X147317280Y-93535940D01*
G75*
G02*
X147142280Y-93710940I-175000J0D01*
G01*
G37*
G36*
G01*
X142742280Y-93710940D02*
X142392280Y-93710940D01*
G75*
G02*
X142217280Y-93535940I0J175000D01*
G01*
X142217280Y-92885940D01*
G75*
G02*
X142392280Y-92710940I175000J0D01*
G01*
X142742280Y-92710940D01*
G75*
G02*
X142917280Y-92885940I0J-175000D01*
G01*
X142917280Y-93535940D01*
G75*
G02*
X142742280Y-93710940I-175000J0D01*
G01*
G37*
G36*
G01*
X143842280Y-93710940D02*
X143492280Y-93710940D01*
G75*
G02*
X143317280Y-93535940I0J175000D01*
G01*
X143317280Y-92885940D01*
G75*
G02*
X143492280Y-92710940I175000J0D01*
G01*
X143842280Y-92710940D01*
G75*
G02*
X144017280Y-92885940I0J-175000D01*
G01*
X144017280Y-93535940D01*
G75*
G02*
X143842280Y-93710940I-175000J0D01*
G01*
G37*
G36*
G01*
X144942280Y-93710940D02*
X144592280Y-93710940D01*
G75*
G02*
X144417280Y-93535940I0J175000D01*
G01*
X144417280Y-92885940D01*
G75*
G02*
X144592280Y-92710940I175000J0D01*
G01*
X144942280Y-92710940D01*
G75*
G02*
X145117280Y-92885940I0J-175000D01*
G01*
X145117280Y-93535940D01*
G75*
G02*
X144942280Y-93710940I-175000J0D01*
G01*
G37*
G36*
G01*
X139442280Y-93710940D02*
X139092280Y-93710940D01*
G75*
G02*
X138917280Y-93535940I0J175000D01*
G01*
X138917280Y-92885940D01*
G75*
G02*
X139092280Y-92710940I175000J0D01*
G01*
X139442280Y-92710940D01*
G75*
G02*
X139617280Y-92885940I0J-175000D01*
G01*
X139617280Y-93535940D01*
G75*
G02*
X139442280Y-93710940I-175000J0D01*
G01*
G37*
G36*
G01*
X140542280Y-93710940D02*
X140192280Y-93710940D01*
G75*
G02*
X140017280Y-93535940I0J175000D01*
G01*
X140017280Y-92885940D01*
G75*
G02*
X140192280Y-92710940I175000J0D01*
G01*
X140542280Y-92710940D01*
G75*
G02*
X140717280Y-92885940I0J-175000D01*
G01*
X140717280Y-93535940D01*
G75*
G02*
X140542280Y-93710940I-175000J0D01*
G01*
G37*
G36*
G01*
X148142280Y-104730940D02*
X147792280Y-104730940D01*
G75*
G02*
X147617280Y-104555940I0J175000D01*
G01*
X147617280Y-103905940D01*
G75*
G02*
X147792280Y-103730940I175000J0D01*
G01*
X148142280Y-103730940D01*
G75*
G02*
X148317280Y-103905940I0J-175000D01*
G01*
X148317280Y-104555940D01*
G75*
G02*
X148142280Y-104730940I-175000J0D01*
G01*
G37*
G36*
G01*
X143742280Y-104730940D02*
X143392280Y-104730940D01*
G75*
G02*
X143217280Y-104555940I0J175000D01*
G01*
X143217280Y-103905940D01*
G75*
G02*
X143392280Y-103730940I175000J0D01*
G01*
X143742280Y-103730940D01*
G75*
G02*
X143917280Y-103905940I0J-175000D01*
G01*
X143917280Y-104555940D01*
G75*
G02*
X143742280Y-104730940I-175000J0D01*
G01*
G37*
G36*
G01*
X149242280Y-104730940D02*
X148892280Y-104730940D01*
G75*
G02*
X148717280Y-104555940I0J175000D01*
G01*
X148717280Y-103905940D01*
G75*
G02*
X148892280Y-103730940I175000J0D01*
G01*
X149242280Y-103730940D01*
G75*
G02*
X149417280Y-103905940I0J-175000D01*
G01*
X149417280Y-104555940D01*
G75*
G02*
X149242280Y-104730940I-175000J0D01*
G01*
G37*
G36*
G01*
X144842280Y-104730940D02*
X144492280Y-104730940D01*
G75*
G02*
X144317280Y-104555940I0J175000D01*
G01*
X144317280Y-103905940D01*
G75*
G02*
X144492280Y-103730940I175000J0D01*
G01*
X144842280Y-103730940D01*
G75*
G02*
X145017280Y-103905940I0J-175000D01*
G01*
X145017280Y-104555940D01*
G75*
G02*
X144842280Y-104730940I-175000J0D01*
G01*
G37*
G36*
G01*
X150342280Y-104730940D02*
X149992280Y-104730940D01*
G75*
G02*
X149817280Y-104555940I0J175000D01*
G01*
X149817280Y-103905940D01*
G75*
G02*
X149992280Y-103730940I175000J0D01*
G01*
X150342280Y-103730940D01*
G75*
G02*
X150517280Y-103905940I0J-175000D01*
G01*
X150517280Y-104555940D01*
G75*
G02*
X150342280Y-104730940I-175000J0D01*
G01*
G37*
G36*
G01*
X145942280Y-104730940D02*
X145592280Y-104730940D01*
G75*
G02*
X145417280Y-104555940I0J175000D01*
G01*
X145417280Y-103905940D01*
G75*
G02*
X145592280Y-103730940I175000J0D01*
G01*
X145942280Y-103730940D01*
G75*
G02*
X146117280Y-103905940I0J-175000D01*
G01*
X146117280Y-104555940D01*
G75*
G02*
X145942280Y-104730940I-175000J0D01*
G01*
G37*
G36*
G01*
X147042280Y-104730940D02*
X146692280Y-104730940D01*
G75*
G02*
X146517280Y-104555940I0J175000D01*
G01*
X146517280Y-103905940D01*
G75*
G02*
X146692280Y-103730940I175000J0D01*
G01*
X147042280Y-103730940D01*
G75*
G02*
X147217280Y-103905940I0J-175000D01*
G01*
X147217280Y-104555940D01*
G75*
G02*
X147042280Y-104730940I-175000J0D01*
G01*
G37*
G36*
G01*
X141542280Y-104740940D02*
X141192280Y-104740940D01*
G75*
G02*
X141017280Y-104565940I0J175000D01*
G01*
X141017280Y-103915940D01*
G75*
G02*
X141192280Y-103740940I175000J0D01*
G01*
X141542280Y-103740940D01*
G75*
G02*
X141717280Y-103915940I0J-175000D01*
G01*
X141717280Y-104565940D01*
G75*
G02*
X141542280Y-104740940I-175000J0D01*
G01*
G37*
G36*
G01*
X142642280Y-104730940D02*
X142292280Y-104730940D01*
G75*
G02*
X142117280Y-104555940I0J175000D01*
G01*
X142117280Y-103905940D01*
G75*
G02*
X142292280Y-103730940I175000J0D01*
G01*
X142642280Y-103730940D01*
G75*
G02*
X142817280Y-103905940I0J-175000D01*
G01*
X142817280Y-104555940D01*
G75*
G02*
X142642280Y-104730940I-175000J0D01*
G01*
G37*
G36*
G01*
X141542280Y-96230940D02*
X141192280Y-96230940D01*
G75*
G02*
X141017280Y-96055940I0J175000D01*
G01*
X141017280Y-95405940D01*
G75*
G02*
X141192280Y-95230940I175000J0D01*
G01*
X141542280Y-95230940D01*
G75*
G02*
X141717280Y-95405940I0J-175000D01*
G01*
X141717280Y-96055940D01*
G75*
G02*
X141542280Y-96230940I-175000J0D01*
G01*
G37*
G36*
G01*
X142642280Y-96230940D02*
X142292280Y-96230940D01*
G75*
G02*
X142117280Y-96055940I0J175000D01*
G01*
X142117280Y-95405940D01*
G75*
G02*
X142292280Y-95230940I175000J0D01*
G01*
X142642280Y-95230940D01*
G75*
G02*
X142817280Y-95405940I0J-175000D01*
G01*
X142817280Y-96055940D01*
G75*
G02*
X142642280Y-96230940I-175000J0D01*
G01*
G37*
G36*
G01*
X143742280Y-96230940D02*
X143392280Y-96230940D01*
G75*
G02*
X143217280Y-96055940I0J175000D01*
G01*
X143217280Y-95405940D01*
G75*
G02*
X143392280Y-95230940I175000J0D01*
G01*
X143742280Y-95230940D01*
G75*
G02*
X143917280Y-95405940I0J-175000D01*
G01*
X143917280Y-96055940D01*
G75*
G02*
X143742280Y-96230940I-175000J0D01*
G01*
G37*
G36*
G01*
X145942280Y-96230940D02*
X145592280Y-96230940D01*
G75*
G02*
X145417280Y-96055940I0J175000D01*
G01*
X145417280Y-95405940D01*
G75*
G02*
X145592280Y-95230940I175000J0D01*
G01*
X145942280Y-95230940D01*
G75*
G02*
X146117280Y-95405940I0J-175000D01*
G01*
X146117280Y-96055940D01*
G75*
G02*
X145942280Y-96230940I-175000J0D01*
G01*
G37*
G36*
G01*
X144842280Y-96230940D02*
X144492280Y-96230940D01*
G75*
G02*
X144317280Y-96055940I0J175000D01*
G01*
X144317280Y-95405940D01*
G75*
G02*
X144492280Y-95230940I175000J0D01*
G01*
X144842280Y-95230940D01*
G75*
G02*
X145017280Y-95405940I0J-175000D01*
G01*
X145017280Y-96055940D01*
G75*
G02*
X144842280Y-96230940I-175000J0D01*
G01*
G37*
G36*
G01*
X147042280Y-96230940D02*
X146692280Y-96230940D01*
G75*
G02*
X146517280Y-96055940I0J175000D01*
G01*
X146517280Y-95405940D01*
G75*
G02*
X146692280Y-95230940I175000J0D01*
G01*
X147042280Y-95230940D01*
G75*
G02*
X147217280Y-95405940I0J-175000D01*
G01*
X147217280Y-96055940D01*
G75*
G02*
X147042280Y-96230940I-175000J0D01*
G01*
G37*
G36*
G01*
X149242280Y-96230940D02*
X148892280Y-96230940D01*
G75*
G02*
X148717280Y-96055940I0J175000D01*
G01*
X148717280Y-95405940D01*
G75*
G02*
X148892280Y-95230940I175000J0D01*
G01*
X149242280Y-95230940D01*
G75*
G02*
X149417280Y-95405940I0J-175000D01*
G01*
X149417280Y-96055940D01*
G75*
G02*
X149242280Y-96230940I-175000J0D01*
G01*
G37*
G36*
G01*
X148142280Y-96230940D02*
X147792280Y-96230940D01*
G75*
G02*
X147617280Y-96055940I0J175000D01*
G01*
X147617280Y-95405940D01*
G75*
G02*
X147792280Y-95230940I175000J0D01*
G01*
X148142280Y-95230940D01*
G75*
G02*
X148317280Y-95405940I0J-175000D01*
G01*
X148317280Y-96055940D01*
G75*
G02*
X148142280Y-96230940I-175000J0D01*
G01*
G37*
G36*
G01*
X150342280Y-96230940D02*
X149992280Y-96230940D01*
G75*
G02*
X149817280Y-96055940I0J175000D01*
G01*
X149817280Y-95405940D01*
G75*
G02*
X149992280Y-95230940I175000J0D01*
G01*
X150342280Y-95230940D01*
G75*
G02*
X150517280Y-95405940I0J-175000D01*
G01*
X150517280Y-96055940D01*
G75*
G02*
X150342280Y-96230940I-175000J0D01*
G01*
G37*
%TD*%
D10*
%TO.C,SW2*%
X161120240Y-117446560D03*
X154320240Y-117446560D03*
X154320240Y-113446560D03*
X161120240Y-113446560D03*
%TD*%
D11*
%TO.C,SW1*%
X169357540Y-109143800D03*
X176087540Y-98983800D03*
X169357540Y-106603800D03*
X176087540Y-101523800D03*
X169357540Y-104063800D03*
X176087540Y-104063800D03*
X169357540Y-101523800D03*
X176087540Y-106603800D03*
X169357540Y-98983800D03*
X176087540Y-109143800D03*
%TD*%
%TO.C,R101*%
G36*
G01*
X120835740Y-104168620D02*
X120835740Y-103618620D01*
G75*
G02*
X121035740Y-103418620I200000J0D01*
G01*
X121435740Y-103418620D01*
G75*
G02*
X121635740Y-103618620I0J-200000D01*
G01*
X121635740Y-104168620D01*
G75*
G02*
X121435740Y-104368620I-200000J0D01*
G01*
X121035740Y-104368620D01*
G75*
G02*
X120835740Y-104168620I0J200000D01*
G01*
G37*
G36*
G01*
X119185740Y-104168620D02*
X119185740Y-103618620D01*
G75*
G02*
X119385740Y-103418620I200000J0D01*
G01*
X119785740Y-103418620D01*
G75*
G02*
X119985740Y-103618620I0J-200000D01*
G01*
X119985740Y-104168620D01*
G75*
G02*
X119785740Y-104368620I-200000J0D01*
G01*
X119385740Y-104368620D01*
G75*
G02*
X119185740Y-104168620I0J200000D01*
G01*
G37*
%TD*%
%TO.C,R13*%
G36*
G01*
X129045020Y-105946620D02*
X129045020Y-105396620D01*
G75*
G02*
X129245020Y-105196620I200000J0D01*
G01*
X129645020Y-105196620D01*
G75*
G02*
X129845020Y-105396620I0J-200000D01*
G01*
X129845020Y-105946620D01*
G75*
G02*
X129645020Y-106146620I-200000J0D01*
G01*
X129245020Y-106146620D01*
G75*
G02*
X129045020Y-105946620I0J200000D01*
G01*
G37*
G36*
G01*
X127395020Y-105946620D02*
X127395020Y-105396620D01*
G75*
G02*
X127595020Y-105196620I200000J0D01*
G01*
X127995020Y-105196620D01*
G75*
G02*
X128195020Y-105396620I0J-200000D01*
G01*
X128195020Y-105946620D01*
G75*
G02*
X127995020Y-106146620I-200000J0D01*
G01*
X127595020Y-106146620D01*
G75*
G02*
X127395020Y-105946620I0J200000D01*
G01*
G37*
%TD*%
%TO.C,R11*%
G36*
G01*
X162579100Y-99210540D02*
X162579100Y-98660540D01*
G75*
G02*
X162779100Y-98460540I200000J0D01*
G01*
X163179100Y-98460540D01*
G75*
G02*
X163379100Y-98660540I0J-200000D01*
G01*
X163379100Y-99210540D01*
G75*
G02*
X163179100Y-99410540I-200000J0D01*
G01*
X162779100Y-99410540D01*
G75*
G02*
X162579100Y-99210540I0J200000D01*
G01*
G37*
G36*
G01*
X164229100Y-99210540D02*
X164229100Y-98660540D01*
G75*
G02*
X164429100Y-98460540I200000J0D01*
G01*
X164829100Y-98460540D01*
G75*
G02*
X165029100Y-98660540I0J-200000D01*
G01*
X165029100Y-99210540D01*
G75*
G02*
X164829100Y-99410540I-200000J0D01*
G01*
X164429100Y-99410540D01*
G75*
G02*
X164229100Y-99210540I0J200000D01*
G01*
G37*
%TD*%
%TO.C,R10*%
G36*
G01*
X164229600Y-101788640D02*
X164229600Y-101238640D01*
G75*
G02*
X164429600Y-101038640I200000J0D01*
G01*
X164829600Y-101038640D01*
G75*
G02*
X165029600Y-101238640I0J-200000D01*
G01*
X165029600Y-101788640D01*
G75*
G02*
X164829600Y-101988640I-200000J0D01*
G01*
X164429600Y-101988640D01*
G75*
G02*
X164229600Y-101788640I0J200000D01*
G01*
G37*
G36*
G01*
X162579600Y-101788640D02*
X162579600Y-101238640D01*
G75*
G02*
X162779600Y-101038640I200000J0D01*
G01*
X163179600Y-101038640D01*
G75*
G02*
X163379600Y-101238640I0J-200000D01*
G01*
X163379600Y-101788640D01*
G75*
G02*
X163179600Y-101988640I-200000J0D01*
G01*
X162779600Y-101988640D01*
G75*
G02*
X162579600Y-101788640I0J200000D01*
G01*
G37*
%TD*%
%TO.C,R9*%
G36*
G01*
X164257540Y-104323560D02*
X164257540Y-103773560D01*
G75*
G02*
X164457540Y-103573560I200000J0D01*
G01*
X164857540Y-103573560D01*
G75*
G02*
X165057540Y-103773560I0J-200000D01*
G01*
X165057540Y-104323560D01*
G75*
G02*
X164857540Y-104523560I-200000J0D01*
G01*
X164457540Y-104523560D01*
G75*
G02*
X164257540Y-104323560I0J200000D01*
G01*
G37*
G36*
G01*
X162607540Y-104323560D02*
X162607540Y-103773560D01*
G75*
G02*
X162807540Y-103573560I200000J0D01*
G01*
X163207540Y-103573560D01*
G75*
G02*
X163407540Y-103773560I0J-200000D01*
G01*
X163407540Y-104323560D01*
G75*
G02*
X163207540Y-104523560I-200000J0D01*
G01*
X162807540Y-104523560D01*
G75*
G02*
X162607540Y-104323560I0J200000D01*
G01*
G37*
%TD*%
%TO.C,R8*%
G36*
G01*
X164290560Y-106866100D02*
X164290560Y-106316100D01*
G75*
G02*
X164490560Y-106116100I200000J0D01*
G01*
X164890560Y-106116100D01*
G75*
G02*
X165090560Y-106316100I0J-200000D01*
G01*
X165090560Y-106866100D01*
G75*
G02*
X164890560Y-107066100I-200000J0D01*
G01*
X164490560Y-107066100D01*
G75*
G02*
X164290560Y-106866100I0J200000D01*
G01*
G37*
G36*
G01*
X162640560Y-106866100D02*
X162640560Y-106316100D01*
G75*
G02*
X162840560Y-106116100I200000J0D01*
G01*
X163240560Y-106116100D01*
G75*
G02*
X163440560Y-106316100I0J-200000D01*
G01*
X163440560Y-106866100D01*
G75*
G02*
X163240560Y-107066100I-200000J0D01*
G01*
X162840560Y-107066100D01*
G75*
G02*
X162640560Y-106866100I0J200000D01*
G01*
G37*
%TD*%
%TO.C,R7*%
G36*
G01*
X162577560Y-109421340D02*
X162577560Y-108871340D01*
G75*
G02*
X162777560Y-108671340I200000J0D01*
G01*
X163177560Y-108671340D01*
G75*
G02*
X163377560Y-108871340I0J-200000D01*
G01*
X163377560Y-109421340D01*
G75*
G02*
X163177560Y-109621340I-200000J0D01*
G01*
X162777560Y-109621340D01*
G75*
G02*
X162577560Y-109421340I0J200000D01*
G01*
G37*
G36*
G01*
X164227560Y-109421340D02*
X164227560Y-108871340D01*
G75*
G02*
X164427560Y-108671340I200000J0D01*
G01*
X164827560Y-108671340D01*
G75*
G02*
X165027560Y-108871340I0J-200000D01*
G01*
X165027560Y-109421340D01*
G75*
G02*
X164827560Y-109621340I-200000J0D01*
G01*
X164427560Y-109621340D01*
G75*
G02*
X164227560Y-109421340I0J200000D01*
G01*
G37*
%TD*%
%TO.C,R6*%
G36*
G01*
X118072220Y-82294140D02*
X118072220Y-81744140D01*
G75*
G02*
X118272220Y-81544140I200000J0D01*
G01*
X118672220Y-81544140D01*
G75*
G02*
X118872220Y-81744140I0J-200000D01*
G01*
X118872220Y-82294140D01*
G75*
G02*
X118672220Y-82494140I-200000J0D01*
G01*
X118272220Y-82494140D01*
G75*
G02*
X118072220Y-82294140I0J200000D01*
G01*
G37*
G36*
G01*
X116422220Y-82294140D02*
X116422220Y-81744140D01*
G75*
G02*
X116622220Y-81544140I200000J0D01*
G01*
X117022220Y-81544140D01*
G75*
G02*
X117222220Y-81744140I0J-200000D01*
G01*
X117222220Y-82294140D01*
G75*
G02*
X117022220Y-82494140I-200000J0D01*
G01*
X116622220Y-82494140D01*
G75*
G02*
X116422220Y-82294140I0J200000D01*
G01*
G37*
%TD*%
%TO.C,R5*%
G36*
G01*
X118064600Y-85128780D02*
X118064600Y-84578780D01*
G75*
G02*
X118264600Y-84378780I200000J0D01*
G01*
X118664600Y-84378780D01*
G75*
G02*
X118864600Y-84578780I0J-200000D01*
G01*
X118864600Y-85128780D01*
G75*
G02*
X118664600Y-85328780I-200000J0D01*
G01*
X118264600Y-85328780D01*
G75*
G02*
X118064600Y-85128780I0J200000D01*
G01*
G37*
G36*
G01*
X116414600Y-85128780D02*
X116414600Y-84578780D01*
G75*
G02*
X116614600Y-84378780I200000J0D01*
G01*
X117014600Y-84378780D01*
G75*
G02*
X117214600Y-84578780I0J-200000D01*
G01*
X117214600Y-85128780D01*
G75*
G02*
X117014600Y-85328780I-200000J0D01*
G01*
X116614600Y-85328780D01*
G75*
G02*
X116414600Y-85128780I0J200000D01*
G01*
G37*
%TD*%
%TO.C,R4*%
G36*
G01*
X165556880Y-115950320D02*
X165556880Y-116500320D01*
G75*
G02*
X165356880Y-116700320I-200000J0D01*
G01*
X164956880Y-116700320D01*
G75*
G02*
X164756880Y-116500320I0J200000D01*
G01*
X164756880Y-115950320D01*
G75*
G02*
X164956880Y-115750320I200000J0D01*
G01*
X165356880Y-115750320D01*
G75*
G02*
X165556880Y-115950320I0J-200000D01*
G01*
G37*
G36*
G01*
X167206880Y-115950320D02*
X167206880Y-116500320D01*
G75*
G02*
X167006880Y-116700320I-200000J0D01*
G01*
X166606880Y-116700320D01*
G75*
G02*
X166406880Y-116500320I0J200000D01*
G01*
X166406880Y-115950320D01*
G75*
G02*
X166606880Y-115750320I200000J0D01*
G01*
X167006880Y-115750320D01*
G75*
G02*
X167206880Y-115950320I0J-200000D01*
G01*
G37*
%TD*%
%TO.C,R3*%
G36*
G01*
X118100160Y-76490240D02*
X118100160Y-75940240D01*
G75*
G02*
X118300160Y-75740240I200000J0D01*
G01*
X118700160Y-75740240D01*
G75*
G02*
X118900160Y-75940240I0J-200000D01*
G01*
X118900160Y-76490240D01*
G75*
G02*
X118700160Y-76690240I-200000J0D01*
G01*
X118300160Y-76690240D01*
G75*
G02*
X118100160Y-76490240I0J200000D01*
G01*
G37*
G36*
G01*
X116450160Y-76490240D02*
X116450160Y-75940240D01*
G75*
G02*
X116650160Y-75740240I200000J0D01*
G01*
X117050160Y-75740240D01*
G75*
G02*
X117250160Y-75940240I0J-200000D01*
G01*
X117250160Y-76490240D01*
G75*
G02*
X117050160Y-76690240I-200000J0D01*
G01*
X116650160Y-76690240D01*
G75*
G02*
X116450160Y-76490240I0J200000D01*
G01*
G37*
%TD*%
%TO.C,R2*%
G36*
G01*
X118097620Y-79335040D02*
X118097620Y-78785040D01*
G75*
G02*
X118297620Y-78585040I200000J0D01*
G01*
X118697620Y-78585040D01*
G75*
G02*
X118897620Y-78785040I0J-200000D01*
G01*
X118897620Y-79335040D01*
G75*
G02*
X118697620Y-79535040I-200000J0D01*
G01*
X118297620Y-79535040D01*
G75*
G02*
X118097620Y-79335040I0J200000D01*
G01*
G37*
G36*
G01*
X116447620Y-79335040D02*
X116447620Y-78785040D01*
G75*
G02*
X116647620Y-78585040I200000J0D01*
G01*
X117047620Y-78585040D01*
G75*
G02*
X117247620Y-78785040I0J-200000D01*
G01*
X117247620Y-79335040D01*
G75*
G02*
X117047620Y-79535040I-200000J0D01*
G01*
X116647620Y-79535040D01*
G75*
G02*
X116447620Y-79335040I0J200000D01*
G01*
G37*
%TD*%
%TO.C,R1*%
G36*
G01*
X129115140Y-106848460D02*
X129665140Y-106848460D01*
G75*
G02*
X129865140Y-107048460I0J-200000D01*
G01*
X129865140Y-107448460D01*
G75*
G02*
X129665140Y-107648460I-200000J0D01*
G01*
X129115140Y-107648460D01*
G75*
G02*
X128915140Y-107448460I0J200000D01*
G01*
X128915140Y-107048460D01*
G75*
G02*
X129115140Y-106848460I200000J0D01*
G01*
G37*
G36*
G01*
X129115140Y-105198460D02*
X129665140Y-105198460D01*
G75*
G02*
X129865140Y-105398460I0J-200000D01*
G01*
X129865140Y-105798460D01*
G75*
G02*
X129665140Y-105998460I-200000J0D01*
G01*
X129115140Y-105998460D01*
G75*
G02*
X128915140Y-105798460I0J200000D01*
G01*
X128915140Y-105398460D01*
G75*
G02*
X129115140Y-105198460I200000J0D01*
G01*
G37*
%TD*%
%TO.C,D101*%
G36*
G01*
X124909160Y-104149870D02*
X124909160Y-103637370D01*
G75*
G02*
X125127910Y-103418620I218750J0D01*
G01*
X125565410Y-103418620D01*
G75*
G02*
X125784160Y-103637370I0J-218750D01*
G01*
X125784160Y-104149870D01*
G75*
G02*
X125565410Y-104368620I-218750J0D01*
G01*
X125127910Y-104368620D01*
G75*
G02*
X124909160Y-104149870I0J218750D01*
G01*
G37*
G36*
G01*
X123334160Y-104149870D02*
X123334160Y-103637370D01*
G75*
G02*
X123552910Y-103418620I218750J0D01*
G01*
X123990410Y-103418620D01*
G75*
G02*
X124209160Y-103637370I0J-218750D01*
G01*
X124209160Y-104149870D01*
G75*
G02*
X123990410Y-104368620I-218750J0D01*
G01*
X123552910Y-104368620D01*
G75*
G02*
X123334160Y-104149870I0J218750D01*
G01*
G37*
%TD*%
%TO.C,D4*%
G36*
G01*
X113238700Y-81752730D02*
X113238700Y-82265230D01*
G75*
G02*
X113019950Y-82483980I-218750J0D01*
G01*
X112582450Y-82483980D01*
G75*
G02*
X112363700Y-82265230I0J218750D01*
G01*
X112363700Y-81752730D01*
G75*
G02*
X112582450Y-81533980I218750J0D01*
G01*
X113019950Y-81533980D01*
G75*
G02*
X113238700Y-81752730I0J-218750D01*
G01*
G37*
G36*
G01*
X114813700Y-81752730D02*
X114813700Y-82265230D01*
G75*
G02*
X114594950Y-82483980I-218750J0D01*
G01*
X114157450Y-82483980D01*
G75*
G02*
X113938700Y-82265230I0J218750D01*
G01*
X113938700Y-81752730D01*
G75*
G02*
X114157450Y-81533980I218750J0D01*
G01*
X114594950Y-81533980D01*
G75*
G02*
X114813700Y-81752730I0J-218750D01*
G01*
G37*
%TD*%
%TO.C,D3*%
G36*
G01*
X113220920Y-84666110D02*
X113220920Y-85178610D01*
G75*
G02*
X113002170Y-85397360I-218750J0D01*
G01*
X112564670Y-85397360D01*
G75*
G02*
X112345920Y-85178610I0J218750D01*
G01*
X112345920Y-84666110D01*
G75*
G02*
X112564670Y-84447360I218750J0D01*
G01*
X113002170Y-84447360D01*
G75*
G02*
X113220920Y-84666110I0J-218750D01*
G01*
G37*
G36*
G01*
X114795920Y-84666110D02*
X114795920Y-85178610D01*
G75*
G02*
X114577170Y-85397360I-218750J0D01*
G01*
X114139670Y-85397360D01*
G75*
G02*
X113920920Y-85178610I0J218750D01*
G01*
X113920920Y-84666110D01*
G75*
G02*
X114139670Y-84447360I218750J0D01*
G01*
X114577170Y-84447360D01*
G75*
G02*
X114795920Y-84666110I0J-218750D01*
G01*
G37*
%TD*%
%TO.C,D2*%
G36*
G01*
X113246320Y-75971690D02*
X113246320Y-76484190D01*
G75*
G02*
X113027570Y-76702940I-218750J0D01*
G01*
X112590070Y-76702940D01*
G75*
G02*
X112371320Y-76484190I0J218750D01*
G01*
X112371320Y-75971690D01*
G75*
G02*
X112590070Y-75752940I218750J0D01*
G01*
X113027570Y-75752940D01*
G75*
G02*
X113246320Y-75971690I0J-218750D01*
G01*
G37*
G36*
G01*
X114821320Y-75971690D02*
X114821320Y-76484190D01*
G75*
G02*
X114602570Y-76702940I-218750J0D01*
G01*
X114165070Y-76702940D01*
G75*
G02*
X113946320Y-76484190I0J218750D01*
G01*
X113946320Y-75971690D01*
G75*
G02*
X114165070Y-75752940I218750J0D01*
G01*
X114602570Y-75752940D01*
G75*
G02*
X114821320Y-75971690I0J-218750D01*
G01*
G37*
%TD*%
%TO.C,D1*%
G36*
G01*
X113233820Y-78821570D02*
X113233820Y-79334070D01*
G75*
G02*
X113015070Y-79552820I-218750J0D01*
G01*
X112577570Y-79552820D01*
G75*
G02*
X112358820Y-79334070I0J218750D01*
G01*
X112358820Y-78821570D01*
G75*
G02*
X112577570Y-78602820I218750J0D01*
G01*
X113015070Y-78602820D01*
G75*
G02*
X113233820Y-78821570I0J-218750D01*
G01*
G37*
G36*
G01*
X114808820Y-78821570D02*
X114808820Y-79334070D01*
G75*
G02*
X114590070Y-79552820I-218750J0D01*
G01*
X114152570Y-79552820D01*
G75*
G02*
X113933820Y-79334070I0J218750D01*
G01*
X113933820Y-78821570D01*
G75*
G02*
X114152570Y-78602820I218750J0D01*
G01*
X114590070Y-78602820D01*
G75*
G02*
X114808820Y-78821570I0J-218750D01*
G01*
G37*
%TD*%
M02*
